<svg xmlns="http://www.w3.org/2000/svg">
<defs>
<font id="PTSerif-Caption" horiz-adv-x="600" >
  <font-face 
    font-family="PT Serif Caption"
    font-weight="400"
    font-variant="small-caps"
    font-stretch="normal"
    units-per-em="1000"
    panose-1="2 6 6 3 5 5 5 2 2 4"
    ascent="778"
    descent="-222"
    x-height="525"
    cap-height="700"
    bbox="-415 -280 1291 1002"
    underline-thickness="50"
    underline-position="-50"
    unicode-range="U+0020-U+FB02"
  />
<missing-glyph horiz-adv-x="709" 
d="M50 700h650v-700h-650v700zM570 650l-195 -217l-195 217l-50 -50l197 -220l-197 -220l50 -50l195 217l195 -217l50 50l-198 220l198 220zM162 68h-35v-7h13v-35h9v35h13v7zM271 58h-2q-1 0 -2 1q-4 0 -9 -5v4h-7v-32h8v20q3 5 7 5q2 0 4 -1zM276 65q0 -5 4 -5q5 0 5 4
q0 5 -5 5q-4 0 -4 -4zM276 26h9v32h-9v-32zM291 51h5v-25h8v25h8v7h-8q0 2 1 3t3 1h3h3l1 6q0 1 -4 1h-5h-4q-1 0 -3 -1.5t-2 -2.5q-1 -2 -1 -5v-2h-5v-7zM331 45q0 -25 23 -25q11 0 17.5 6t6.5 19q0 23 -24 23q-10 0 -16.5 -6t-6.5 -17zM338 45q0 17 16 17q17 0 17 -17
q0 -18 -17 -18q-16 0 -16 18zM361 40q-2 -1 -4 -1q-5 0 -5 6q0 4 5 4h3l3 5q-4 2 -9 2q-10 0 -10 -11q0 -13 10 -13q5 0 9 2zM402 27h9v14h5q7 0 12.5 3t5.5 11q0 10 -6 12t-13 2h-13v-42zM416 62q9 0 9 -6t-2.5 -6.5t-7.5 -0.5h-4v13h5zM440 51q3 1 5.5 1.5t5.5 0.5
q5 0 5 -5v-2q-1 0 -2 0.5t-3 0.5q-15 0 -15 -12q0 -9 10 -9q7 0 10 6l3 -5h7q-1 1 -1 8v13q0 12 -12 12q-5 0 -9 -1.5t-6 -2.5zM450 33q-5 0 -5 5q0 4 6 4q2 0 3 -0.5t2 -0.5v-3q-1 -5 -6 -5zM494 59q-2 1 -5 1q-5 0 -7 -6h-1l-1 5h-7v-32h9v20q0 5 7 5q1 0 1 -0.5t1 -0.5h1
zM499 51q10 2 11 2q6 0 6 -5v-2q-2 0 -3 0.5t-3 0.5q-15 0 -15 -12q0 -9 10 -9q8 0 11 6h1l1 -5h7q-1 1 -1 8v13q0 12 -12 12q-5 0 -8 -1.5t-6 -2.5zM509 33q-5 0 -5 5q0 4 6 4q2 0 3 -0.5t3 -0.5v-3q-3 -5 -7 -5zM557 69h-36v-7h14v-35h8v35h14v7zM567 59h-10l14 -32
q-2 -5 -5 -5l-2 1l-2 -7q1 -1 6 -1q7 0 11 15l12 29h-9l-6 -18v-6h-1l-1 6zM595 15h9v13q2 -2 6 -2q16 0 16 18q0 16 -13 16q-6 0 -10 -5h-2l-1 4h-5v-44zM611 53q6 0 6 -9q0 -11 -9 -11q-2 0 -4 2v12q0 6 7 6zM656 35q-2 -2 -8 -2q-8 0 -8 7h21v7q0 13 -14 13

<glyph glyph-name="fi" unicode="fi" horiz-adv-x="676" 
d="M635 0h-253v50h74v425h-231v-425h83v-50h-262v50h74v425h-85v50h85v16q0 65 22.5 106t59 64t83 31t94.5 8q22 0 49.5 -5t53 -12.5t47 -16t32.5 -16.5v-84h-105v70q-17 5 -34 7.5t-35 2.5q-30 0 -59.5 -7.5t-52 -25t-36.5 -46t-14 -70.5v-22h336v-475h74v-50z" />
    <glyph glyph-name="fl" unicode="fl" horiz-adv-x="680" 
d="M460 690q-39 6 -74 6q-75 0 -118 -31t-43 -109v-31h128v-50h-128v-425h91v-50h-270v50h74v425h-85v50h85v26q0 61 19.5 100t54 61t82.5 30t104 8h185v-700h74v-50h-253v50h74v640z" />
    <glyph glyph-name=".notdef" horiz-adv-x="709" 
d="M50 700h650v-700h-650v700zM570 650l-195 -217l-195 217l-50 -50l197 -220l-197 -220l50 -50l195 217l195 -217l50 50l-198 220l198 220zM162 68h-35v-7h13v-35h9v35h13v7zM271 58h-2q-1 0 -2 1q-4 0 -9 -5v4h-7v-32h8v20q3 5 7 5q2 0 4 -1zM276 65q0 -5 4 -5q5 0 5 4
q0 5 -5 5q-4 0 -4 -4zM276 26h9v32h-9v-32zM291 51h5v-25h8v25h8v7h-8q0 2 1 3t3 1h3h3l1 6q0 1 -4 1h-5h-4q-1 0 -3 -1.5t-2 -2.5q-1 -2 -1 -5v-2h-5v-7zM331 45q0 -25 23 -25q11 0 17.5 6t6.5 19q0 23 -24 23q-10 0 -16.5 -6t-6.5 -17zM338 45q0 17 16 17q17 0 17 -17
q0 -18 -17 -18q-16 0 -16 18zM361 40q-2 -1 -4 -1q-5 0 -5 6q0 4 5 4h3l3 5q-4 2 -9 2q-10 0 -10 -11q0 -13 10 -13q5 0 9 2zM402 27h9v14h5q7 0 12.5 3t5.5 11q0 10 -6 12t-13 2h-13v-42zM416 62q9 0 9 -6t-2.5 -6.5t-7.5 -0.5h-4v13h5zM440 51q3 1 5.5 1.5t5.5 0.5
q5 0 5 -5v-2q-1 0 -2 0.5t-3 0.5q-15 0 -15 -12q0 -9 10 -9q7 0 10 6l3 -5h7q-1 1 -1 8v13q0 12 -12 12q-5 0 -9 -1.5t-6 -2.5zM450 33q-5 0 -5 5q0 4 6 4q2 0 3 -0.5t2 -0.5v-3q-1 -5 -6 -5zM494 59q-2 1 -5 1q-5 0 -7 -6h-1l-1 5h-7v-32h9v20q0 5 7 5q1 0 1 -0.5t1 -0.5h1
zM499 51q10 2 11 2q6 0 6 -5v-2q-2 0 -3 0.5t-3 0.5q-15 0 -15 -12q0 -9 10 -9q8 0 11 6h1l1 -5h7q-1 1 -1 8v13q0 12 -12 12q-5 0 -8 -1.5t-6 -2.5zM509 33q-5 0 -5 5q0 4 6 4q2 0 3 -0.5t3 -0.5v-3q-3 -5 -7 -5zM557 69h-36v-7h14v-35h8v35h14v7zM567 59h-10l14 -32
q-2 -5 -5 -5l-2 1l-2 -7q1 -1 6 -1q7 0 11 15l12 29h-9l-6 -18v-6h-1l-1 6zM595 15h9v13q2 -2 6 -2q16 0 16 18q0 16 -13 16q-6 0 -10 -5h-2l-1 4h-5v-44zM611 53q6 0 6 -9q0 -11 -9 -11q-2 0 -4 2v12q0 6 7 6zM656 35q-2 -2 -8 -2q-8 0 -8 7h21v7q0 13 -14 13
q-16 0 -16 -18q0 -16 16 -16q8 0 12 4zM647 53q7 0 6 -7h-13q0 7 7 7zM92 27h9v14h5q7 0 12.5 3t5.5 11q0 10 -6 12t-13 2h-13v-42zM106 62q9 0 9 -6t-2.5 -6.5t-7.5 -0.5h-4v13h5zM200 38q0 -5 -8 -5q-3 0 -5 0.5t-6 2.5l-3 -9q4 -1 7 -1.5t8 -0.5q16 0 16 14q0 5 -3.5 7.5
t-7 4l-7 3t-3.5 4.5t7 3q3 0 5.5 -0.5t5.5 -1.5l2 8q-4 1 -7 1.5t-6 0.5q-16 0 -16 -13q0 -5 3.5 -7.5t7 -4l7 -3t3.5 -3.5zM239 34q-2 -2 -8 -2q-8 0 -8 7h21v7q0 13 -14 13q-16 0 -16 -18q0 -16 16 -16q8 0 12 4zM230 52q7 0 6 -7h-13q0 7 7 7z" />
    <glyph glyph-name=".null" horiz-adv-x="0" 
 />
    <glyph glyph-name="nonmarkingreturn" horiz-adv-x="274" 
 />
    <glyph glyph-name="space" unicode=" " horiz-adv-x="274" 
 />
    <glyph glyph-name="exclam" unicode="!" horiz-adv-x="368" 
d="M195 218l-38 177v305h105v-305l-37 -177h-30zM133 58q0 31 21.5 49t55.5 18q35 0 57 -18t22 -49q0 -30 -22 -48t-57 -18q-34 0 -55.5 18t-21.5 48z" />
    <glyph glyph-name="quotedbl" unicode="&#x22;" horiz-adv-x="428" 
d="M234 700h98l-27 -197h-44zM97 700h98l-27 -197h-44z" />
    <glyph glyph-name="numbersign" unicode="#" 
d="M345 233h-160l-46 -175h-59l46 175h-90l17 47h85l40 149h-86l17 47h83l44 166h59l-44 -166h159l45 166h59l-45 -166h90l-20 -47h-83l-40 -149h87l-21 -47h-78l-46 -175h-59zM199 280h158l40 149h-160z" />
    <glyph glyph-name="dollar" unicode="$" 
d="M267 -12q-34 0 -64 6t-54.5 15.5t-43.5 20t-31 19.5v139h72v-100l20 -26q18 -9 39 -15t62 -7v284q-1 0 -8 2.5t-34 13.5q-33 13 -63 29t-53.5 38.5t-37.5 53t-14 72.5q0 36 15.5 67t43.5 55t66.5 38.5t84.5 17.5v49h60v-49q54 -3 92.5 -12.5t68.5 -22.5v-131h-72v82
l-20 20q-35 12 -69 12v-266q48 -20 88 -39t69 -43t45 -56.5t16 -78.5q0 -74 -57.5 -124t-160.5 -61v-61h-60v58zM440 168q0 26 -9 46t-24.5 35.5t-36.5 28t-45 22.5v-254q51 12 83 43t32 79zM162 550q0 -52 30.5 -82t76.5 -52v242q-50 -5 -78.5 -35.5t-28.5 -72.5z" />
    <glyph glyph-name="percent" unicode="%" horiz-adv-x="908" 
d="M757 714l41 -38l-657 -686l-39 39zM58 542q0 39 15 70t41 53.5t62.5 34.5t78.5 12q43 0 79 -10.5t62 -31.5t40.5 -53t14.5 -75q0 -39 -14.5 -70.5t-40.5 -53.5t-62 -34t-79 -12q-42 0 -78.5 10.5t-62.5 31.5t-41 53t-15 75zM154 542q0 -60 26 -96t75 -36q100 0 100 132
t-100 132q-49 0 -75 -33t-26 -99zM456 159q0 39 15 70t41 53.5t62.5 34.5t78.5 12q43 0 79 -10.5t62 -31.5t40.5 -53t14.5 -75q0 -39 -14.5 -70.5t-40.5 -53.5t-62 -34t-79 -12q-42 0 -78.5 10.5t-62.5 31.5t-41 53t-15 75zM552 159q0 -60 26 -96t75 -36q100 0 100 132
t-100 132q-49 0 -75 -33t-26 -99z" />
    <glyph glyph-name="ampersand" unicode="&#x26;" horiz-adv-x="977" 
d="M605 123q-34 27 -73.5 63.5l-76.5 74t-68 72.5t-48 58q-47 -41 -69 -80.5t-22 -91.5q0 -38 14 -70.5t39 -56t60 -37t76 -13.5q49 0 92 20t76 61zM319 583q0 -18 8 -38t20.5 -40.5t28 -39t29.5 -33.5q41 30 63 67.5t22 94.5q0 32 -21 54t-65 22q-24 0 -40.5 -7.5t-26 -20
t-14 -28t-4.5 -31.5zM780 0l-58.5 34.5t-77.5 55.5q-15 -18 -39 -36t-55.5 -33t-71 -24t-84.5 -9q-61 0 -109.5 16.5t-82 43.5t-51.5 62t-18 73q0 49 20 88t47.5 69t58 50.5l51.5 33.5q-32 32 -54.5 74.5t-22.5 79.5q0 25 11 49.5t33 43t54 30t73 11.5q75 0 121 -29t46 -83
q0 -33 -13 -61t-33 -52t-45.5 -44t-50.5 -37q46 -51 106 -104.5t127 -107.5q8 10 20 32.5t23 53.5t19 67.5t8 74.5v14t-1 14h-66v50h230v-50h-75q-10 -58 -25 -106t-31.5 -84.5t-32 -62t-24.5 -37.5q42 -31 83 -58t91 -52h61v-50h-162z" />
    <glyph glyph-name="quotesingle" unicode="'" horiz-adv-x="250" 
d="M97 700h98l-27 -197h-44z" />
    <glyph glyph-name="parenleft" unicode="(" horiz-adv-x="389" 
d="M341 -210q-57 36 -107 80t-87 98.5t-58.5 122.5t-21.5 152q0 82 22 148.5t59.5 121.5t88 101t107.5 88l28 -30q-45 -43 -82.5 -86.5t-64.5 -93.5t-42 -111t-15 -138q0 -74 16 -135.5t43.5 -112.5t64 -93.5t78.5 -78.5z" />
    <glyph glyph-name="parenright" unicode=")" horiz-adv-x="389" 
d="M20 -180q42 36 78.5 80.5t64 98t43 117t15.5 137.5q0 77 -15 136t-42 108t-64.5 90.5t-82.5 84.5l28 30q58 -38 108.5 -82.5t88 -98.5t59 -120t21.5 -148q0 -83 -20.5 -151.5t-57.5 -125.5t-87 -103t-110 -83z" />
    <glyph glyph-name="asterisk" unicode="*" horiz-adv-x="522" 
d="M461 505l-62 -108l-103 113l16 28zM398 693l62 -110l-147 -27l-18 25zM195 743h128l-47 -148h-35zM56 583l68 110l100 -111l-16 -26zM123 397l-67 108l153 35l15 -29zM323 349h-128l46 148h35z" />
    <glyph glyph-name="plus" unicode="+" 
d="M68 371h202v209h60v-209h202v-54h-202v-215h-60v215h-202v54z" />
    <glyph glyph-name="comma" unicode="," horiz-adv-x="319" 
d="M61 -144q21 7 38.5 21.5t31 32.5t21 39t7.5 42v9h-70q-10 16 -14 30t-4 28q0 17 5 32t13 30h126q10 -25 14 -48.5t4 -45.5q0 -40 -12.5 -74t-34 -60.5t-49 -44.5t-57.5 -26z" />
    <glyph glyph-name="hyphen" unicode="-" horiz-adv-x="475" 
d="M80 314h316v-64h-316v64z" />
    <glyph glyph-name="period" unicode="." horiz-adv-x="314" 
d="M80 58q0 31 21 49t56 18t57 -18t22 -49q0 -30 -22 -48t-57 -18t-56 18t-21 48z" />
    <glyph glyph-name="slash" unicode="/" horiz-adv-x="386" 
d="M366 713l49 -19l-410 -824l-48 20z" />
    <glyph glyph-name="zero" unicode="0" 
d="M37 350q0 180 68.5 271t194.5 91q135 0 199 -89.5t64 -272.5q0 -180 -69 -271t-201 -91q-69 0 -117.5 24.5t-79 71t-45 113.5t-14.5 153zM149 350q0 -72 7.5 -131t25 -101t44.5 -65t66 -23q88 0 123.5 77.5t35.5 242.5q0 72 -6.5 131t-24 101t-46.5 65t-74 23
q-83 0 -117 -77.5t-34 -242.5z" />
    <glyph glyph-name="one" unicode="1" 
d="M479 0h-331v64h114v564l-118 -62l-27 49l145 85h105v-636h112v-64z" />
    <glyph glyph-name="two" unicode="2" 
d="M170 533h-96v111q39 30 94 48t121 18q56 0 97 -14t67.5 -37.5t39 -54.5t12.5 -66q0 -63 -31 -126t-78 -119t-103 -103t-107 -80l-22 -14l-16 -10.5l-11 -7.5v-4l65 6h232l20 20v96h64v-196h-454v84q26 15 60.5 40t71.5 58t73 72.5t64 83t45.5 89t17.5 91.5q0 29 -8.5 54
t-25 44t-41 29.5t-55.5 10.5q-33 0 -54.5 -5t-41.5 -13v-105z" />
    <glyph glyph-name="three" unicode="3" 
d="M271 44q37 0 67 11.5t52 31.5t34 46.5t12 57.5q0 36 -13 63.5t-35.5 46t-52.5 28t-64 9.5h-71v68l225 216v4l-60 -6h-201l-20 -20v-80h-64v180h432v-78l-188 -176l-23 -21l-16.5 -15t-9.5 -8v-2q1 0 7 1t13 3q8 2 18 3q53 -2 96 -15.5t74 -39t47.5 -62t16.5 -84.5
q0 -50 -21.5 -90t-58.5 -68t-87 -43t-107 -15q-26 0 -55.5 4t-57.5 10.5t-52.5 16t-40.5 21.5v118h96v-89q14 -10 43.5 -18.5t64.5 -8.5z" />
    <glyph glyph-name="four" unicode="4" 
d="M548 0h-294v64h103v129h-343v64l343 443h105v-443h124v-64h-124v-129h86v-64zM357 549l7 72h-3l-39 -72l-208 -266l-37 -33l72 7h208v292z" />
    <glyph glyph-name="five" unicode="5" 
d="M438 750h64v-130h-305v-190h64q56 0 103 -14t80.5 -40t52 -65t18.5 -88q0 -58 -22.5 -101.5t-59.5 -73t-85.5 -44t-99.5 -14.5q-46 0 -90 10t-76 33v107h96v-87l30 -5.5t39 -3.5q37 0 67 11.5t51.5 32.5t33 49.5t11.5 63.5q0 40 -16 68.5t-44 47t-65.5 27t-80.5 8.5h-71
v348h285l20 20v30z" />
    <glyph glyph-name="six" unicode="6" 
d="M565 212q0 -47 -18 -88t-50.5 -71t-78.5 -47.5t-103 -17.5q-63 0 -112 19.5t-82 54.5t-50 83t-17 105q0 94 34.5 171t92.5 135t133 96t156 55l14 -50q-52 -15 -104.5 -42t-96 -66t-74 -90t-37.5 -114q9 13 25.5 26t38.5 23t49.5 16.5t58.5 6.5q48 0 89 -14t70 -40
t45.5 -64t16.5 -87zM453 203q0 72 -37.5 116t-105.5 44q-53 0 -89 -23t-53 -52q-2 -14 -2 -33v-30q0 -32 9.5 -65.5t28.5 -61t48.5 -45.5t68.5 -18q35 0 60 14.5t41 38.5t23.5 54t7.5 61z" />
    <glyph glyph-name="seven" unicode="7" 
d="M135 519h-64v181h470v-79l-251 -621h-106l276 578l34 47l-57 -5h-282l-20 -20v-81z" />
    <glyph glyph-name="eight" unicode="8" 
d="M55 157q0 34 12.5 64.5t35 56t52.5 46t65 35.5q-63 29 -99.5 70t-36.5 107q0 39 15.5 71t44.5 55.5t70.5 36.5t92.5 13q100 0 155.5 -44.5t55.5 -114.5q0 -58 -37.5 -106.5t-102.5 -72.5q79 -38 124.5 -85.5t45.5 -117.5q0 -38 -16.5 -71t-49 -58t-79.5 -39.5t-108 -14.5
t-106 14t-75 37t-44.5 54t-14.5 64zM445 153q0 34 -15 61t-40.5 48.5t-58 39.5t-68.5 33q-31 -17 -52 -37.5t-33.5 -43t-17.5 -44.5t-5 -41q0 -24 8 -48t25.5 -43t46 -31t69.5 -12q35 0 61.5 10.5t44 27t26.5 38t9 42.5zM187 550q0 -30 12 -53.5t32.5 -41.5t47.5 -33t57 -28
q47 34 64.5 67.5t17.5 74.5q0 62 -29.5 95.5t-83.5 33.5q-30 0 -52 -10t-36.5 -26t-22 -36.5t-7.5 -42.5z" />
    <glyph glyph-name="nine" unicode="9" 
d="M52 487q0 49 17 90t49 71t79 47t107 17q66 0 113.5 -19.5t79 -54.5t46.5 -85.5t15 -111.5q0 -93 -32 -171.5t-87 -138t-128.5 -96t-157.5 -45.5l-14 50q132 26 207.5 106t93.5 193q-26 -24 -61.5 -40.5t-94.5 -16.5q-51 0 -93.5 13.5t-73 40t-48 64.5t-17.5 87zM164 488
q0 -29 10 -56.5t28.5 -48.5t45 -34t59.5 -13q52 0 87 16t52 41q2 13 2.5 32t0.5 31q0 36 -8 73.5t-26 67.5t-46.5 49t-68.5 19q-67 0 -101.5 -47.5t-34.5 -129.5z" />
    <glyph glyph-name="colon" unicode=":" horiz-adv-x="368" 
d="M134 441q0 31 21 49t56 18t57 -18t22 -49q0 -30 -22 -48t-57 -18t-56 18t-21 48zM134 58q0 31 21 49t56 18t57 -18t22 -49q0 -30 -22 -48t-57 -18t-56 18t-21 48z" />
    <glyph glyph-name="semicolon" unicode=";" horiz-adv-x="373" 
d="M138 441q0 31 21 49t56 18t57 -18t22 -49q0 -30 -22 -48t-57 -18t-56 18t-21 48zM119 -144q21 7 38.5 21.5t31 32.5t21 39t7.5 42v9h-70q-10 16 -14 30t-4 28q0 17 5 32t13 30h126q10 -25 14 -48.5t4 -45.5q0 -40 -12.5 -74t-34 -60.5t-49 -44.5t-57.5 -26z" />
    <glyph glyph-name="less" unicode="&#x3c;" 
d="M52 324v31l431 235l30 -59l-351 -186l357 -186l-37 -56z" />
    <glyph glyph-name="equal" unicode="=" 
d="M47 452h505v-54h-505v54zM47 290h505v-54h-505v54z" />
    <glyph glyph-name="greater" unicode="&#x3e;" 
d="M551 369v-31l-432 -235l-33 55l354 194l-357 183l37 55z" />
    <glyph glyph-name="question" unicode="?" horiz-adv-x="531" 
d="M174 548h-96v121q42 23 88 33t100 10q118 0 173 -53.5t55 -148.5q0 -44 -15.5 -82t-45 -68t-71.5 -50.5t-96 -27.5v-100h-64v142q45 9 78.5 23t56 36t34 53.5t11.5 75.5q0 27 -7 53.5t-22 47.5t-38.5 34t-56.5 13q-35 0 -54.5 -5.5t-29.5 -13.5v-93zM155 58q0 31 21 49
t56 18t57 -18t22 -49q0 -30 -22 -48t-57 -18t-56 18t-21 48z" />
    <glyph glyph-name="at" unicode="@" horiz-adv-x="1111" 
d="M792 490l-57 -285v-148h13q45 0 83.5 19.5t66 55t43.5 85t16 109.5q0 76 -30.5 137.5t-82.5 105t-122.5 66.5t-149.5 23q-95 0 -172 -32t-131.5 -88.5t-84.5 -132.5t-30 -163q0 -89 35 -157.5t93 -115t132.5 -71t153.5 -24.5q32 0 73.5 7t75.5 21l18 -46q-40 -20 -87 -28
t-104 -8q-51 0 -105 11.5t-104.5 34.5t-95 58t-77.5 81t-52.5 104t-19.5 127q0 109 39 197t105.5 150t155 95.5t187.5 33.5q94 0 175.5 -26.5t141 -76t93.5 -121t34 -162.5q0 -59 -16.5 -117.5t-53 -104.5t-94.5 -74.5t-141 -28.5q-17 0 -33.5 1.5t-35.5 3.5v176h-6
q-13 -32 -34.5 -63t-49.5 -56.5t-59.5 -41t-64.5 -15.5q-67 0 -103.5 41.5t-36.5 110.5q0 63 23.5 124t64 109t94 77t113.5 29q40 0 65 -6.5t51 -17.5zM685 425q-17 10 -36 15t-46 5q-43 0 -80.5 -26.5t-65.5 -67t-44.5 -89.5t-16.5 -93q0 -48 17 -74t62 -26q21 0 45.5 18
t48.5 47.5t46.5 66t40.5 74.5z" />
    <glyph glyph-name="A" unicode="A" horiz-adv-x="755" 
d="M245 0h-245v56h78l259 644h106l237 -644h75v-56h-286v56h89l-65 176h-266l-68 -176h86v-56zM250 288h226l-82 231l-25 106h-4l-29 -108z" />
    <glyph glyph-name="B" unicode="B" horiz-adv-x="690" 
d="M32 0v56h91v588h-91v56h131q21 0 40 1t40 2t45.5 2t54.5 1q44 0 90 -6.5t83 -24.5t60.5 -50.5t23.5 -84.5q0 -27 -9.5 -53t-28 -48t-46.5 -39t-65 -25v-4q33 -5 66 -17t59.5 -32.5t42.5 -50.5t16 -72q0 -54 -26.5 -93t-69.5 -64t-97.5 -36.5t-110.5 -11.5q-39 0 -87.5 3
t-93.5 3h-118zM339 50q39 0 72.5 10.5t57.5 29.5t37.5 45.5t13.5 58.5q0 40 -16.5 66.5t-44 42t-64.5 21.5t-78 6h-82v-271q15 -4 36.5 -6.5t67.5 -2.5zM289 382q20 0 44.5 1.5t41.5 3.5q51 16 82 51.5t31 83.5q0 66 -42 97t-114 31q-34 0 -57.5 -1.5t-39.5 -3.5v-263h54z
" />
    <glyph glyph-name="C" unicode="C" horiz-adv-x="698" 
d="M569 184h64v-157q-31 -17 -82 -28t-101 -11q-92 0 -165 21t-123.5 65.5t-77.5 112.5t-27 163q0 98 30 166.5t81 112t118 63.5t141 20q36 0 65 -2.5t52.5 -7.5t43.5 -12t39 -15v-171h-64v105l-14 20q-11 5 -34.5 12t-75.5 7q-54 0 -101 -17t-81.5 -53t-54.5 -92.5
t-20 -135.5q0 -143 72.5 -220.5t203.5 -77.5q36 0 60.5 5.5t36.5 14.5l14 19v93z" />
    <glyph glyph-name="D" unicode="D" horiz-adv-x="782" 
d="M32 0v56h91v588h-91v56h123q19 0 44.5 1t52.5 2.5t51.5 3t41.5 1.5q93 0 164 -23.5t119 -68t72.5 -109.5t24.5 -148q0 -80 -23 -147t-72 -116.5t-125.5 -77t-182.5 -27.5q-16 0 -37 1.5t-44.5 3l-47.5 3t-45 1.5h-116zM330 652q-28 0 -54 -1t-41 -4v-596q6 -1 20 -1.5
t30.5 -1l31.5 -1t21 -0.5q75 0 125 25.5t80.5 68t43.5 99t13 119.5q0 49 -12.5 101t-43.5 95t-83 70t-131 27z" />
    <glyph glyph-name="E" unicode="E" horiz-adv-x="645" 
d="M564 700v-164h-64v86l-20 22h-245v-259h169l15 15v42h64v-171h-64v42l-15 16h-169v-273h262l20 20v98h64v-174h-549v56h91v588h-91v56h532z" />
    <glyph glyph-name="F" unicode="F" horiz-adv-x="623" 
d="M235 56h107v-56h-310v56h91v588h-91v56h541v-164h-64v86l-20 22h-254v-274h181l15 15v48h64v-183h-64v48l-15 16h-181v-258z" />
    <glyph glyph-name="G" unicode="G" horiz-adv-x="774" 
d="M669 48q-21 -12 -48 -23t-56.5 -19t-59.5 -13t-58 -5q-93 0 -165.5 21.5t-122.5 66t-76 113t-26 161.5q0 98 31.5 167t83.5 112.5t119.5 63t138.5 19.5q74 0 122 -10t86 -27v-171h-64v105l-14 20q-9 5 -23 8.5t-29.5 6t-32 3.5t-30.5 1q-55 0 -103 -17t-83.5 -53
t-56 -92.5t-20.5 -135.5q0 -142 70.5 -220t202.5 -78q33 0 56.5 4.5t41.5 11.5l15 18v189h-106v56h277v-56h-70v-227z" />
    <glyph glyph-name="H" unicode="H" horiz-adv-x="820" 
d="M318 56v-56h-286v56h91v588h-91v56h286v-56h-83v-257h350v257h-83v56h286v-56h-91v-588h91v-56h-286v56h83v275h-350v-275h83z" />
    <glyph glyph-name="I" unicode="I" horiz-adv-x="398" 
d="M346 0h-294v56h91v588h-91v56h294v-56h-91v-588h91v-56z" />
    <glyph glyph-name="J" unicode="J" horiz-adv-x="380" 
d="M36 -113q17 8 33 19.5t28.5 32t20 53.5t7.5 86v566h-83v56h286v-56h-91v-556q0 -71 -18.5 -116.5t-45.5 -73t-58 -40.5t-56 -18z" />
    <glyph glyph-name="K" unicode="K" horiz-adv-x="712" 
d="M300 382l218 262h-81v56h247v-56h-79l-238 -267l283 -321h62v-56h-161l-263 332h-53v-276h83v-56h-286v56h91v588h-91v56h286v-56h-83v-262h65z" />
    <glyph glyph-name="L" unicode="L" horiz-adv-x="609" 
d="M32 644v56h311v-56h-108v-588h266l20 22v138h72v-216h-561v56h91v588h-91z" />
    <glyph glyph-name="M" unicode="M" horiz-adv-x="984" 
d="M32 644v56h228l236 -448l241 448h215v-56h-91v-588h91v-56h-290v56h91v446q1 5 1.5 23.5t1.5 39.5q1 25 2 54h-9l-43 -107l-205 -362h-61l-200 362l-44 117h-10v-62q0 -23 0.5 -43.5t0.5 -21.5v-446h85v-56h-240v56h91v588h-91z" />
    <glyph glyph-name="N" unicode="N" horiz-adv-x="820" 
d="M542 700h246v-56h-91v-656h-65l-407 549l-44 77h-4l10 -78v-480h91v-56h-246v56h91v588h-91v56h200l350 -471l52 -86h5l-6 86v415h-91v56z" />
    <glyph glyph-name="O" unicode="O" horiz-adv-x="830" 
d="M57 350q0 78 24 144.5t69.5 115t112 75.5t151.5 27t152 -27t113 -75.5t70 -115t24 -144.5t-24 -144.5t-70 -115t-113 -75.5t-152 -27t-151.5 27t-112 75.5t-69.5 115t-24 144.5zM182 350q0 -64 14.5 -120t44.5 -97t75.5 -65t107.5 -24q57 0 99 24t69.5 65t41.5 97t14 120
t-14.5 120t-44.5 97t-75.5 65t-108.5 24q-60 0 -102.5 -24t-69.5 -65t-39 -97t-12 -120z" />
    <glyph glyph-name="P" unicode="P" horiz-adv-x="667" 
d="M32 644v56h104q45 0 97.5 4t101.5 4q55 0 108 -10.5t94 -35.5t66.5 -66.5t25.5 -103.5q0 -59 -26 -101.5t-68.5 -69.5t-98 -40t-114.5 -13h-18t-25.5 0.5t-25.5 1.5t-18 2v-216h100v-56h-303v56h91v588h-91zM235 329q5 -2 15.5 -2.5t22.5 -1.5t23.5 -1h17.5
q39 0 73.5 9.5t60.5 29.5t41 52t15 77q0 82 -51.5 121t-140.5 39q-27 0 -45 -1.5t-32 -4.5v-317z" />
    <glyph glyph-name="Q" unicode="Q" horiz-adv-x="830" 
d="M859 -131q-44 -37 -94.5 -54t-104.5 -17q-46 0 -99.5 17t-112.5 38.5t-122 42t-129 27.5l8 40q24 3 47 3q57 0 113 -12.5t113 -27.5t115 -27.5t118 -12.5q32 0 65 5t67 16zM57 350q0 78 24 144.5t69.5 115t112 75.5t151.5 27t152 -27t113 -75.5t70 -115t24 -144.5
t-24 -144.5t-70 -115t-113 -75.5t-152 -27t-151.5 27t-112 75.5t-69.5 115t-24 144.5zM182 350q0 -64 14.5 -120t44.5 -97t75.5 -65t107.5 -24q57 0 99 24t69.5 65t41.5 97t14 120t-14.5 120t-44.5 97t-75.5 65t-108.5 24q-60 0 -102.5 -24t-69.5 -65t-39 -97t-12 -120z" />
    <glyph glyph-name="R" unicode="R" horiz-adv-x="708" 
d="M235 56h86v-56h-289v56h91v588h-91v56h101q45 0 98 4t104 4q55 0 103.5 -11.5t83.5 -35.5t55.5 -61.5t20.5 -89.5q0 -72 -44.5 -122.5t-116.5 -71.5l199 -260h62v-56h-162l-199 302h-102v-246zM314 354q77 0 120.5 42t43.5 114q0 74 -46 108t-122 34q-26 0 -43.5 -2
t-31.5 -4v-292h79z" />
    <glyph glyph-name="S" unicode="S" horiz-adv-x="596" 
d="M126 98l18 -24q18 -13 49.5 -21.5t69.5 -8.5q36 0 66.5 7.5t53.5 22.5t36 38t13 55q0 41 -27.5 68t-68.5 48t-89 41t-89 47t-68.5 65t-27.5 96q0 85 64.5 132.5t174.5 47.5q69 0 119 -9t85 -24v-172h-64v108l-16 25q-19 8 -55 12t-71 4q-60 0 -94 -27.5t-34 -77.5
q0 -41 27.5 -68.5t68.5 -49.5t89 -42.5t89 -47t68.5 -63.5t27.5 -92q0 -97 -75 -148.5t-205 -51.5q-71 0 -123 15t-76 32v182h64v-119z" />
    <glyph glyph-name="T" unicode="T" horiz-adv-x="698" 
d="M508 0h-318v56h103v588h-179l-20 -22v-129h-72v207h654v-207h-72v129l-20 22h-179v-588h103v-56z" />
    <glyph glyph-name="U" unicode="U" horiz-adv-x="762" 
d="M659 239q0 -64 -19 -110.5t-53.5 -77t-83.5 -45.5t-109 -15q-142 0 -216.5 56.5t-74.5 174.5v422h-91v56h284v-56h-81v-401q0 -52 13 -87.5t37.5 -57t60.5 -31t82 -9.5q88 0 137.5 44t49.5 144v398h-81v56h236v-56h-91v-405v0z" />
    <glyph glyph-name="V" unicode="V" horiz-adv-x="771" 
d="M614 644h-91v56h248v-56h-82l-232 -644h-111l-260 644h-86v56h307v-56h-96l180 -467l29 -95h4l30 97z" />
    <glyph glyph-name="W" unicode="W" horiz-adv-x="1056" 
d="M897 644h-87v56h246v-56h-83l-167 -644h-116l-156 554l-157 -554h-116l-175 644h-86v56h299v-56h-95l107 -428l26 -133h4l39 135q0 1 6 22.5l16 55.5l22 77.5l25 88.5l68 238h74l142 -482l31 -133h5l30 135z" />
    <glyph glyph-name="X" unicode="X" horiz-adv-x="756" 
d="M449 700h252v-56h-82l-196 -269l230 -319h91v-56h-291v56h73l-176 247l-166 -247h77v-56h-251v56h84l219 296l-210 292h-89v56h298v-56h-80l155 -223l150 223h-88v56z" />
    <glyph glyph-name="Y" unicode="Y" horiz-adv-x="727" 
d="M478 700h249v-56h-85l-213 -347v-241h91v-56h-294v56h91v240l-226 348h-91v56h302v-56h-84l181 -291l171 291h-92v56z" />
    <glyph glyph-name="Z" unicode="Z" horiz-adv-x="672" 
d="M40 56l458 588h-341l-20 -22v-125h-72v203h561v-56l-458 -588h372l20 22v125h72v-203h-592v56z" />
    <glyph glyph-name="bracketleft" unicode="[" horiz-adv-x="346" 
d="M92 700h215v-42h-115v-846h115v-42h-215v930z" />
    <glyph glyph-name="backslash" unicode="\" horiz-adv-x="428" 
d="M459 -107l-58 -27l-455 823l58 29z" />
    <glyph glyph-name="bracketright" unicode="]" horiz-adv-x="346" 
d="M254 -230h-215v42h115v846h-115v42h215v-930z" />
    <glyph glyph-name="asciicircum" unicode="^" 
d="M284 711h39l191 -277h-102l-126 199l-146 -199h-64z" />
    <glyph glyph-name="underscore" unicode="_" horiz-adv-x="460" 
d="M0 -141h460v-55h-460v55z" />
    <glyph glyph-name="grave" unicode="`" horiz-adv-x="344" 
d="M284 615l-28 -23l-196 117v41h126z" />
    <glyph glyph-name="a" unicode="a" horiz-adv-x="569" 
d="M464 139q0 -23 1 -46.5t3 -42.5h66v-50h-157l-10 95h-5q-5 -20 -18.5 -39t-34 -34t-48.5 -24t-62 -9t-62.5 10t-49.5 28t-32.5 43.5t-11.5 57.5q0 49 20.5 81t60.5 50.5t100 26.5t140 9q2 16 2 30.5v28.5q0 62 -21 94.5t-75 32.5q-20 0 -43 -2t-42 -12v-92h-90v111
q36 19 85 34t115 15q57 0 91.5 -14.5t53 -38t24 -53t5.5 -58.5q0 -63 -2.5 -120.5t-2.5 -111.5zM245 56q24 0 43 7.5t33.5 19t25 25.5t17.5 27v119q-65 0 -105.5 -8.5t-63.5 -22.5t-31.5 -33.5t-8.5 -41.5q0 -45 24 -68.5t66 -23.5z" />
    <glyph glyph-name="b" unicode="b" horiz-adv-x="614" 
d="M85 700h-85v50h190v-328h3q19 53 64 83t101 30q102 0 156.5 -64t54.5 -199q0 -139 -75.5 -210.5t-215.5 -71.5q-28 0 -56.5 3.5t-55 9t-47.5 12.5t-34 15v670zM325 468q-54 0 -86.5 -32.5t-48.5 -83.5v-291q20 -11 48.5 -17.5t61.5 -6.5q74 0 115 60t41 175q0 41 -7 77
t-23 62.5t-40.5 41.5t-60.5 15z" />
    <glyph glyph-name="c" unicode="c" horiz-adv-x="523" 
d="M482 67q-21 -29 -66.5 -53.5t-107.5 -24.5q-66 0 -115.5 19.5t-82.5 55t-49 86t-16 112.5q0 133 70.5 203t191.5 70q55 0 91 -7t66 -22v-130h-90v96q-15 9 -60 9q-38 0 -67 -11t-49 -36t-30 -67t-10 -103q0 -40 11 -76.5t33 -64t55.5 -43.5t78.5 -16q24 0 42.5 5
t32.5 10.5t25 12.5t21 15z" />
    <glyph glyph-name="d" unicode="d" horiz-adv-x="625" 
d="M418 104q-6 -23 -19.5 -44t-33 -37t-44.5 -25t-54 -9q-111 0 -166.5 65.5t-55.5 204.5q0 67 18.5 118.5t52.5 86.5t82 53t107 18q21 0 36 -1t28 -3t25 -5.5l26 -7.5v182h-85v50h190v-700h68v-50h-162l-9 104h-4zM290 56q55 0 86 31t44 86v295q-20 10 -44.5 15t-64.5 5
q-37 0 -65.5 -16t-48 -46t-29.5 -72.5t-10 -94.5q0 -42 7.5 -79t23.5 -64.5t41 -43.5t60 -16z" />
    <glyph glyph-name="e" unicode="e" horiz-adv-x="566" 
d="M499 69q-26 -37 -73.5 -58.5t-110.5 -21.5q-66 0 -116.5 19.5t-84.5 55t-51.5 86t-17.5 112.5q0 134 67 203.5t188 69.5q40 0 78.5 -10t68.5 -33t48.5 -61t18.5 -94q0 -17 -2 -36t-6 -40h-348q0 -44 11.5 -80t35 -62t58.5 -40.5t83 -14.5q39 0 72.5 13t53.5 30zM296 488
q-31 0 -54.5 -9t-40.5 -30t-27 -55.5t-13 -85.5h241q1 9 1.5 18.5t0.5 17.5q0 66 -26.5 105t-81.5 39z" />
    <glyph glyph-name="f" unicode="f" horiz-adv-x="385" 
d="M347 750q35 0 62.5 -6t41.5 -11v-97h-96v64q-33 0 -57.5 -6t-40.5 -23t-24 -46.5t-8 -77.5v-22h128v-64h-128v-411h107v-50h-286v50h74v411h-85v64h85v16q0 101 60.5 155t166.5 54z" />
    <glyph glyph-name="g" unicode="g" horiz-adv-x="592" 
d="M582 525v-64h-117q14 -14 26 -39t12 -60q0 -74 -58 -119t-167 -45q-20 0 -34 0.5t-30 4.5q-5 -10 -12.5 -21.5t-7.5 -24.5q0 -21 26 -31.5t65 -19t85 -17t85.5 -25t65.5 -43.5t26 -71q0 -38 -19.5 -66.5t-55 -47t-84.5 -27.5t-107 -9q-125 0 -187 33t-62 91q0 56 38 86
t107 50q-26 11 -42 24t-16 39q0 12 6 24.5t16 24t22 21t23 15.5q-64 17 -98.5 58t-34.5 98q0 73 57 117t168 44h304zM442 -74q0 33 -23.5 52.5t-59 32t-76.5 20.5t-77 19q-42 -25 -55.5 -50.5t-13.5 -54.5q0 -42 42 -70t122 -28q41 0 68 6.5t43.5 17.5t23 25t6.5 30z
M158 364q0 -26 6 -48t19.5 -37.5t36.5 -24.5t58 -9q64 0 92 32.5t28 86.5q0 21 -1.5 35t-4 25t-5.5 19.5l-6 17.5q-23 10 -49 13.5t-54 3.5q-68 0 -94 -28t-26 -86z" />
    <glyph glyph-name="h" unicode="h" horiz-adv-x="661" 
d="M642 0h-245v50h66v246q0 83 -22 127.5t-78 44.5q-30 0 -56 -10t-46 -26t-34.5 -35.5t-21.5 -38.5v-308h66v-50h-245v50h74v650h-85v50h190v-331h1q23 49 72.5 82.5t118.5 33.5q39 0 71 -9.5t54 -34.5t34 -67t12 -107v-267h74v-50z" />
    <glyph glyph-name="i" unicode="i" horiz-adv-x="339" 
d="M298 0h-253v50h74v425h-74v50h179v-475h74v-50zM97 687q0 29 20.5 46t52.5 17q34 0 53.5 -17t19.5 -46t-19.5 -46t-53.5 -17q-32 0 -52.5 17t-20.5 46z" />
    <glyph glyph-name="j" unicode="j" horiz-adv-x="326" 
d="M119 475h-74v50h179v-463q0 -75 -20.5 -124t-48.5 -79.5t-56.5 -45t-44.5 -19.5l-27 43q13 6 29 18.5t30 35.5t23.5 59.5t9.5 91.5v433zM96 687q0 29 20.5 46t52.5 17q34 0 53.5 -17t19.5 -46t-19.5 -46t-53.5 -17q-32 0 -52.5 17t-20.5 46z" />
    <glyph glyph-name="k" unicode="k" horiz-adv-x="582" 
d="M317 525h220v-50h-64l-155 -179l204 -246h50v-50h-144l-186 249h-37v-199h74v-50h-253v50h74v650h-85v50h190v-461h35l153 186h-76v50z" />
    <glyph glyph-name="l" unicode="l" horiz-adv-x="339" 
d="M298 0h-253v50h74v650h-85v50h190v-700h74v-50z" />
    <glyph glyph-name="m" unicode="m" horiz-adv-x="971" 
d="M617 0h-242v50h65v243q0 42 -3.5 75t-14 55t-30.5 33.5t-52 11.5q-24 0 -44 -8.5t-36 -23.5t-27.5 -34.5t-18.5 -41.5v-310h65v-50h-244v50h74v425h-74v50h179v-106h1q17 49 60.5 82.5t106.5 33.5q26 0 51.5 -5t46.5 -19t36.5 -38.5t21.5 -64.5q10 25 26.5 48t39 40.5
t50.5 28t61 10.5q41 0 71.5 -10t51 -34.5t30.5 -67t10 -108.5v-265h74v-50h-244v50h65v262q0 37 -4 66.5t-15 49t-31 30t-53 10.5q-53 0 -82.5 -32.5t-42.5 -85.5v-300h72v-50z" />
    <glyph glyph-name="n" unicode="n" horiz-adv-x="670" 
d="M651 0h-245v50h66v251q0 79 -24 123t-88 44q-28 0 -51.5 -9t-42 -24t-32 -35t-20.5 -42v-308h66v-50h-245v50h74v425h-74v50h179v-104h1q23 48 67.5 81t107.5 33q45 0 80 -9.5t58.5 -34.5t36 -67t12.5 -107v-267h74v-50z" />
    <glyph glyph-name="o" unicode="o" horiz-adv-x="622" 
d="M45 262q0 66 19 117t53.5 85.5t84 52.5t109.5 18q70 0 120.5 -19.5t82.5 -55t47.5 -86t15.5 -112.5q0 -66 -18.5 -116.5t-53 -85t-84 -52.5t-110.5 -18q-68 0 -118 19.5t-83 55t-49 85.5t-16 112zM158 262q0 -48 9 -89t29.5 -71t53 -47.5t79.5 -17.5q59 0 97 54t38 171
q0 48 -9 89.5t-28.5 72t-50 47.5t-74.5 17q-66 0 -105 -54t-39 -172z" />
    <glyph glyph-name="p" unicode="p" horiz-adv-x="636" 
d="M287 -200h-253v50h74v625h-74v50h179v-105h1q22 53 62.5 84t106.5 31q99 0 153.5 -61t54.5 -200q0 -66 -18.5 -119t-53 -90t-83 -56.5t-108.5 -19.5q-20 0 -35.5 1t-28.5 3t-25.5 6t-25.5 9v-158h74v-50zM344 468q-54 0 -85.5 -30.5t-45.5 -86.5v-293q20 -13 44.5 -17.5
t65.5 -4.5q37 0 66 17.5t49 49t30.5 75t10.5 96.5q0 43 -7 78.5t-22.5 61t-41.5 40t-64 14.5z" />
    <glyph glyph-name="q" unicode="q" horiz-adv-x="616" 
d="M417 93q-8 -21 -22 -39.5t-33.5 -33t-44.5 -23t-56 -8.5q-106 0 -161 66t-55 203t73 207t210 70q30 0 60 -3t56.5 -8t48 -10.5t33.5 -11.5v-652h74v-50h-253v50h74v243h-4zM290 56q54 0 85.5 31t45.5 85v301q-20 5 -47.5 10t-62.5 5q-74 0 -113.5 -54.5t-39.5 -172.5
q0 -44 7 -81.5t22.5 -65t40.5 -43t62 -15.5z" />
    <glyph glyph-name="r" unicode="r" horiz-adv-x="433" 
d="M284 435q-23 -12 -38 -28t-32 -46v-311h88v-50h-267v50h74v425h-74v50h179v-101h4q17 33 40 57.5t52 43.5h96v-90h-122z" />
    <glyph glyph-name="s" unicode="s" horiz-adv-x="486" 
d="M332 119q0 27 -20 47.5t-50 38t-65 35t-65 40t-50 53t-20 73.5q0 29 14 52.5t37.5 40.5t55.5 26.5t68 9.5q30 0 53 -2t42 -5.5t36 -8.5t35 -11v-135h-64v79l-19 22q-13 3 -28 5t-32 2q-48 0 -71.5 -18.5t-23.5 -46.5q0 -27 20 -47t50 -37.5t65 -34.5t65 -38.5t50 -49.5
t20 -67q0 -36 -16.5 -64t-45 -47.5t-67 -30t-81.5 -10.5q-48 0 -93.5 12.5t-71.5 29.5v131h64v-76l20 -21q13 -10 31 -16t47 -6q48 0 79 20t31 55z" />
    <glyph glyph-name="t" unicode="t" horiz-adv-x="418" 
d="M17 525h89v125h105v-125h166v-64h-166v-292q0 -63 16 -89t52 -26q31 0 53.5 11t41.5 24l25 -39q-9 -9 -24.5 -19.5t-35.5 -19.5t-44.5 -15t-50.5 -6q-67 0 -102.5 34.5t-35.5 114.5v322h-89v64z" />
    <glyph glyph-name="u" unicode="u" horiz-adv-x="647" 
d="M87 208q0 66 3 135t3 132h-74v50h178q-2 -78 -3.5 -149.5t-1.5 -148.5q0 -41 4.5 -72.5t17 -53.5t34.5 -33t56 -11q50 0 84 32t52 86v300h-73v50h178v-475h74v-50h-167l-7 114h-5q-5 -21 -19.5 -43t-36.5 -40t-51 -29.5t-63 -11.5q-45 0 -79 9.5t-57 34.5t-35 67t-12 107
z" />
    <glyph glyph-name="v" unicode="v" horiz-adv-x="571" 
d="M238 0l-192 475h-57v50h238v-50h-67l120 -315l26 -109h5l28 109l112 315h-61v50h192v-50h-62l-174 -475h-108z" />
    <glyph glyph-name="w" unicode="w" horiz-adv-x="820" 
d="M176 0l-127 475h-60v50h236v-50h-67l83 -337l12 -77h6l15 78l120 373h79l102 -351l22 -100h5l19 98l79 316h-62v50h193v-50h-63l-132 -475h-117l-80 299q-1 1 -3.5 14.5t-6.5 30.5q-4 19 -10 43h-6l-12 -43l-9 -30t-4 -15l-102 -299h-110z" />
    <glyph glyph-name="x" unicode="x" horiz-adv-x="586" 
d="M338 281l177 -231h59v-50h-244v50h67l-123 174l-124 -174h55v-50h-193v50h63l167 210l-168 215h-55v50h240v-50h-65l115 -159l112 159h-55v50h188v-50h-62z" />
    <glyph glyph-name="y" unicode="y" horiz-adv-x="568" 
d="M47 475h-59v50h258v-50h-84l136 -332l20 -76h5l19 77l107 331h-61v50h192v-50h-64l-164 -475q-14 -41 -30.5 -75.5t-32 -61t-30 -43t-24.5 -20.5h-101v90h102q7 8 13 16t12 20t13 29.5t16 44.5h-37z" />
    <glyph glyph-name="z" unicode="z" horiz-adv-x="549" 
d="M491 181v-181h-434v50l329 425h-217l-20 -20v-100h-64v170h416v-50l-331 -425h237l20 20v111h64z" />
    <glyph glyph-name="braceleft" unicode="{" horiz-adv-x="391" 
d="M150 110q0 51 -23 80t-67 29v32q44 0 67 30.5t23 74.5v238q0 48 27 77t81 29h103v-42h-53q-30 0 -44 -14t-14 -46v-233q0 -33 -12 -56t-30 -37.5t-40 -22t-42 -9.5v-6q19 -2 41 -10t40.5 -24t30.5 -39.5t12 -55.5v-233q0 -31 14 -45.5t46 -14.5h51v-42h-103
q-50 0 -79 26.5t-29 78.5v235z" />
    <glyph glyph-name="bar" unicode="|" horiz-adv-x="266" 
d="M103 700h59v-830h-59v830z" />
    <glyph glyph-name="braceright" unicode="}" horiz-adv-x="391" 
d="M241 361q0 -51 23.5 -80t66.5 -29v-32q-43 0 -66.5 -30.5t-23.5 -74.5v-239q0 -48 -27 -77t-82 -29h-102v42h53q30 0 44 14t14 46v234q0 33 10 56t26.5 37.5t36.5 22t40 9.5v6q-20 2 -40 10t-36 24t-26.5 39.5t-10.5 55.5v232q0 31 -13.5 45.5t-45.5 14.5h-52v42h103
q50 0 79 -26.5t29 -78.5v-234z" />
    <glyph glyph-name="asciitilde" unicode="~" 
d="M61 331q41 54 82 70.5t76 16.5q29 0 55.5 -10.5t52.5 -23.5t52 -23.5t54 -10.5q21 0 42.5 7.5t44.5 26.5l19 -32q-32 -42 -65.5 -54.5t-65.5 -12.5q-29 0 -56.5 10.5t-54.5 23.5t-54 23.5t-54 10.5q-25 0 -49.5 -10.5t-50.5 -41.5z" />
    <glyph glyph-name="uni00A0" unicode="&#xa0;" horiz-adv-x="274" 
 />
    <glyph glyph-name="exclamdown" unicode="&#xa1;" horiz-adv-x="368" 
d="M173.012 286.014l37.998 -176.989v-304.981h-104.994v304.981l36.998 176.989h29.998zM235.008 446.004q0 -30.998 -21.498 -48.9971q-21.499 -17.999 -55.4971 -17.999q-34.998 0 -56.9961 17.999q-21.999 17.999 -21.999 48.9971q0 29.998 21.999 47.9971
q21.998 17.999 56.9961 17.999q33.998 0 55.4971 -17.999q21.498 -17.999 21.498 -47.9971z" />
    <glyph glyph-name="cent" unicode="&#xa2;" 
d="M547 78q-10 -18 -27.5 -34t-41 -28.5t-51 -20t-58.5 -7.5v-158h-64v162q-53 6 -96.5 27t-75 54.5t-48.5 78.5t-17 98q0 62 17 111t48.5 84t75 56.5t96.5 29.5v129h64v-125q54 0 87.5 -8t63.5 -22v-167h-64v137q-3 2 -11.5 4.5t-19.5 5t-23 4t-24 1.5h-11v-440q4 0 8 -0.5
t8 -0.5q38 0 72 14t67 46zM181 269q0 -71 32 -123.5t96 -77.5v414q-57 -16 -92.5 -70.5t-35.5 -142.5z" />
    <glyph glyph-name="sterling" unicode="&#xa3;" 
d="M34 381h95q-17 32 -30 67t-13 86q0 41 17 74t47.5 56t73 35.5t94.5 12.5q69 0 121 -9.5t84 -23.5v-172h-64v115l-20 24l-21 5.5t-23.5 4t-32 2t-45.5 0.5q-24 0 -46.5 -7t-39.5 -21t-27 -34.5t-10 -47.5q0 -51 15 -90.5l29 -76.5h173v-52h-153q8 -25 10 -50t2 -53
q0 -16 -2.5 -31.5t-11.5 -32.5t-26 -36t-45 -43h279l20 20v93h64v-196h-511v33q72 27 107.5 66t35.5 99q0 32 -5.5 62.5t-19.5 68.5h-121v52z" />
    <glyph glyph-name="currency" unicode="&#xa4;" 
d="M40 171l93 81l38 12q-16 17 -22 37.5t-6 44.5q0 23 7 44t21 38l-38 12l-92 82l61 56l92 -83l14 -34q20 13 42.5 20t49.5 7q56 -2 92 -27l14 34l91 82l62 -56l-92 -81l-38 -11q14 -17 20.5 -38t7.5 -45q0 -49 -28 -83l38 -11l92 -82l-63 -56l-91 82l-13 34
q-38 -24 -92 -24q-27 0 -50 6.5t-45 17.5l-11 -33l-93 -82zM300 264q41 0 68 23t27 59t-27 60t-68 24t-68 -24t-27 -60t27 -59t68 -23z" />
    <glyph glyph-name="yen" unicode="&#xa5;" 
d="M404 700h247v-50h-86l-177 -315h159v-52h-181v-63h181v-52h-181v-118h91v-50h-294v50h91v118h-181v52h181v63h-181v52h158l-193 315h-91v50h303v-50h-86l171 -299l160 299h-91v50z" />
    <glyph glyph-name="brokenbar" unicode="&#xa6;" horiz-adv-x="266" 
d="M103 190h59v-320h-59v320zM162 380h-59v320h59v-320z" />
    <glyph glyph-name="section" unicode="&#xa7;" horiz-adv-x="595" 
d="M390 43q0 30 -24 48t-60 31.5t-78 26t-78 31.5t-60 48t-24 76q0 25 11.5 46.5t31.5 39.5t46.5 32.5t57.5 26.5q-23 10 -43.5 22t-35.5 28.5t-24 38t-9 49.5q0 27 13.5 50t38 39.5t59 26t76.5 9.5q60 0 103.5 -6t79.5 -17v-102h-72v63q-12 5 -35 11.5t-49 6.5
q-30 0 -51 -6.5t-34.5 -16.5t-19.5 -23t-6 -26q0 -30 24 -49t60 -34t78 -29t78 -32.5t60 -46t24 -68.5q0 -29 -13.5 -52.5t-34.5 -42t-46.5 -33.5t-49.5 -25q22 -9 42 -19.5t35 -24.5t23.5 -31.5t8.5 -40.5q0 -35 -15.5 -62.5t-44.5 -47t-70 -30t-91 -10.5q-97 0 -182 30
v105h72v-63q12 -8 41 -18t67 -10q54 0 87 24t33 57zM425 312q0 24 -13.5 41t-36 30t-51.5 23.5l-59 21.5q-18 -8 -35.5 -19t-31 -24t-21.5 -28t-8 -31q0 -26 14 -45t37 -33t52.5 -24.5t60.5 -20.5q18 10 34.5 23.5t29.5 28t20.5 29t7.5 28.5z" />
    <glyph glyph-name="dieresis" unicode="&#xa8;" horiz-adv-x="494" 
d="M60 688q0 29 17.5 46.5t46.5 17.5t46.5 -17.5t17.5 -46.5q0 -27 -17.5 -44.5t-46.5 -17.5t-46.5 17.5t-17.5 44.5zM306 688q0 29 18.5 46.5t46.5 17.5q29 0 46 -17.5t17 -46.5q0 -27 -17 -44.5t-46 -17.5q-28 0 -46.5 17.5t-18.5 44.5z" />
    <glyph glyph-name="copyright" unicode="&#xa9;" horiz-adv-x="907" 
d="M78 290q0 83 31 148.5t83 110.5t120 69t141 24t139.5 -24t117 -69t80 -110.5t29.5 -148.5t-29.5 -148.5t-80 -110.5t-117 -69t-139.5 -24q-81 0 -149.5 24t-119 69t-78.5 110.5t-28 148.5zM132 290q0 -69 24 -125t67 -95.5t102 -61.5t128 -22q70 0 127.5 22t98.5 61.5
t63.5 95.5t22.5 125t-24 125t-66 96t-99 61.5t-123 21.5q-74 0 -133 -22t-101 -61.5t-64.5 -95.5t-22.5 -125zM545 207h46v-100q-20 -14 -49 -19.5t-61 -5.5q-54 0 -99.5 13.5t-78.5 40t-51.5 65.5t-18.5 90q0 52 20.5 91t53.5 65t75 39.5t85 13.5q45 0 75 -5.5t53 -16.5
v-109h-50v78q-3 2 -11.5 4t-18.5 3.5t-21 2.5t-19 1q-63 0 -98.5 -44.5t-35.5 -122.5q0 -33 8 -63.5t25.5 -53.5t45.5 -36.5t67 -13.5q21 0 37 5t21 9v69z" />
    <glyph glyph-name="ordfeminine" unicode="&#xaa;" horiz-adv-x="484" 
d="M96 600l-6 73q14 6 29.5 12t36 10t47 6.5t62.5 2.5q72 0 99 -26t27 -75q0 -19 -0.5 -42.5l-1 -47.5t-1 -45.5t-0.5 -37.5h56v-50h-123l-10 59h-5q-6 -9 -16 -21t-25.5 -22t-38.5 -17t-54 -7q-52 0 -84.5 24.5t-32.5 68.5q0 31 17.5 50.5t47.5 30.5t70 15.5t84 4.5
q8 0 15.5 -0.5t15.5 -0.5q1 6 1 17.5v16.5q0 13 -3 25t-12 21.5t-24.5 15t-39.5 5.5q-13 0 -28.5 -2.5t-31.5 -7.5v-56h-71zM206 419q23 0 39.5 6.5t28.5 15.5t19 19.5t12 19.5v52q-11 1 -23 1h-23q-22 0 -42.5 -3.5t-36 -11t-24.5 -19.5t-9 -28q0 -20 15 -36t44 -16z" />
    <glyph glyph-name="guillemotleft" unicode="&#xab;" horiz-adv-x="530" 
d="M246 259l191 206l29 -20l-119 -179l125 -189l-27 -21zM27 259l241 208l29 -21l-155 -181l162 -189l-30 -22z" />
    <glyph glyph-name="logicalnot" unicode="&#xac;" 
d="M67 388h478v-190h-71v126h-407v64z" />
    <glyph glyph-name="uni00AD" unicode="&#xad;" horiz-adv-x="475" 
d="M80 314h316v-64h-316v64z" />
    <glyph glyph-name="registered" unicode="&#xae;" horiz-adv-x="785" 
d="M109 451q0 64 23 114t62 84t90.5 51.5t108.5 17.5q59 0 111 -17.5t90.5 -51.5t61 -84t22.5 -114q0 -65 -23 -114.5t-62.5 -83.5t-91 -51.5t-108.5 -17.5q-56 0 -107 17.5t-90.5 51.5t-63 83.5t-23.5 114.5zM157 451q0 -52 19.5 -93.5t52 -71t75 -45t89.5 -15.5
q49 0 92 15.5t75.5 44.5t51 70.5t18.5 94.5q0 52 -19.5 93.5t-52 70.5t-75.5 45t-90 16q-50 0 -93 -16t-75 -45t-50 -70.5t-18 -93.5zM356 343h40v-34h-140v34h39v231h-39v34h44q20 0 48 2t46 2q25 0 48.5 -4.5t41 -15t28 -26.5t10.5 -38q0 -31 -21.5 -51.5t-52.5 -29.5
l73 -104h27v-34h-77l-76 134h-39v-100zM389 579q-13 0 -19.5 -0.5t-13.5 -2.5v-103h35q65 0 65 55q0 26 -19 38.5t-48 12.5z" />
    <glyph glyph-name="macron" unicode="&#xaf;" horiz-adv-x="408" 
d="M60 668v55h288v-55h-288z" />
    <glyph glyph-name="degree" unicode="&#xb0;" horiz-adv-x="474" 
d="M101 571q0 31 11 57t31 44.5t47.5 29t60.5 10.5q66 0 108.5 -35.5t42.5 -105.5q0 -66 -42.5 -103.5t-108.5 -37.5q-33 0 -60.5 9.5t-47.5 28t-31 44.5t-11 59zM161 571q0 -40 26 -65.5t64 -25.5q43 0 67 23.5t24 67.5q0 42 -24.5 66.5t-66.5 24.5q-43 0 -66.5 -24.5
t-23.5 -66.5z" />
    <glyph glyph-name="plusminus" unicode="&#xb1;" 
d="M48 491h222v209h60v-209h222v-54h-222v-153h-60v153h-222v54zM48 231h504v-54h-504v54z" />
    <glyph glyph-name="twosuperior" unicode="&#xb2;" horiz-adv-x="480" 
d="M143 633h-64v124q17 11 33 20t35 16t43 10.5t58 3.5q43 0 72.5 -9.5t47.5 -25t26 -36.5t8 -45q0 -33 -18 -66.5t-51 -65.5t-78.5 -61.5t-99.5 -54.5v-6l35 6h172v68h64v-131h-360v63q46 23 89 50t76.5 57t54 62t20.5 65q0 19 -4 33.5t-14.5 25t-28.5 16t-46 5.5
q-20 0 -37.5 -3t-32.5 -11v-110z" />
    <glyph glyph-name="threesuperior" unicode="&#xb3;" horiz-adv-x="480" 
d="M231 420q27 0 46 7t31 18t17.5 24.5t5.5 26.5q0 42 -26.5 60t-87.5 18h-38v32l146 144h-190v-94h-64v144h334v-50l-147 -131v-1l35 4q27 0 51 -7.5t42.5 -22t29.5 -36.5t11 -51q0 -65 -56.5 -98.5t-152.5 -33.5q-46 0 -89 16t-72 35v72h90v-53q10 -6 30 -14.5t54 -8.5z
" />
    <glyph glyph-name="acute" unicode="&#xb4;" horiz-adv-x="344" 
d="M158 750h126v-41l-196 -117l-28 23z" />
    <glyph glyph-name="mu" unicode="&#xb5;" horiz-adv-x="653" 
d="M177 -200h-84v675h-74v50h179v-298q0 -41 4.5 -73t17 -54.5t34.5 -34t56 -11.5q50 0 84 33.5t52 87.5v300h-74v50h179v-475h74v-50h-175v114h-5q-5 -21 -19 -43.5t-36 -41t-50.5 -30.5t-61.5 -12q-35 0 -57.5 8t-43.5 24v-219z" />
    <glyph glyph-name="mu" unicode="&#x3bc;" horiz-adv-x="653" 
d="M177 -200h-84v675h-74v50h179v-298q0 -41 4.5 -73t17 -54.5t34.5 -34t56 -11.5q50 0 84 33.5t52 87.5v300h-74v50h179v-475h74v-50h-175v114h-5q-5 -21 -19 -43.5t-36 -41t-50.5 -30.5t-61.5 -12q-35 0 -57.5 8t-43.5 24v-219z" />
    <glyph glyph-name="paragraph" unicode="&#xb6;" horiz-adv-x="592" 
d="M444 94q0 -67 -12 -109.5t-33 -68t-49.5 -38t-61.5 -18.5q-23 -32 -53 -48t-59 -24l-23 33q25 9 46 22.5t36 36t23.5 57.5t8.5 87v286q-36 0 -71.5 10t-64 32.5t-46.5 59t-18 88.5q0 42 14 78.5t42 63.5t70.5 42.5t99.5 15.5h235v-50h-84v-556zM310 -94q35 13 52.5 56
t17.5 132v556h-49v-626q0 -40 -4 -68.5t-17 -49.5z" />
    <glyph glyph-name="periodcentered" unicode="&#xb7;" horiz-adv-x="269" 
d="M59 308q0 31 21 49t56 18t57 -18t22 -49q0 -30 -22 -48t-57 -18t-56 18t-21 48z" />
    <glyph glyph-name="cedilla" unicode="&#xb8;" horiz-adv-x="306" 
d="M125 -61q63 -2 92 -17.5t29 -48.5q0 -32 -17.5 -51t-44.5 -29t-60 -13.5t-64 -3.5v32q21 1 38.5 3t29.5 7t18.5 14t6.5 25q0 26 -23 32t-69 10l42 102h51z" />
    <glyph glyph-name="onesuperior" unicode="&#xb9;" horiz-adv-x="480" 
d="M410 380h-315v50h112v309l-99 -37l-22 45l121 53h91v-370h112v-50z" />
    <glyph glyph-name="ordmasculine" unicode="&#xba;" horiz-adv-x="490" 
d="M48 542q0 39 15 70t41 53.5t62.5 34.5t78.5 12q43 0 79 -10.5t62 -31.5t40.5 -53t14.5 -75q0 -39 -14.5 -70.5t-40.5 -53.5t-62 -34t-79 -12q-42 0 -78.5 10.5t-62.5 31.5t-41 53t-15 75zM144 542q0 -60 26 -96t75 -36q100 0 100 132t-100 132q-49 0 -75 -33t-26 -99z
" />
    <glyph glyph-name="guillemotright" unicode="&#xbb;" horiz-adv-x="530" 
d="M88 56l-29 21l125 184l-119 184l29 20l191 -206zM257 54l-31 22l164 184l-157 186l29 21l242 -208z" />
    <glyph glyph-name="onequarter" unicode="&#xbc;" horiz-adv-x="1055" 
d="M393 280h-315v50h112v309l-99 -37l-22 45l121 53h91v-370h112v-50zM845 714l41 -38l-657 -686l-39 39zM941 0h-240v50h89v69h-250v50l250 251h84v-251h95v-50h-95v-69h67v-50zM790 344l-179 -175h179v175z" />
    <glyph glyph-name="onehalf" unicode="&#xbd;" horiz-adv-x="1129" 
d="M393 280h-315v50h112v309l-99 -37l-22 45l121 53h91v-370h112v-50zM845 714l41 -38l-657 -686l-39 39zM767 253h-64v124q17 11 33 20t35 16t43 10.5t58 3.5q43 0 72.5 -9.5t47.5 -25t26 -36.5t8 -45q0 -33 -18 -66.5t-51 -65.5t-78.5 -61.5t-99.5 -54.5v-6l35 6h172v68
h64v-131h-360v63q46 23 89 50t76.5 57t54 62t20.5 65q0 19 -4 33.5t-14.5 25t-28.5 16t-46 5.5q-20 0 -37.5 -3t-32.5 -11v-110z" />
    <glyph glyph-name="threequarters" unicode="&#xbe;" horiz-adv-x="1111" 
d="M260 320q27 0 46 7t31 18t17.5 24.5t5.5 26.5q0 42 -26.5 60t-87.5 18h-38v32l146 144h-190v-94h-64v144h334v-50l-147 -131v-1l35 4q27 0 51 -7.5t42.5 -22t29.5 -36.5t11 -51q0 -65 -56.5 -98.5t-152.5 -33.5q-46 0 -89 16t-72 35v72h90v-53q10 -6 30 -14.5t54 -8.5z
M901 714l41 -38l-657 -686l-39 39zM998 0h-240v50h89v69h-250v50l250 251h84v-251h95v-50h-95v-69h67v-50zM847 344l-179 -175h179v175z" />
    <glyph glyph-name="questiondown" unicode="&#xbf;" horiz-adv-x="531" 
d="M352.011 -43.9668h95.9941v-120.992q-41.9971 -22.999 -87.9951 -32.998q-45.9971 -10 -99.9932 -10q-117.993 0 -172.99 53.4971q-54.9961 53.4971 -54.9961 148.491q0 43.9971 15.499 81.9951q15.499 37.9971 44.9971 67.9951q29.498 29.999 71.4961 50.4971
q41.9971 20.499 95.9941 27.499v99.9932h63.9961v-141.991q-44.998 -8.99902 -78.4951 -22.998q-33.498 -13.999 -55.9971 -35.998t-33.998 -53.4971t-11.499 -75.4951q0 -26.998 6.99902 -53.4971q7 -26.498 21.999 -47.4971q14.999 -20.998 38.498 -33.998
q23.498 -12.999 56.4961 -12.999q34.998 0 54.4971 5.5t29.498 13.499v92.9941zM371.01 446.004q0 -30.998 -20.999 -48.9971t-55.9971 -17.999q-34.9971 0 -56.9961 17.999t-21.999 48.9971q0 29.998 21.999 47.9971t56.9961 17.999q34.998 0 55.9971 -17.999
t20.999 -47.9971z" />
    <glyph glyph-name="Agrave" unicode="&#xc0;" horiz-adv-x="755" 
d="M245 0h-245v56h78l259 644h106l237 -644h75v-56h-286v56h89l-65 176h-266l-68 -176h86v-56zM250 288h226l-82 231l-25 106h-4l-29 -108zM433 793l-13 -24l-256 72v40l123 33z" />
    <glyph glyph-name="Aacute" unicode="&#xc1;" horiz-adv-x="755" 
d="M245 0h-245v56h78l259 644h106l237 -644h75v-56h-286v56h89l-65 176h-266l-68 -176h86v-56zM250 288h226l-82 231l-25 106h-4l-29 -108zM485 914l123 -33v-40l-256 -72l-13 24z" />
    <glyph glyph-name="Acircumflex" unicode="&#xc2;" horiz-adv-x="755" 
d="M245 0h-245v56h78l259 644h106l237 -644h75v-56h-286v56h89l-65 176h-266l-68 -176h86v-56zM250 288h226l-82 231l-25 106h-4l-29 -108zM244 761l-16 20l142 133h31l141 -130l-18 -22l-142 56z" />
    <glyph glyph-name="Atilde" unicode="&#xc3;" horiz-adv-x="755" 
d="M245 0h-245v56h78l259 644h106l237 -644h75v-56h-286v56h89l-65 176h-266l-68 -176h86v-56zM250 288h226l-82 231l-25 106h-4l-29 -108zM564 843q-36 -38 -65.5 -53t-58.5 -15q-21 0 -39.5 6.5t-36.5 14l-35 14t-35 6.5q-14 0 -31 -6.5t-35 -23.5l-22 36q43 42 76 57
t62 15q21 0 39 -6t35 -13.5t33.5 -13.5t34.5 -6q14 0 30.5 5t33.5 19z" />
    <glyph glyph-name="Adieresis" unicode="&#xc4;" horiz-adv-x="755" 
d="M245 0h-245v56h78l259 644h106l237 -644h75v-56h-286v56h89l-65 176h-266l-68 -176h86v-56zM250 288h226l-82 231l-25 106h-4l-29 -108zM194 796q0 29 18.5 43.5t46.5 14.5q29 0 48 -14.5t19 -43.5q0 -26 -19 -40t-48 -14q-28 0 -46.5 14t-18.5 40zM446 796q0 29 19 43.5
t46 14.5q29 0 48 -14.5t19 -43.5q0 -26 -19 -40t-48 -14q-27 0 -46 14t-19 40z" />
    <glyph glyph-name="Aring" unicode="&#xc5;" horiz-adv-x="755" 
d="M245 0h-245v56h78l259 644h106l237 -644h75v-56h-286v56h89l-65 176h-266l-68 -176h86v-56zM250 288h226l-82 231l-25 106h-4l-29 -108zM259 788q0 41 38 63.5t93 22.5q22 0 44 -5t39.5 -15t28.5 -25.5t11 -37.5q0 -20 -10 -35t-27.5 -26t-40 -16.5t-46.5 -5.5
q-58 0 -94 21t-36 59zM334 788q0 -17 14.5 -27.5t34.5 -10.5q29 0 42 10t13 27q0 26 -15 35.5t-36 9.5q-27 0 -40 -12.5t-13 -31.5z" />
    <glyph glyph-name="AE" unicode="&#xc6;" horiz-adv-x="1027" 
d="M943 700v-164h-64v86l-20 22h-242v-259h169l15 15v42h64v-171h-64v42l-15 16h-169v-273h262l20 20v98h64v-174h-546v56h88v197h-218l-129 -197h94v-56h-252v56h82l390 588h-60v56h531zM321 309h184v301h-2l-45 -93z" />
    <glyph glyph-name="Ccedilla" unicode="&#xc7;" horiz-adv-x="698" 
d="M569 184h64v-157q-31 -17 -82 -28t-101 -11h-7l-27 -52q68 -2 101 -18.5t33 -52.5q0 -30 -20 -49t-50.5 -29.5t-66.5 -14.5t-68 -4v33q22 1 40.5 3.5t32.5 7.5t22 13.5t8 22.5q0 27 -25 35t-75 10l40 98q-78 6 -139.5 30.5t-104 69t-65 109t-22.5 150.5q0 98 30 166.5
t81 112t118 63.5t141 20q36 0 65 -2.5t52.5 -7.5t43.5 -12t39 -15v-171h-64v105l-14 20q-11 5 -34.5 12t-75.5 7q-54 0 -101 -17t-81.5 -53t-54.5 -92.5t-20 -135.5q0 -143 72.5 -220.5t203.5 -77.5q36 0 60.5 5.5t36.5 14.5l14 19v93z" />
    <glyph glyph-name="Egrave" unicode="&#xc8;" horiz-adv-x="645" 
d="M564 700v-164h-64v86l-20 22h-245v-259h169l15 15v42h64v-171h-64v42l-15 16h-169v-273h262l20 20v98h64v-174h-549v56h91v588h-91v56h532zM411 793l-13 -24l-256 72v40l123 33z" />
    <glyph glyph-name="Eacute" unicode="&#xc9;" horiz-adv-x="645" 
d="M564 700v-164h-64v86l-20 22h-245v-259h169l15 15v42h64v-171h-64v42l-15 16h-169v-273h262l20 20v98h64v-174h-549v56h91v588h-91v56h532zM379 914l123 -33v-40l-256 -72l-13 24z" />
    <glyph glyph-name="Ecircumflex" unicode="&#xca;" horiz-adv-x="645" 
d="M564 700v-164h-64v86l-20 22h-245v-259h169l15 15v42h64v-171h-64v42l-15 16h-169v-273h262l20 20v98h64v-174h-549v56h91v588h-91v56h532zM181 761l-16 20l142 133h31l141 -130l-18 -22l-142 56z" />
    <glyph glyph-name="Edieresis" unicode="&#xcb;" horiz-adv-x="645" 
d="M564 700v-164h-64v86l-20 22h-245v-259h169l15 15v42h64v-171h-64v42l-15 16h-169v-273h262l20 20v98h64v-174h-549v56h91v588h-91v56h532zM135 796q0 29 18.5 43.5t46.5 14.5q29 0 48 -14.5t19 -43.5q0 -26 -19 -40t-48 -14q-28 0 -46.5 14t-18.5 40zM387 796
q0 29 19 43.5t46 14.5q29 0 48 -14.5t19 -43.5q0 -26 -19 -40t-48 -14q-27 0 -46 14t-19 40z" />
    <glyph glyph-name="Igrave" unicode="&#xcc;" horiz-adv-x="398" 
d="M346 0h-294v56h91v588h-91v56h294v-56h-91v-588h91v-56zM310 793l-13 -24l-256 72v40l123 33z" />
    <glyph glyph-name="Iacute" unicode="&#xcd;" horiz-adv-x="398" 
d="M346 0h-294v56h91v588h-91v56h294v-56h-91v-588h91v-56zM258 914l123 -33v-40l-256 -72l-13 24z" />
    <glyph glyph-name="Icircumflex" unicode="&#xce;" horiz-adv-x="398" 
d="M346 0h-294v56h91v588h-91v56h294v-56h-91v-588h91v-56zM59 761l-16 20l142 133h31l141 -130l-18 -22l-142 56z" />
    <glyph glyph-name="Idieresis" unicode="&#xcf;" horiz-adv-x="398" 
d="M346 0h-294v56h91v588h-91v56h294v-56h-91v-588h91v-56zM8 796q0 29 18.5 43.5t46.5 14.5q29 0 48 -14.5t19 -43.5q0 -26 -19 -40t-48 -14q-28 0 -46.5 14t-18.5 40zM260 796q0 29 19 43.5t46 14.5q29 0 48 -14.5t19 -43.5q0 -26 -19 -40t-48 -14q-27 0 -46 14t-19 40z
" />
    <glyph glyph-name="Eth" unicode="&#xd0;" horiz-adv-x="782" 
d="M32 0v56h91v275h-100v54h100v259h-91v56h123q19 0 44.5 1t52.5 2.5t51.5 3t41.5 1.5q93 0 164 -23.5t119 -68t72.5 -109.5t24.5 -148q0 -80 -23 -147t-72 -116.5t-125.5 -77t-182.5 -27.5q-16 0 -37 1.5t-44.5 3l-47.5 3t-45 1.5h-116zM330 652q-28 0 -54 -1t-41 -4v-262
h179v-54h-179v-280q6 -1 20 -1.5t30.5 -1l31.5 -1t21 -0.5q75 0 125 25.5t80.5 68t43.5 99t13 119.5q0 49 -12.5 101t-43.5 95t-83 70t-131 27z" />
    <glyph glyph-name="Ntilde" unicode="&#xd1;" horiz-adv-x="820" 
d="M542 700h246v-56h-91v-656h-65l-407 549l-44 77h-4l10 -78v-480h91v-56h-246v56h91v588h-91v56h200l350 -471l52 -86h5l-6 86v415h-91v56zM593 843q-36 -38 -65.5 -53t-58.5 -15q-21 0 -39.5 6.5t-36.5 14l-35 14t-35 6.5q-14 0 -31 -6.5t-35 -23.5l-22 36q43 42 76 57
t62 15q21 0 39 -6t35 -13.5t33.5 -13.5t34.5 -6q14 0 30.5 5t33.5 19z" />
    <glyph glyph-name="Ograve" unicode="&#xd2;" horiz-adv-x="830" 
d="M57 350q0 78 24 144.5t69.5 115t112 75.5t151.5 27t152 -27t113 -75.5t70 -115t24 -144.5t-24 -144.5t-70 -115t-113 -75.5t-152 -27t-151.5 27t-112 75.5t-69.5 115t-24 144.5zM182 350q0 -64 14.5 -120t44.5 -97t75.5 -65t107.5 -24q57 0 99 24t69.5 65t41.5 97t14 120
t-14.5 120t-44.5 97t-75.5 65t-108.5 24q-60 0 -102.5 -24t-69.5 -65t-39 -97t-12 -120zM488 793l-13 -24l-256 72v40l123 33z" />
    <glyph glyph-name="Oacute" unicode="&#xd3;" horiz-adv-x="830" 
d="M57 350q0 78 24 144.5t69.5 115t112 75.5t151.5 27t152 -27t113 -75.5t70 -115t24 -144.5t-24 -144.5t-70 -115t-113 -75.5t-152 -27t-151.5 27t-112 75.5t-69.5 115t-24 144.5zM182 350q0 -64 14.5 -120t44.5 -97t75.5 -65t107.5 -24q57 0 99 24t69.5 65t41.5 97t14 120
t-14.5 120t-44.5 97t-75.5 65t-108.5 24q-60 0 -102.5 -24t-69.5 -65t-39 -97t-12 -120zM462 914l123 -33v-40l-256 -72l-13 24z" />
    <glyph glyph-name="Ocircumflex" unicode="&#xd4;" horiz-adv-x="830" 
d="M57 350q0 78 24 144.5t69.5 115t112 75.5t151.5 27t152 -27t113 -75.5t70 -115t24 -144.5t-24 -144.5t-70 -115t-113 -75.5t-152 -27t-151.5 27t-112 75.5t-69.5 115t-24 144.5zM182 350q0 -64 14.5 -120t44.5 -97t75.5 -65t107.5 -24q57 0 99 24t69.5 65t41.5 97t14 120
t-14.5 120t-44.5 97t-75.5 65t-108.5 24q-60 0 -102.5 -24t-69.5 -65t-39 -97t-12 -120zM273 761l-16 20l142 133h31l141 -130l-18 -22l-142 56z" />
    <glyph glyph-name="Otilde" unicode="&#xd5;" horiz-adv-x="830" 
d="M57 350q0 78 24 144.5t69.5 115t112 75.5t151.5 27t152 -27t113 -75.5t70 -115t24 -144.5t-24 -144.5t-70 -115t-113 -75.5t-152 -27t-151.5 27t-112 75.5t-69.5 115t-24 144.5zM182 350q0 -64 14.5 -120t44.5 -97t75.5 -65t107.5 -24q57 0 99 24t69.5 65t41.5 97t14 120
t-14.5 120t-44.5 97t-75.5 65t-108.5 24q-60 0 -102.5 -24t-69.5 -65t-39 -97t-12 -120zM593 843q-36 -38 -65.5 -53t-58.5 -15q-21 0 -39.5 6.5t-36.5 14l-35 14t-35 6.5q-14 0 -31 -6.5t-35 -23.5l-22 36q43 42 76 57t62 15q21 0 39 -6t35 -13.5t33.5 -13.5t34.5 -6
q14 0 30.5 5t33.5 19z" />
    <glyph glyph-name="Odieresis" unicode="&#xd6;" horiz-adv-x="830" 
d="M57 350q0 78 24 144.5t69.5 115t112 75.5t151.5 27t152 -27t113 -75.5t70 -115t24 -144.5t-24 -144.5t-70 -115t-113 -75.5t-152 -27t-151.5 27t-112 75.5t-69.5 115t-24 144.5zM182 350q0 -64 14.5 -120t44.5 -97t75.5 -65t107.5 -24q57 0 99 24t69.5 65t41.5 97t14 120
t-14.5 120t-44.5 97t-75.5 65t-108.5 24q-60 0 -102.5 -24t-69.5 -65t-39 -97t-12 -120zM223 796q0 29 18.5 43.5t46.5 14.5q29 0 48 -14.5t19 -43.5q0 -26 -19 -40t-48 -14q-28 0 -46.5 14t-18.5 40zM475 796q0 29 19 43.5t46 14.5q29 0 48 -14.5t19 -43.5q0 -26 -19 -40
t-48 -14q-27 0 -46 14t-19 40z" />
    <glyph glyph-name="multiply" unicode="&#xd7;" 
d="M98 205l156 139l-154 138l44 39l155 -138l156 140l44 -39l-158 -139l160 -142l-44 -40l-159 143l-156 -140z" />
    <glyph glyph-name="Oslash" unicode="&#xd8;" horiz-adv-x="830" 
d="M57 350q0 78 24 144.5t69.5 115t112 75.5t151.5 27q54 0 100.5 -11.5t85.5 -31.5l52 74l52 -35l-52 -74q59 -49 90 -122t31 -162q0 -78 -24 -144.5t-70 -115t-113 -75.5t-152 -27q-107 0 -187 43l-62 -88l-50 36l61 87q-58 49 -88.5 121.5t-30.5 162.5zM648 350
q0 60 -12.5 112.5t-38.5 93.5l-324 -460q29 -26 66 -40t85 -14q57 0 99 24t69.5 66t41.5 98t14 120zM182 350q0 -60 12 -112t38 -93l323 460q-29 25 -66 39t-84 14q-60 0 -102.5 -24t-69.5 -66t-39 -98t-12 -120z" />
    <glyph glyph-name="Ugrave" unicode="&#xd9;" horiz-adv-x="762" 
d="M659 239q0 -64 -19 -110.5t-53.5 -77t-83.5 -45.5t-109 -15q-142 0 -216.5 56.5t-74.5 174.5v422h-91v56h284v-56h-81v-401q0 -52 13 -87.5t37.5 -57t60.5 -31t82 -9.5q88 0 137.5 44t49.5 144v398h-81v56h236v-56h-91v-405v0zM448 793l-13 -24l-256 72v40l123 33z" />
    <glyph glyph-name="Uacute" unicode="&#xda;" horiz-adv-x="762" 
d="M659 239q0 -64 -19 -110.5t-53.5 -77t-83.5 -45.5t-109 -15q-142 0 -216.5 56.5t-74.5 174.5v422h-91v56h284v-56h-81v-401q0 -52 13 -87.5t37.5 -57t60.5 -31t82 -9.5q88 0 137.5 44t49.5 144v398h-81v56h236v-56h-91v-405v0zM515 914l123 -33v-40l-256 -72l-13 24z" />
    <glyph glyph-name="Ucircumflex" unicode="&#xdb;" horiz-adv-x="762" 
d="M659 239q0 -64 -19 -110.5t-53.5 -77t-83.5 -45.5t-109 -15q-142 0 -216.5 56.5t-74.5 174.5v422h-91v56h284v-56h-81v-401q0 -52 13 -87.5t37.5 -57t60.5 -31t82 -9.5q88 0 137.5 44t49.5 144v398h-81v56h236v-56h-91v-405v0zM262 761l-16 20l142 133h31l141 -130
l-18 -22l-142 56z" />
    <glyph glyph-name="Udieresis" unicode="&#xdc;" horiz-adv-x="762" 
d="M659 239q0 -64 -19 -110.5t-53.5 -77t-83.5 -45.5t-109 -15q-142 0 -216.5 56.5t-74.5 174.5v422h-91v56h284v-56h-81v-401q0 -52 13 -87.5t37.5 -57t60.5 -31t82 -9.5q88 0 137.5 44t49.5 144v398h-81v56h236v-56h-91v-405v0zM213 796q0 29 18.5 43.5t46.5 14.5
q29 0 48 -14.5t19 -43.5q0 -26 -19 -40t-48 -14q-28 0 -46.5 14t-18.5 40zM465 796q0 29 19 43.5t46 14.5q29 0 48 -14.5t19 -43.5q0 -26 -19 -40t-48 -14q-27 0 -46 14t-19 40z" />
    <glyph glyph-name="Yacute" unicode="&#xdd;" horiz-adv-x="727" 
d="M478 700h249v-56h-85l-213 -347v-241h91v-56h-294v56h91v240l-226 348h-91v56h302v-56h-84l181 -291l171 291h-92v56zM504 914l123 -33v-40l-256 -72l-13 24z" />
    <glyph glyph-name="Thorn" unicode="&#xde;" horiz-adv-x="666" 
d="M32 644v56h292v-56h-89v-47q25 2 50.5 3t50.5 1q55 0 107.5 -10.5t93.5 -34.5t66 -64.5t25 -100.5q0 -57 -26 -97.5t-68.5 -67t-98 -39t-114.5 -12.5h-18t-25 0.5l-25 1t-18 1.5v-122h109v-56h-312v56h91v588h-91zM311 545q-27 0 -44.5 -1.5t-31.5 -4.5v-303
q5 -2 15.5 -2.5t22.5 -1.5t23 -1h17q39 0 73.5 9t60.5 28.5t41 49.5t15 73q0 78 -51.5 116t-140.5 38z" />
    <glyph glyph-name="germandbls" unicode="&#xdf;" horiz-adv-x="719" 
d="M487 589q-1 47 -34 77t-80 30q-34 0 -61.5 -6.5t-47 -25.5t-30 -52.5t-10.5 -88.5v-523h-179v50h74v425h-84v50h84v16q0 60 25 100t62 64t80 34.5t80 10.5q61 0 103.5 -14.5t69 -38.5t38.5 -56t13 -68q-84 -11 -132 -37.5t-48 -74.5q0 -32 20 -56t49.5 -44.5t64.5 -40.5
t64.5 -44.5t49.5 -56t20 -74.5q0 -74 -55 -114.5t-155 -40.5q-24 0 -48 4.5t-45.5 11.5t-39 16.5t-28.5 18.5v92h72v-58q12 -11 37 -21t49 -10q54 0 82 21t28 64q0 28 -20 50t-49.5 42t-64.5 39.5t-64.5 43t-49.5 53.5t-20 70q0 49 41 92t139 70z" />
    <glyph glyph-name="agrave" unicode="&#xe0;" horiz-adv-x="569" 
d="M464 139q0 -23 1 -46.5t3 -42.5h66v-50h-157l-10 95h-5q-5 -20 -18.5 -39t-34 -34t-48.5 -24t-62 -9t-62.5 10t-49.5 28t-32.5 43.5t-11.5 57.5q0 49 20.5 81t60.5 50.5t100 26.5t140 9q2 16 2 30.5v28.5q0 62 -21 94.5t-75 32.5q-20 0 -43 -2t-42 -12v-92h-90v111
q36 19 85 34t115 15q57 0 91.5 -14.5t53 -38t24 -53t5.5 -58.5q0 -63 -2.5 -120.5t-2.5 -111.5zM245 56q24 0 43 7.5t33.5 19t25 25.5t17.5 27v119q-65 0 -105.5 -8.5t-63.5 -22.5t-31.5 -33.5t-8.5 -41.5q0 -45 24 -68.5t66 -23.5zM364 615l-28 -23l-196 117v41h126z" />
    <glyph glyph-name="aacute" unicode="&#xe1;" horiz-adv-x="569" 
d="M464 139q0 -23 1 -46.5t3 -42.5h66v-50h-157l-10 95h-5q-5 -20 -18.5 -39t-34 -34t-48.5 -24t-62 -9t-62.5 10t-49.5 28t-32.5 43.5t-11.5 57.5q0 49 20.5 81t60.5 50.5t100 26.5t140 9q2 16 2 30.5v28.5q0 62 -21 94.5t-75 32.5q-20 0 -43 -2t-42 -12v-92h-90v111
q36 19 85 34t115 15q57 0 91.5 -14.5t53 -38t24 -53t5.5 -58.5q0 -63 -2.5 -120.5t-2.5 -111.5zM245 56q24 0 43 7.5t33.5 19t25 25.5t17.5 27v119q-65 0 -105.5 -8.5t-63.5 -22.5t-31.5 -33.5t-8.5 -41.5q0 -45 24 -68.5t66 -23.5zM322 750h126v-41l-196 -117l-28 23z" />
    <glyph glyph-name="acircumflex" unicode="&#xe2;" horiz-adv-x="569" 
d="M464 139q0 -23 1 -46.5t3 -42.5h66v-50h-157l-10 95h-5q-5 -20 -18.5 -39t-34 -34t-48.5 -24t-62 -9t-62.5 10t-49.5 28t-32.5 43.5t-11.5 57.5q0 49 20.5 81t60.5 50.5t100 26.5t140 9q2 16 2 30.5v28.5q0 62 -21 94.5t-75 32.5q-20 0 -43 -2t-42 -12v-92h-90v111
q36 19 85 34t115 15q57 0 91.5 -14.5t53 -38t24 -53t5.5 -58.5q0 -63 -2.5 -120.5t-2.5 -111.5zM245 56q24 0 43 7.5t33.5 19t25 25.5t17.5 27v119q-65 0 -105.5 -8.5t-63.5 -22.5t-31.5 -33.5t-8.5 -41.5q0 -45 24 -68.5t66 -23.5zM178 619l-32 17l125 196h29l126 -195
l-32 -18l-113 112z" />
    <glyph glyph-name="atilde" unicode="&#xe3;" horiz-adv-x="569" 
d="M464 139q0 -23 1 -46.5t3 -42.5h66v-50h-157l-10 95h-5q-5 -20 -18.5 -39t-34 -34t-48.5 -24t-62 -9t-62.5 10t-49.5 28t-32.5 43.5t-11.5 57.5q0 49 20.5 81t60.5 50.5t100 26.5t140 9q2 16 2 30.5v28.5q0 62 -21 94.5t-75 32.5q-20 0 -43 -2t-42 -12v-92h-90v111
q36 19 85 34t115 15q57 0 91.5 -14.5t53 -38t24 -53t5.5 -58.5q0 -63 -2.5 -120.5t-2.5 -111.5zM245 56q24 0 43 7.5t33.5 19t25 25.5t17.5 27v119q-65 0 -105.5 -8.5t-63.5 -22.5t-31.5 -33.5t-8.5 -41.5q0 -45 24 -68.5t66 -23.5zM446 705q-36 -34 -66.5 -46.5
t-55.5 -12.5q-20 0 -38 5.5t-35 12t-33 12t-33 5.5q-14 0 -29.5 -5.5t-33.5 -20.5l-22 32q42 36 74.5 49t58.5 13q20 0 37.5 -5.5t33.5 -11.5l32 -11.5t33 -5.5q14 0 29 4.5t32 16.5z" />
    <glyph glyph-name="adieresis" unicode="&#xe4;" horiz-adv-x="569" 
d="M464 139q0 -23 1 -46.5t3 -42.5h66v-50h-157l-10 95h-5q-5 -20 -18.5 -39t-34 -34t-48.5 -24t-62 -9t-62.5 10t-49.5 28t-32.5 43.5t-11.5 57.5q0 49 20.5 81t60.5 50.5t100 26.5t140 9q2 16 2 30.5v28.5q0 62 -21 94.5t-75 32.5q-20 0 -43 -2t-42 -12v-92h-90v111
q36 19 85 34t115 15q57 0 91.5 -14.5t53 -38t24 -53t5.5 -58.5q0 -63 -2.5 -120.5t-2.5 -111.5zM245 56q24 0 43 7.5t33.5 19t25 25.5t17.5 27v119q-65 0 -105.5 -8.5t-63.5 -22.5t-31.5 -33.5t-8.5 -41.5q0 -45 24 -68.5t66 -23.5zM85 688q0 29 17.5 46.5t46.5 17.5
t46.5 -17.5t17.5 -46.5q0 -27 -17.5 -44.5t-46.5 -17.5t-46.5 17.5t-17.5 44.5zM331 688q0 29 18.5 46.5t46.5 17.5q29 0 46 -17.5t17 -46.5q0 -27 -17 -44.5t-46 -17.5q-28 0 -46.5 17.5t-18.5 44.5z" />
    <glyph glyph-name="aring" unicode="&#xe5;" horiz-adv-x="569" 
d="M464 139q0 -23 1 -46.5t3 -42.5h66v-50h-157l-10 95h-5q-5 -20 -18.5 -39t-34 -34t-48.5 -24t-62 -9t-62.5 10t-49.5 28t-32.5 43.5t-11.5 57.5q0 49 20.5 81t60.5 50.5t100 26.5t140 9q2 16 2 30.5v28.5q0 62 -21 94.5t-75 32.5q-20 0 -43 -2t-42 -12v-92h-90v111
q36 19 85 34t115 15q57 0 91.5 -14.5t53 -38t24 -53t5.5 -58.5q0 -63 -2.5 -120.5t-2.5 -111.5zM245 56q24 0 43 7.5t33.5 19t25 25.5t17.5 27v119q-65 0 -105.5 -8.5t-63.5 -22.5t-31.5 -33.5t-8.5 -41.5q0 -45 24 -68.5t66 -23.5zM162 717q0 43 32 72.5t81 29.5
q45 0 75.5 -26.5t30.5 -72.5q0 -21 -9 -39t-23.5 -31t-34 -20.5t-40.5 -7.5q-51 0 -81.5 25.5t-30.5 69.5zM222 719q0 -26 15 -39.5t33 -13.5q22 0 36.5 12t14.5 38q0 29 -14 44t-36 15q-26 0 -37.5 -15t-11.5 -41z" />
    <glyph glyph-name="ae" unicode="&#xe6;" horiz-adv-x="875" 
d="M245 57q24 0 43 7.5t33.5 18.5t24.5 25t17 27v119q-64 0 -104.5 -8.5t-63.5 -22.5t-31.5 -33.5t-8.5 -41.5q0 -45 24 -68t66 -23zM391 105l-21 -32.5t-34 -38t-51.5 -31.5t-72.5 -13q-78 0 -123.5 37.5t-45.5 100.5q0 49 20 81t60.5 50.5t100 26.5t139.5 9q3 31 3 59
q0 62 -21 94.5t-75 32.5q-20 0 -43 -2t-42 -12v-92h-90v111q36 19 85 34t115 15q60 0 94.5 -15.5t52.5 -40.5q28 30 73 43t94 13q40 0 78.5 -10t68.5 -33t48.5 -61t18.5 -94q0 -17 -2 -36t-6 -40h-347q0 -44 11.5 -80t34.5 -62t58 -40.5t83 -14.5q39 0 72.5 13t53.5 30
l27 -38q-26 -37 -73.5 -58.5t-110.5 -21.5q-85 0 -143 30.5t-90 85.5zM605 488q-31 0 -54.5 -9t-40.5 -30t-27 -55.5t-13 -85.5h241q1 9 1.5 18.5t0.5 17.5q0 66 -26.5 105t-81.5 39z" />
    <glyph glyph-name="ccedilla" unicode="&#xe7;" horiz-adv-x="523" 
d="M482 64q-21 -29 -66 -52t-105 -23h-4l-23 -50q63 -2 92 -17t29 -49q0 -32 -17.5 -51t-44.5 -29.5t-60 -13.5t-64 -3v32q21 1 38.5 3t29.5 7t18.5 14t6.5 25q0 26 -23 32t-69 10l38 93q-108 14 -160.5 86t-52.5 184q0 133 70.5 203t191.5 70q55 0 91 -7t66 -22v-130h-90
v96q-15 9 -60 9q-38 0 -67 -11t-49 -36t-30 -67t-10 -103q0 -40 11 -76.5t33 -64t55.5 -43.5t78.5 -16q24 0 42.5 3.5t32.5 9t25 12.5t21 15z" />
    <glyph glyph-name="egrave" unicode="&#xe8;" horiz-adv-x="566" 
d="M499 69q-26 -37 -73.5 -58.5t-110.5 -21.5q-66 0 -116.5 19.5t-84.5 55t-51.5 86t-17.5 112.5q0 134 67 203.5t188 69.5q40 0 78.5 -10t68.5 -33t48.5 -61t18.5 -94q0 -17 -2 -36t-6 -40h-348q0 -44 11.5 -80t35 -62t58.5 -40.5t83 -14.5q39 0 72.5 13t53.5 30zM296 488
q-31 0 -54.5 -9t-40.5 -30t-27 -55.5t-13 -85.5h241q1 9 1.5 18.5t0.5 17.5q0 66 -26.5 105t-81.5 39zM373 615l-28 -23l-196 117v41h126z" />
    <glyph glyph-name="eacute" unicode="&#xe9;" horiz-adv-x="566" 
d="M499 69q-26 -37 -73.5 -58.5t-110.5 -21.5q-66 0 -116.5 19.5t-84.5 55t-51.5 86t-17.5 112.5q0 134 67 203.5t188 69.5q40 0 78.5 -10t68.5 -33t48.5 -61t18.5 -94q0 -17 -2 -36t-6 -40h-348q0 -44 11.5 -80t35 -62t58.5 -40.5t83 -14.5q39 0 72.5 13t53.5 30zM296 488
q-31 0 -54.5 -9t-40.5 -30t-27 -55.5t-13 -85.5h241q1 9 1.5 18.5t0.5 17.5q0 66 -26.5 105t-81.5 39zM339 750h126v-41l-196 -117l-28 23z" />
    <glyph glyph-name="ecircumflex" unicode="&#xea;" horiz-adv-x="566" 
d="M499 69q-26 -37 -73.5 -58.5t-110.5 -21.5q-66 0 -116.5 19.5t-84.5 55t-51.5 86t-17.5 112.5q0 134 67 203.5t188 69.5q40 0 78.5 -10t68.5 -33t48.5 -61t18.5 -94q0 -17 -2 -36t-6 -40h-348q0 -44 11.5 -80t35 -62t58.5 -40.5t83 -14.5q39 0 72.5 13t53.5 30zM296 488
q-31 0 -54.5 -9t-40.5 -30t-27 -55.5t-13 -85.5h241q1 9 1.5 18.5t0.5 17.5q0 66 -26.5 105t-81.5 39zM187 619l-32 17l125 196h29l126 -195l-32 -18l-113 112z" />
    <glyph glyph-name="edieresis" unicode="&#xeb;" horiz-adv-x="566" 
d="M499 69q-26 -37 -73.5 -58.5t-110.5 -21.5q-66 0 -116.5 19.5t-84.5 55t-51.5 86t-17.5 112.5q0 134 67 203.5t188 69.5q40 0 78.5 -10t68.5 -33t48.5 -61t18.5 -94q0 -17 -2 -36t-6 -40h-348q0 -44 11.5 -80t35 -62t58.5 -40.5t83 -14.5q39 0 72.5 13t53.5 30zM296 488
q-31 0 -54.5 -9t-40.5 -30t-27 -55.5t-13 -85.5h241q1 9 1.5 18.5t0.5 17.5q0 66 -26.5 105t-81.5 39zM103 688q0 29 17.5 46.5t46.5 17.5t46.5 -17.5t17.5 -46.5q0 -27 -17.5 -44.5t-46.5 -17.5t-46.5 17.5t-17.5 44.5zM349 688q0 29 18.5 46.5t46.5 17.5q29 0 46 -17.5
t17 -46.5q0 -27 -17 -44.5t-46 -17.5q-28 0 -46.5 17.5t-18.5 44.5z" />
    <glyph glyph-name="igrave" unicode="&#xec;" horiz-adv-x="339" 
d="M298 0h-253v50h74v425h-74v50h179v-475h74v-50zM235 615l-28 -23l-196 117v41h126z" />
    <glyph glyph-name="iacute" unicode="&#xed;" horiz-adv-x="339" 
d="M298 0h-253v50h74v425h-74v50h179v-475h74v-50zM201 750h126v-41l-196 -117l-28 23z" />
    <glyph glyph-name="icircumflex" unicode="&#xee;" horiz-adv-x="339" 
d="M298 0h-253v50h74v425h-74v50h179v-475h74v-50zM62 619l-32 17l125 196h29l126 -195l-32 -18l-113 112z" />
    <glyph glyph-name="idieresis" unicode="&#xef;" horiz-adv-x="339" 
d="M298 0h-253v50h74v425h-74v50h179v-475h74v-50zM-17 688q0 29 17.5 46.5t46.5 17.5t46.5 -17.5t17.5 -46.5q0 -27 -17.5 -44.5t-46.5 -17.5t-46.5 17.5t-17.5 44.5zM229 688q0 29 18.5 46.5t46.5 17.5q29 0 46 -17.5t17 -46.5q0 -27 -17 -44.5t-46 -17.5
q-28 0 -46.5 17.5t-18.5 44.5z" />
    <glyph glyph-name="eth" unicode="&#xf0;" horiz-adv-x="603" 
d="M233 600l89 53q-45 39 -124 65l22 44q45 -8 87.5 -29.5t71.5 -42.5l101 64l28 -41l-91 -58q28 -29 54 -65.5t45.5 -81t31.5 -96t12 -109.5q0 -68 -16.5 -126t-49.5 -100t-82.5 -66t-116.5 -24q-62 0 -111 20t-83 55t-52.5 84t-18.5 108q0 67 21.5 116t56 81.5t78 48
t88.5 15.5q60 0 99 -11t64 -26q-14 39 -32 73.5t-50 63.5l-92 -56zM143 254q0 -43 10.5 -82t30.5 -69t50 -48t68 -18q73 0 113 67.5t40 183.5q0 55 -4.5 88t-8.5 47q-19 14 -56 25t-88 11q-34 0 -62.5 -12t-49 -37t-32 -64t-11.5 -92z" />
    <glyph glyph-name="ntilde" unicode="&#xf1;" horiz-adv-x="670" 
d="M651 0h-245v50h66v251q0 79 -24 123t-88 44q-28 0 -51.5 -9t-42 -24t-32 -35t-20.5 -42v-308h66v-50h-245v50h74v425h-74v50h179v-104h1q23 48 67.5 81t107.5 33q45 0 80 -9.5t58.5 -34.5t36 -67t12.5 -107v-267h74v-50zM509 705q-36 -34 -66.5 -46.5t-55.5 -12.5
q-20 0 -38 5.5t-35 12t-33 12t-33 5.5q-14 0 -29.5 -5.5t-33.5 -20.5l-22 32q42 36 74.5 49t58.5 13q20 0 37.5 -5.5t33.5 -11.5l32 -11.5t33 -5.5q14 0 29 4.5t32 16.5z" />
    <glyph glyph-name="ograve" unicode="&#xf2;" horiz-adv-x="622" 
d="M45 262q0 66 19 117t53.5 85.5t84 52.5t109.5 18q70 0 120.5 -19.5t82.5 -55t47.5 -86t15.5 -112.5q0 -66 -18.5 -116.5t-53 -85t-84 -52.5t-110.5 -18q-68 0 -118 19.5t-83 55t-49 85.5t-16 112zM158 262q0 -48 9 -89t29.5 -71t53 -47.5t79.5 -17.5q59 0 97 54t38 171
q0 48 -9 89.5t-28.5 72t-50 47.5t-74.5 17q-66 0 -105 -54t-39 -172zM391 615l-28 -23l-196 117v41h126z" />
    <glyph glyph-name="oacute" unicode="&#xf3;" horiz-adv-x="622" 
d="M45 262q0 66 19 117t53.5 85.5t84 52.5t109.5 18q70 0 120.5 -19.5t82.5 -55t47.5 -86t15.5 -112.5q0 -66 -18.5 -116.5t-53 -85t-84 -52.5t-110.5 -18q-68 0 -118 19.5t-83 55t-49 85.5t-16 112zM158 262q0 -48 9 -89t29.5 -71t53 -47.5t79.5 -17.5q59 0 97 54t38 171
q0 48 -9 89.5t-28.5 72t-50 47.5t-74.5 17q-66 0 -105 -54t-39 -172zM349 750h126v-41l-196 -117l-28 23z" />
    <glyph glyph-name="ocircumflex" unicode="&#xf4;" horiz-adv-x="622" 
d="M45 262q0 66 19 117t53.5 85.5t84 52.5t109.5 18q70 0 120.5 -19.5t82.5 -55t47.5 -86t15.5 -112.5q0 -66 -18.5 -116.5t-53 -85t-84 -52.5t-110.5 -18q-68 0 -118 19.5t-83 55t-49 85.5t-16 112zM158 262q0 -48 9 -89t29.5 -71t53 -47.5t79.5 -17.5q59 0 97 54t38 171
q0 48 -9 89.5t-28.5 72t-50 47.5t-74.5 17q-66 0 -105 -54t-39 -172zM203 619l-32 17l125 196h29l126 -195l-32 -18l-113 112z" />
    <glyph glyph-name="otilde" unicode="&#xf5;" horiz-adv-x="622" 
d="M45 262q0 66 19 117t53.5 85.5t84 52.5t109.5 18q70 0 120.5 -19.5t82.5 -55t47.5 -86t15.5 -112.5q0 -66 -18.5 -116.5t-53 -85t-84 -52.5t-110.5 -18q-68 0 -118 19.5t-83 55t-49 85.5t-16 112zM158 262q0 -48 9 -89t29.5 -71t53 -47.5t79.5 -17.5q59 0 97 54t38 171
q0 48 -9 89.5t-28.5 72t-50 47.5t-74.5 17q-66 0 -105 -54t-39 -172zM484 705q-36 -34 -66.5 -46.5t-55.5 -12.5q-20 0 -38 5.5t-35 12t-33 12t-33 5.5q-14 0 -29.5 -5.5t-33.5 -20.5l-22 32q42 36 74.5 49t58.5 13q20 0 37.5 -5.5t33.5 -11.5l32 -11.5t33 -5.5q14 0 29 4.5
t32 16.5z" />
    <glyph glyph-name="odieresis" unicode="&#xf6;" horiz-adv-x="622" 
d="M45 262q0 66 19 117t53.5 85.5t84 52.5t109.5 18q70 0 120.5 -19.5t82.5 -55t47.5 -86t15.5 -112.5q0 -66 -18.5 -116.5t-53 -85t-84 -52.5t-110.5 -18q-68 0 -118 19.5t-83 55t-49 85.5t-16 112zM158 262q0 -48 9 -89t29.5 -71t53 -47.5t79.5 -17.5q59 0 97 54t38 171
q0 48 -9 89.5t-28.5 72t-50 47.5t-74.5 17q-66 0 -105 -54t-39 -172zM124 688q0 29 17.5 46.5t46.5 17.5t46.5 -17.5t17.5 -46.5q0 -27 -17.5 -44.5t-46.5 -17.5t-46.5 17.5t-17.5 44.5zM370 688q0 29 18.5 46.5t46.5 17.5q29 0 46 -17.5t17 -46.5q0 -27 -17 -44.5
t-46 -17.5q-28 0 -46.5 17.5t-18.5 44.5z" />
    <glyph glyph-name="divide" unicode="&#xf7;" 
d="M47 373h505v-54h-505v54zM222 536q0 31 21 49t56 18t57 -18t22 -49q0 -30 -22 -48t-57 -18t-56 18t-21 48zM222 155q0 31 21 49t56 18t57 -18t22 -49q0 -30 -22 -48t-57 -18t-56 18t-21 48z" />
    <glyph glyph-name="oslash" unicode="&#xf8;" horiz-adv-x="622" 
d="M130 43q-43 37 -64 93t-21 126q0 66 19 117t53.5 85.5t84 52.5t109.5 18q43 0 79 -6.5t64 -21.5l51 74l45 -29l-53 -73q42 -38 61 -92.5t19 -124.5q0 -66 -18.5 -116.5t-53 -85t-84 -52.5t-110.5 -18q-40 0 -74.5 6t-62.5 20l-56 -80l-43 28zM158 262q0 -40 6.5 -75
t21.5 -64l224 322q-20 23 -46.5 33t-61.5 10q-66 0 -105 -54t-39 -172zM464 262q0 38 -6 72t-19 62l-223 -320q20 -21 48 -30t66 -9q59 0 96.5 54t37.5 171z" />
    <glyph glyph-name="ugrave" unicode="&#xf9;" horiz-adv-x="647" 
d="M87 208q0 66 3 135t3 132h-74v50h178q-2 -78 -3.5 -149.5t-1.5 -148.5q0 -41 4.5 -72.5t17 -53.5t34.5 -33t56 -11q50 0 84 32t52 86v300h-73v50h178v-475h74v-50h-167l-7 114h-5q-5 -21 -19.5 -43t-36.5 -40t-51 -29.5t-63 -11.5q-45 0 -79 9.5t-57 34.5t-35 67t-12 107
zM403 615l-28 -23l-196 117v41h126z" />
    <glyph glyph-name="uacute" unicode="&#xfa;" horiz-adv-x="647" 
d="M87 208q0 66 3 135t3 132h-74v50h178q-2 -78 -3.5 -149.5t-1.5 -148.5q0 -41 4.5 -72.5t17 -53.5t34.5 -33t56 -11q50 0 84 32t52 86v300h-73v50h178v-475h74v-50h-167l-7 114h-5q-5 -21 -19.5 -43t-36.5 -40t-51 -29.5t-63 -11.5q-45 0 -79 9.5t-57 34.5t-35 67t-12 107
zM358 750h126v-41l-196 -117l-28 23z" />
    <glyph glyph-name="ucircumflex" unicode="&#xfb;" horiz-adv-x="647" 
d="M87 208q0 66 3 135t3 132h-74v50h178q-2 -78 -3.5 -149.5t-1.5 -148.5q0 -41 4.5 -72.5t17 -53.5t34.5 -33t56 -11q50 0 84 32t52 86v300h-73v50h178v-475h74v-50h-167l-7 114h-5q-5 -21 -19.5 -43t-36.5 -40t-51 -29.5t-63 -11.5q-45 0 -79 9.5t-57 34.5t-35 67t-12 107
zM215 619l-32 17l125 196h29l126 -195l-32 -18l-113 112z" />
    <glyph glyph-name="udieresis" unicode="&#xfc;" horiz-adv-x="647" 
d="M87 208q0 66 3 135t3 132h-74v50h178q-2 -78 -3.5 -149.5t-1.5 -148.5q0 -41 4.5 -72.5t17 -53.5t34.5 -33t56 -11q50 0 84 32t52 86v300h-73v50h178v-475h74v-50h-167l-7 114h-5q-5 -21 -19.5 -43t-36.5 -40t-51 -29.5t-63 -11.5q-45 0 -79 9.5t-57 34.5t-35 67t-12 107
zM134 688q0 29 17.5 46.5t46.5 17.5t46.5 -17.5t17.5 -46.5q0 -27 -17.5 -44.5t-46.5 -17.5t-46.5 17.5t-17.5 44.5zM380 688q0 29 18.5 46.5t46.5 17.5q29 0 46 -17.5t17 -46.5q0 -27 -17 -44.5t-46 -17.5q-28 0 -46.5 17.5t-18.5 44.5z" />
    <glyph glyph-name="yacute" unicode="&#xfd;" horiz-adv-x="568" 
d="M47 475h-59v50h258v-50h-84l136 -332l20 -76h5l19 77l107 331h-61v50h192v-50h-64l-164 -475q-14 -41 -30.5 -75.5t-32 -61t-30 -43t-24.5 -20.5h-101v90h102q7 8 13 16t12 20t13 29.5t16 44.5h-37zM332 750h126v-41l-196 -117l-28 23z" />
    <glyph glyph-name="thorn" unicode="&#xfe;" horiz-adv-x="636" 
d="M287 -200h-253v50h74v850h-74v50h179v-330h1q22 53 62.5 84t106.5 31q99 0 153.5 -61t54.5 -200q0 -66 -18.5 -119t-53 -90t-83 -56.5t-108.5 -19.5q-20 0 -35.5 1t-28.5 3t-25.5 6t-25.5 9v-158h74v-50zM344 468q-54 0 -85.5 -30.5t-45.5 -86.5v-293q20 -13 44.5 -17.5
t65.5 -4.5q37 0 66 17.5t49 49t30.5 75t10.5 96.5q0 43 -7 78.5t-22.5 61t-41.5 40t-64 14.5z" />
    <glyph glyph-name="ydieresis" unicode="&#xff;" horiz-adv-x="568" 
d="M47 475h-59v50h258v-50h-84l136 -332l20 -76h5l19 77l107 331h-61v50h192v-50h-64l-164 -475q-14 -41 -30.5 -75.5t-32 -61t-30 -43t-24.5 -20.5h-101v90h102q7 8 13 16t12 20t13 29.5t16 44.5h-37zM108 688q0 29 17.5 46.5t46.5 17.5t46.5 -17.5t17.5 -46.5
q0 -27 -17.5 -44.5t-46.5 -17.5t-46.5 17.5t-17.5 44.5zM354 688q0 29 18.5 46.5t46.5 17.5q29 0 46 -17.5t17 -46.5q0 -27 -17 -44.5t-46 -17.5q-28 0 -46.5 17.5t-18.5 44.5z" />
    <glyph glyph-name="Amacron" unicode="&#x100;" horiz-adv-x="755" 
d="M245 0h-245v56h78l259 644h106l237 -644h75v-56h-286v56h89l-65 176h-266l-68 -176h86v-56zM250 288h226l-82 231l-25 106h-4l-29 -108zM214 787v64h340v-64h-340z" />
    <glyph glyph-name="amacron" unicode="&#x101;" horiz-adv-x="569" 
d="M464 139q0 -23 1 -46.5t3 -42.5h66v-50h-157l-10 95h-5q-5 -20 -18.5 -39t-34 -34t-48.5 -24t-62 -9t-62.5 10t-49.5 28t-32.5 43.5t-11.5 57.5q0 49 20.5 81t60.5 50.5t100 26.5t140 9q2 16 2 30.5v28.5q0 62 -21 94.5t-75 32.5q-20 0 -43 -2t-42 -12v-92h-90v111
q36 19 85 34t115 15q57 0 91.5 -14.5t53 -38t24 -53t5.5 -58.5q0 -63 -2.5 -120.5t-2.5 -111.5zM245 56q24 0 43 7.5t33.5 19t25 25.5t17.5 27v119q-65 0 -105.5 -8.5t-63.5 -22.5t-31.5 -33.5t-8.5 -41.5q0 -45 24 -68.5t66 -23.5zM138 668v55h288v-55h-288z" />
    <glyph glyph-name="Abreve" unicode="&#x102;" horiz-adv-x="755" 
d="M245 0h-245v56h78l259 644h106l237 -644h75v-56h-286v56h89l-65 176h-266l-68 -176h86v-56zM250 288h226l-82 231l-25 106h-4l-29 -108zM557 890q-9 -26 -25.5 -50t-38.5 -42t-48.5 -28.5t-54.5 -10.5q-31 0 -59.5 10t-51.5 28t-40 42.5t-24 52.5l47 15q8 -12 23 -22.5
t33 -18t37 -11.5t36 -4q36 0 71.5 11.5t58.5 41.5z" />
    <glyph glyph-name="abreve" unicode="&#x103;" horiz-adv-x="569" 
d="M464 139q0 -23 1 -46.5t3 -42.5h66v-50h-157l-10 95h-5q-5 -20 -18.5 -39t-34 -34t-48.5 -24t-62 -9t-62.5 10t-49.5 28t-32.5 43.5t-11.5 57.5q0 49 20.5 81t60.5 50.5t100 26.5t140 9q2 16 2 30.5v28.5q0 62 -21 94.5t-75 32.5q-20 0 -43 -2t-42 -12v-92h-90v111
q36 19 85 34t115 15q57 0 91.5 -14.5t53 -38t24 -53t5.5 -58.5q0 -63 -2.5 -120.5t-2.5 -111.5zM245 56q24 0 43 7.5t33.5 19t25 25.5t17.5 27v119q-65 0 -105.5 -8.5t-63.5 -22.5t-31.5 -33.5t-8.5 -41.5q0 -45 24 -68.5t66 -23.5zM438 756q-10 -24 -24.5 -47t-33 -41
t-42 -29.5t-51.5 -11.5q-60 0 -98 37t-58 94l32 14q9 -15 24 -27.5t32.5 -21.5t36 -14.5t35.5 -5.5q36 0 67 16.5t53 48.5z" />
    <glyph glyph-name="Aogonek" unicode="&#x104;" horiz-adv-x="755" 
d="M245 0h-245v56h78l259 644h106l237 -644h75v-56h-56q-46 -19 -72.5 -43.5t-26.5 -66.5q0 -27 20 -37.5t53 -10.5q34 0 63 6v-31q-16 -11 -41 -19.5t-62 -8.5q-26 0 -49.5 5t-41 15t-28 25.5t-10.5 37.5q0 46 34.5 77.5t85.5 50.5h-155v56h89l-65 176h-266l-68 -176h86
v-56zM250 288h226l-82 231l-25 106h-4l-29 -108z" />
    <glyph glyph-name="aogonek" unicode="&#x105;" horiz-adv-x="569" 
d="M464 139q0 -23 1 -46.5t3 -42.5h66v-50h-12q-49 -9 -82 -31.5t-33 -68.5q0 -20 14.5 -36.5t49.5 -16.5q30 0 59 10v-36q-16 -9 -40.5 -15t-44.5 -6q-66 0 -100 21.5t-34 61.5q0 27 14.5 47t35.5 34t45.5 22.5t44.5 13.5h-74l-10 95h-5q-5 -20 -18.5 -39t-34 -34
t-48.5 -24t-62 -9t-62.5 10t-49.5 28t-32.5 43.5t-11.5 57.5q0 49 20.5 81t60.5 50.5t100 26.5t140 9q3 31 3 59q0 62 -21.5 94.5t-75.5 32.5q-20 0 -43 -2t-42 -12v-92h-90v111q36 19 85 34t115 15q57 0 91.5 -14.5t53 -38t24 -53t5.5 -58.5q0 -63 -2.5 -120.5t-2.5 -111.5
zM245 56q24 0 43 7.5t33.5 19t25 25.5t17.5 27v119q-64 0 -104.5 -8.5t-64 -22.5t-32 -33.5t-8.5 -41.5q0 -45 24 -68.5t66 -23.5z" />
    <glyph glyph-name="Cacute" unicode="&#x106;" horiz-adv-x="698" 
d="M569 184h64v-157q-31 -17 -82 -28t-101 -11q-92 0 -165 21t-123.5 65.5t-77.5 112.5t-27 163q0 98 30 166.5t81 112t118 63.5t141 20q36 0 65 -2.5t52.5 -7.5t43.5 -12t39 -15v-171h-64v105l-14 20q-11 5 -34.5 12t-75.5 7q-54 0 -101 -17t-81.5 -53t-54.5 -92.5
t-20 -135.5q0 -143 72.5 -220.5t203.5 -77.5q36 0 60.5 5.5t36.5 14.5l14 19v93zM482 914l123 -33v-40l-256 -72l-13 24z" />
    <glyph glyph-name="cacute" unicode="&#x107;" horiz-adv-x="523" 
d="M482 67q-21 -29 -66.5 -53.5t-107.5 -24.5q-66 0 -115.5 19.5t-82.5 55t-49 86t-16 112.5q0 133 70.5 203t191.5 70q55 0 91 -7t66 -22v-130h-90v96q-15 9 -60 9q-38 0 -67 -11t-49 -36t-30 -67t-10 -103q0 -40 11 -76.5t33 -64t55.5 -43.5t78.5 -16q24 0 42.5 5
t32.5 10.5t25 12.5t21 15zM332 750h126v-41l-196 -117l-28 23z" />
    <glyph glyph-name="Ccircumflex" unicode="&#x108;" horiz-adv-x="698" 
d="M569 184h64v-157q-31 -17 -82 -28t-101 -11q-92 0 -165 21t-123.5 65.5t-77.5 112.5t-27 163q0 98 30 166.5t81 112t118 63.5t141 20q36 0 65 -2.5t52.5 -7.5t43.5 -12t39 -15v-171h-64v105l-14 20q-11 5 -34.5 12t-75.5 7q-54 0 -101 -17t-81.5 -53t-54.5 -92.5
t-20 -135.5q0 -143 72.5 -220.5t203.5 -77.5q36 0 60.5 5.5t36.5 14.5l14 19v93zM278 761l-16 20l142 133h31l141 -130l-18 -22l-142 56z" />
    <glyph glyph-name="ccircumflex" unicode="&#x109;" horiz-adv-x="523" 
d="M482 67q-21 -29 -66.5 -53.5t-107.5 -24.5q-66 0 -115.5 19.5t-82.5 55t-49 86t-16 112.5q0 133 70.5 203t191.5 70q55 0 91 -7t66 -22v-130h-90v96q-15 9 -60 9q-38 0 -67 -11t-49 -36t-30 -67t-10 -103q0 -40 11 -76.5t33 -64t55.5 -43.5t78.5 -16q24 0 42.5 5
t32.5 10.5t25 12.5t21 15zM187 619l-32 17l125 196h29l126 -195l-32 -18l-113 112z" />
    <glyph glyph-name="Ccaron" unicode="&#x10c;" horiz-adv-x="698" 
d="M569 184h64v-157q-31 -17 -82 -28t-101 -11q-92 0 -165 21t-123.5 65.5t-77.5 112.5t-27 163q0 98 30 166.5t81 112t118 63.5t141 20q36 0 65 -2.5t52.5 -7.5t43.5 -12t39 -15v-171h-64v105l-14 20q-11 5 -34.5 12t-75.5 7q-54 0 -101 -17t-81.5 -53t-54.5 -92.5
t-20 -135.5q0 -143 72.5 -220.5t203.5 -77.5q36 0 60.5 5.5t36.5 14.5l14 19v93zM562 919l28 -18l-142 -142h-31l-141 139l28 21l133 -55z" />
    <glyph glyph-name="ccaron" unicode="&#x10d;" horiz-adv-x="523" 
d="M482 67q-21 -29 -66.5 -53.5t-107.5 -24.5q-66 0 -115.5 19.5t-82.5 55t-49 86t-16 112.5q0 133 70.5 203t191.5 70q55 0 91 -7t66 -22v-130h-90v96q-15 9 -60 9q-38 0 -67 -11t-49 -36t-30 -67t-10 -103q0 -40 11 -76.5t33 -64t55.5 -43.5t78.5 -16q24 0 42.5 5
t32.5 10.5t25 12.5t21 15zM405 806l32 -17l-139 -195h-29l-137 194l40 18l119 -110z" />
    <glyph glyph-name="Dcaron" unicode="&#x10e;" horiz-adv-x="782" 
d="M32 0v56h91v588h-91v56h123q19 0 44.5 1t52.5 2.5t51.5 3t41.5 1.5q93 0 164 -23.5t119 -68t72.5 -109.5t24.5 -148q0 -80 -23 -147t-72 -116.5t-125.5 -77t-182.5 -27.5q-16 0 -37 1.5t-44.5 3l-47.5 3t-45 1.5h-116zM330 652q-28 0 -54 -1t-41 -4v-596q6 -1 20 -1.5
t30.5 -1l31.5 -1t21 -0.5q75 0 125 25.5t80.5 68t43.5 99t13 119.5q0 49 -12.5 101t-43.5 95t-83 70t-131 27zM467 919l28 -18l-142 -142h-31l-141 139l28 21l133 -55z" />
    <glyph glyph-name="dcaron" unicode="&#x10f;" horiz-adv-x="625" 
d="M418 104q-6 -23 -19.5 -44t-33 -37t-44.5 -25t-54 -9q-111 0 -166.5 65.5t-55.5 204.5q0 67 18.5 118.5t52.5 86.5t82 53t107 18q21 0 36 -1t28 -3t25 -5.5l26 -7.5v182h-85v50h190v-700h68v-50h-162l-9 104h-4zM290 56q55 0 86 31t44 86v295q-20 10 -44.5 15t-64.5 5
q-37 0 -65.5 -16t-48 -46t-29.5 -72.5t-10 -94.5q0 -42 7.5 -79t23.5 -64.5t41 -43.5t60 -16zM571 569q24 48 36 103.5t12 98.5l15 18q8 0 21 -2t27 -5.5t26.5 -8t19.5 -10.5q-5 -29 -19.5 -59t-33.5 -57.5t-40.5 -50.5t-39.5 -38z" />
    <glyph glyph-name="Dcroat" unicode="&#x110;" horiz-adv-x="782" 
d="M32 0v56h91v275h-100v54h100v259h-91v56h123q19 0 44.5 1t52.5 2.5t51.5 3t41.5 1.5q93 0 164 -23.5t119 -68t72.5 -109.5t24.5 -148q0 -80 -23 -147t-72 -116.5t-125.5 -77t-182.5 -27.5q-16 0 -37 1.5t-44.5 3l-47.5 3t-45 1.5h-116zM330 652q-28 0 -54 -1t-41 -4v-262
h179v-54h-179v-280q6 -1 20 -1.5t30.5 -1l31.5 -1t21 -0.5q75 0 125 25.5t80.5 68t43.5 99t13 119.5q0 49 -12.5 101t-43.5 95t-83 70t-131 27z" />
    <glyph glyph-name="dcroat" unicode="&#x111;" horiz-adv-x="625" 
d="M251 653h169v47h-84v50h189v-97h102v-55h-102v-548h68v-50h-162l-10 104h-4q-6 -23 -19.5 -44t-33 -37t-44 -25t-53.5 -9q-111 0 -166.5 65.5t-55.5 204.5q0 67 18.5 118.5t52.5 86.5t82 53t107 18q21 0 36 -1t28 -3t25 -5.5l26 -7.5v80h-169v55zM290 56q55 0 86 31
t44 86v295q-20 10 -44.5 15t-64.5 5q-37 0 -65.5 -16t-48 -46t-29.5 -72.5t-10 -94.5q0 -42 7.5 -79t23.5 -64.5t41 -43.5t60 -16z" />
    <glyph glyph-name="Emacron" unicode="&#x112;" horiz-adv-x="645" 
d="M564 700v-164h-64v86l-20 22h-245v-259h169l15 15v42h64v-171h-64v42l-15 16h-169v-273h262l20 20v98h64v-174h-549v56h91v588h-91v56h532zM154 787v64h340v-64h-340z" />
    <glyph glyph-name="emacron" unicode="&#x113;" horiz-adv-x="566" 
d="M499 69q-26 -37 -73.5 -58.5t-110.5 -21.5q-66 0 -116.5 19.5t-84.5 55t-51.5 86t-17.5 112.5q0 134 67 203.5t188 69.5q40 0 78.5 -10t68.5 -33t48.5 -61t18.5 -94q0 -17 -2 -36t-6 -40h-348q0 -44 11.5 -80t35 -62t58.5 -40.5t83 -14.5q39 0 72.5 13t53.5 30zM296 488
q-31 0 -54.5 -9t-40.5 -30t-27 -55.5t-13 -85.5h241q1 9 1.5 18.5t0.5 17.5q0 66 -26.5 105t-81.5 39zM150 668v55h288v-55h-288z" />
    <glyph glyph-name="Edotaccent" unicode="&#x116;" horiz-adv-x="645" 
d="M564 700v-164h-64v86l-20 22h-245v-259h169l15 15v42h64v-171h-64v42l-15 16h-169v-273h262l20 20v98h64v-174h-549v56h91v588h-91v56h532zM250 821q0 29 23 44t57 15q35 0 58 -15t23 -44t-23 -44t-58 -15q-34 0 -57 15t-23 44z" />
    <glyph glyph-name="edotaccent" unicode="&#x117;" horiz-adv-x="566" 
d="M499 69q-26 -37 -73.5 -58.5t-110.5 -21.5q-66 0 -116.5 19.5t-84.5 55t-51.5 86t-17.5 112.5q0 134 67 203.5t188 69.5q40 0 78.5 -10t68.5 -33t48.5 -61t18.5 -94q0 -17 -2 -36t-6 -40h-348q0 -44 11.5 -80t35 -62t58.5 -40.5t83 -14.5q39 0 72.5 13t53.5 30zM296 488
q-31 0 -54.5 -9t-40.5 -30t-27 -55.5t-13 -85.5h241q1 9 1.5 18.5t0.5 17.5q0 66 -26.5 105t-81.5 39zM218 687q0 29 20.5 46t52.5 17q34 0 53.5 -17t19.5 -46t-19.5 -46t-53.5 -17q-32 0 -52.5 17t-20.5 46z" />
    <glyph glyph-name="Eogonek" unicode="&#x118;" horiz-adv-x="645" 
d="M564 700v-164h-64v86l-20 22h-245v-259h169l15 15v42h64v-171h-64v42l-15 16h-169v-273h262l20 20v98h64v-174h-56q-46 -19 -72.5 -43.5t-26.5 -66.5q0 -27 20 -37.5t53 -10.5q34 0 63 6v-31q-16 -11 -41 -19.5t-62 -8.5q-26 0 -49.5 5t-41 15t-28 25.5t-10.5 37.5
q0 46 34.5 77.5t85.5 50.5h-418v56h91v588h-91v56h532z" />
    <glyph glyph-name="eogonek" unicode="&#x119;" horiz-adv-x="566" 
d="M499 69q-33 -47 -94 -66q-38 -19 -62.5 -41t-24.5 -62q0 -20 14.5 -36.5t49.5 -16.5q30 0 59 10v-36q-16 -9 -40.5 -15t-44.5 -6q-66 0 -100 21.5t-34 61.5q0 39 25 63.5t67 42.5q-66 0 -116.5 19.5t-84 55t-51 86t-17.5 112.5q0 134 67 203.5t188 69.5q40 0 78.5 -10
t68.5 -33t48.5 -61t18.5 -94q0 -17 -2 -36t-6 -40h-348q0 -44 11.5 -80t35 -62t58.5 -40.5t83 -14.5q39 0 72.5 13t53.5 30zM296 488q-31 0 -54.5 -9t-40.5 -30t-27 -55.5t-13 -85.5h241q1 9 1.5 18.5t0.5 17.5q0 66 -26.5 105t-81.5 39z" />
    <glyph glyph-name="Ecaron" unicode="&#x11a;" horiz-adv-x="645" 
d="M564 700v-164h-64v86l-20 22h-245v-259h169l15 15v42h64v-171h-64v42l-15 16h-169v-273h262l20 20v98h64v-174h-549v56h91v588h-91v56h532zM465 919l28 -18l-142 -142h-31l-141 139l28 21l133 -55z" />
    <glyph glyph-name="ecaron" unicode="&#x11b;" horiz-adv-x="566" 
d="M499 69q-26 -37 -73.5 -58.5t-110.5 -21.5q-66 0 -116.5 19.5t-84.5 55t-51.5 86t-17.5 112.5q0 134 67 203.5t188 69.5q40 0 78.5 -10t68.5 -33t48.5 -61t18.5 -94q0 -17 -2 -36t-6 -40h-348q0 -44 11.5 -80t35 -62t58.5 -40.5t83 -14.5q39 0 72.5 13t53.5 30zM296 488
q-31 0 -54.5 -9t-40.5 -30t-27 -55.5t-13 -85.5h241q1 9 1.5 18.5t0.5 17.5q0 66 -26.5 105t-81.5 39zM425 806l32 -17l-139 -195h-29l-137 194l40 18l119 -110z" />
    <glyph glyph-name="Gcircumflex" unicode="&#x11c;" horiz-adv-x="774" 
d="M669 48q-21 -12 -48 -23t-56.5 -19t-59.5 -13t-58 -5q-93 0 -165.5 21.5t-122.5 66t-76 113t-26 161.5q0 98 31.5 167t83.5 112.5t119.5 63t138.5 19.5q74 0 122 -10t86 -27v-171h-64v105l-14 20q-9 5 -23 8.5t-29.5 6t-32 3.5t-30.5 1q-55 0 -103 -17t-83.5 -53
t-56 -92.5t-20.5 -135.5q0 -142 70.5 -220t202.5 -78q33 0 56.5 4.5t41.5 11.5l15 18v189h-106v56h277v-56h-70v-227zM281 761l-16 20l142 133h31l141 -130l-18 -22l-142 56z" />
    <glyph glyph-name="gcircumflex" unicode="&#x11d;" horiz-adv-x="592" 
d="M582 525v-64h-117q14 -14 26 -39t12 -60q0 -74 -58 -119t-167 -45q-20 0 -34 0.5t-30 4.5q-5 -10 -12.5 -21.5t-7.5 -24.5q0 -21 26 -31.5t65 -19t85 -17t85.5 -25t65.5 -43.5t26 -71q0 -38 -19.5 -66.5t-55 -47t-84.5 -27.5t-107 -9q-125 0 -187 33t-62 91q0 56 38 86
t107 50q-26 11 -42 24t-16 39q0 12 6 24.5t16 24t22 21t23 15.5q-64 17 -98.5 58t-34.5 98q0 73 57 117t168 44h304zM442 -74q0 33 -23.5 52.5t-59 32t-76.5 20.5t-77 19q-42 -25 -55.5 -50.5t-13.5 -54.5q0 -42 42 -70t122 -28q41 0 68 6.5t43.5 17.5t23 25t6.5 30z
M158 364q0 -26 6 -48t19.5 -37.5t36.5 -24.5t58 -9q64 0 92 32.5t28 86.5q0 21 -1.5 35t-4 25t-5.5 19.5l-6 17.5q-23 10 -49 13.5t-54 3.5q-68 0 -94 -28t-26 -86zM168 619l-32 17l125 196h29l126 -195l-32 -18l-113 112z" />
    <glyph glyph-name="Gbreve" unicode="&#x11e;" horiz-adv-x="774" 
d="M669 48q-21 -12 -48 -23t-56.5 -19t-59.5 -13t-58 -5q-93 0 -165.5 21.5t-122.5 66t-76 113t-26 161.5q0 98 31.5 167t83.5 112.5t119.5 63t138.5 19.5q74 0 122 -10t86 -27v-171h-64v105l-14 20q-9 5 -23 8.5t-29.5 6t-32 3.5t-30.5 1q-55 0 -103 -17t-83.5 -53
t-56 -92.5t-20.5 -135.5q0 -142 70.5 -220t202.5 -78q33 0 56.5 4.5t41.5 11.5l15 18v189h-106v56h277v-56h-70v-227zM616 890q-9 -26 -25.5 -50t-38.5 -42t-48.5 -28.5t-54.5 -10.5q-31 0 -59.5 10t-51.5 28t-40 42.5t-24 52.5l47 15q8 -12 23 -22.5t33 -18t37 -11.5t36 -4
q36 0 71.5 11.5t58.5 41.5z" />
    <glyph glyph-name="gbreve" unicode="&#x11f;" horiz-adv-x="592" 
d="M582 525v-64h-117q14 -14 26 -39t12 -60q0 -74 -58 -119t-167 -45q-20 0 -34 0.5t-30 4.5q-5 -10 -12.5 -21.5t-7.5 -24.5q0 -21 26 -31.5t65 -19t85 -17t85.5 -25t65.5 -43.5t26 -71q0 -38 -19.5 -66.5t-55 -47t-84.5 -27.5t-107 -9q-125 0 -187 33t-62 91q0 56 38 86
t107 50q-26 11 -42 24t-16 39q0 12 6 24.5t16 24t22 21t23 15.5q-64 17 -98.5 58t-34.5 98q0 73 57 117t168 44h304zM442 -74q0 33 -23.5 52.5t-59 32t-76.5 20.5t-77 19q-42 -25 -55.5 -50.5t-13.5 -54.5q0 -42 42 -70t122 -28q41 0 68 6.5t43.5 17.5t23 25t6.5 30z
M158 364q0 -26 6 -48t19.5 -37.5t36.5 -24.5t58 -9q64 0 92 32.5t28 86.5q0 21 -1.5 35t-4 25t-5.5 19.5l-6 17.5q-23 10 -49 13.5t-54 3.5q-68 0 -94 -28t-26 -86zM438 756q-10 -24 -24.5 -47t-33 -41t-42 -29.5t-51.5 -11.5q-60 0 -98 37t-58 94l32 14q9 -15 24 -27.5
t32.5 -21.5t36 -14.5t35.5 -5.5q36 0 67 16.5t53 48.5z" />
    <glyph glyph-name="Gcommaaccent" unicode="&#x122;" horiz-adv-x="774" 
d="M669 48q-21 -12 -48 -23t-56.5 -19t-59.5 -13t-58 -5q-93 0 -165.5 21.5t-122.5 66t-76 113t-26 161.5q0 98 31.5 167t83.5 112.5t119.5 63t138.5 19.5q74 0 122 -10t86 -27v-171h-64v105l-14 20q-9 5 -23 8.5t-29.5 6t-32 3.5t-30.5 1q-55 0 -103 -17t-83.5 -53
t-56 -92.5t-20.5 -135.5q0 -142 70.5 -220t202.5 -78q33 0 56.5 4.5t41.5 11.5l15 18v189h-106v56h277v-56h-70v-227zM330 -243q42 11 67.5 30.5t25.5 49.5v7h-60q-10 12 -14 25t-4 27q0 30 18 56h126q17 -34 17 -69q0 -32 -14 -59t-36.5 -48t-52 -35.5t-59.5 -20.5z" />
    <glyph glyph-name="gcommaaccent" unicode="&#x123;" horiz-adv-x="592" 
d="M582 525v-64h-117q14 -14 26 -39t12 -60q0 -74 -58 -119t-167 -45q-20 0 -34 0.5t-30 4.5q-5 -10 -12.5 -21.5t-7.5 -24.5q0 -21 26 -31.5t65 -19t85 -17t85.5 -25t65.5 -43.5t26 -71q0 -38 -19.5 -66.5t-55 -47t-84.5 -27.5t-107 -9q-125 0 -187 33t-62 91q0 56 38 86
t107 50q-26 11 -42 24t-16 39q0 12 6 24.5t16 24t22 21t23 15.5q-64 17 -98.5 58t-34.5 98q0 73 57 117t168 44h304zM442 -74q0 33 -23.5 52.5t-59 32t-76.5 20.5t-77 19q-42 -25 -55.5 -50.5t-13.5 -54.5q0 -42 42 -70t122 -28q41 0 68 6.5t43.5 17.5t23 25t6.5 30z
M158 364q0 -26 6 -48t19.5 -37.5t36.5 -24.5t58 -9q64 0 92 32.5t28 86.5q0 21 -1.5 35t-4 25t-5.5 19.5l-6 17.5q-23 10 -49 13.5t-54 3.5q-68 0 -94 -28t-26 -86zM352.004 810.985q-41.998 -10.999 -67.4961 -32.998t-25.498 -51.9971v-6.99902h59.9961
q9.99902 -12 13.999 -24.499t4 -24.498q0 -27.999 -17.999 -53.9971h-115.993q-9.99902 19.999 -13.999 37.998t-4 34.9971q0 30.998 12.499 57.4971q12.5 26.498 33.998 46.9971q21.499 20.499 48.9971 34.498t57.4971 19.998z" />
    <glyph glyph-name="Hcircumflex" unicode="&#x124;" horiz-adv-x="820" 
d="M318 56v-56h-286v56h91v588h-91v56h286v-56h-83v-257h350v257h-83v56h286v-56h-91v-588h91v-56h-286v56h83v275h-350v-275h83zM270 761l-16 20l142 133h31l141 -130l-18 -22l-142 56z" />
    <glyph glyph-name="hcircumflex" unicode="&#x125;" horiz-adv-x="661" 
d="M642 0h-245v50h66v246q0 83 -22 127.5t-78 44.5q-30 0 -56 -10t-46 -26t-34.5 -35.5t-21.5 -38.5v-308h66v-50h-245v50h74v650h-85v50h190v-331h1q23 49 72.5 82.5t118.5 33.5q39 0 71 -9.5t54 -34.5t34 -67t12 -107v-267h74v-50zM2 761l-16 20l142 133h31l141 -130
l-18 -22l-142 56z" />
    <glyph glyph-name="Hbar" unicode="&#x126;" horiz-adv-x="820" 
d="M34 560h89v84h-91v56h286v-56h-83v-84h350v84h-83v56h286v-56h-91v-84h89v-54h-89v-450h91v-56h-286v56h83v275h-350v-275h83v-56h-286v56h91v450h-89v54zM585 387v119h-350v-119h350z" />
    <glyph glyph-name="hbar" unicode="&#x127;" horiz-adv-x="661" 
d="M5 653h95v47h-85v50h190v-97h176v-55h-176v-179h1q23 49 72.5 82.5t118.5 33.5q39 0 71 -9.5t54 -34.5t34 -67t12 -107v-267h74v-50h-245v50h66v246q0 83 -22 127.5t-78 44.5q-30 0 -56 -10t-46 -26t-34.5 -35.5t-21.5 -38.5v-308h66v-50h-245v50h74v548h-95v55z" />
    <glyph glyph-name="Imacron" unicode="&#x12a;" horiz-adv-x="398" 
d="M346 0h-294v56h91v588h-91v56h294v-56h-91v-588h91v-56zM29 787v64h340v-64h-340z" />
    <glyph glyph-name="imacron" unicode="&#x12b;" horiz-adv-x="339" 
d="M298 0h-253v50h74v425h-74v50h179v-475h74v-50zM26 668v55h288v-55h-288z" />
    <glyph glyph-name="Iogonek" unicode="&#x12e;" horiz-adv-x="398" 
d="M346 0h-56q-46 -19 -72.5 -43.5t-26.5 -66.5q0 -27 20 -37.5t53 -10.5q34 0 63 6v-31q-16 -11 -41 -19.5t-62 -8.5q-26 0 -49.5 5t-41 15t-28 25.5t-10.5 37.5q0 46 34.5 77.5t85.5 50.5h-163v56h91v588h-91v56h294v-56h-91v-588h91v-56z" />
    <glyph glyph-name="iogonek" unicode="&#x12f;" horiz-adv-x="339" 
d="M298 0h-16q-24 -6 -44.5 -17t-35.5 -24.5t-23.5 -28.5t-8.5 -30q0 -20 14.5 -36.5t49.5 -16.5q30 0 59 10v-36q-16 -9 -40.5 -15t-44.5 -6q-66 0 -100 21.5t-34 61.5q0 41 34.5 66.5t106.5 50.5h-170v50h74v425h-74v50h179v-475h74v-50zM97 687q0 29 20.5 46t52.5 17
q34 0 53.5 -17t19.5 -46t-19.5 -46t-53.5 -17q-32 0 -52.5 17t-20.5 46z" />
    <glyph glyph-name="Idotaccent" unicode="&#x130;" horiz-adv-x="398" 
d="M346 0h-294v56h91v588h-91v56h294v-56h-91v-588h91v-56zM117 821q0 29 23 44t57 15q35 0 58 -15t23 -44t-23 -44t-58 -15q-34 0 -57 15t-23 44z" />
    <glyph glyph-name="dotlessi" unicode="&#x131;" horiz-adv-x="339" 
d="M298 0h-253v50h74v425h-74v50h179v-475h74v-50z" />
    <glyph glyph-name="Jcircumflex" unicode="&#x134;" horiz-adv-x="380" 
d="M36 -113q17 8 33 19.5t28.5 32t20 53.5t7.5 86v566h-83v56h286v-56h-91v-556q0 -71 -18.5 -116.5t-45.5 -73t-58 -40.5t-56 -18zM40 761l-16 20l142 133h31l141 -130l-18 -22l-142 56z" />
    <glyph glyph-name="jcircumflex" unicode="&#x135;" horiz-adv-x="326" 
d="M119 475h-74v50h179v-463q0 -75 -20.5 -124t-48.5 -79.5t-56.5 -45t-44.5 -19.5l-27 43q13 6 29 18.5t30 35.5t23.5 59.5t9.5 91.5v433zM62 619l-32 17l125 196h29l126 -195l-32 -18l-113 112z" />
    <glyph glyph-name="Kcommaaccent" unicode="&#x136;" horiz-adv-x="712" 
d="M300 382l218 262h-81v56h247v-56h-79l-238 -267l283 -321h62v-56h-161l-263 332h-53v-276h83v-56h-286v56h91v588h-91v56h286v-56h-83v-262h65zM265 -243q42 11 67.5 30.5t25.5 49.5v7h-60q-10 12 -14 25t-4 27q0 30 18 56h126q17 -34 17 -69q0 -32 -14 -59t-36.5 -48
t-52 -35.5t-59.5 -20.5z" />
    <glyph glyph-name="kcommaaccent" unicode="&#x137;" horiz-adv-x="582" 
d="M317 525h220v-50h-64l-155 -179l204 -246h50v-50h-144l-186 249h-37v-199h74v-50h-253v50h74v650h-85v50h190v-461h35l153 186h-76v50zM199 -243q42 11 67.5 33t25.5 52v7h-60q-10 12 -14 24.5t-4 24.5q0 28 18 54h116q10 -20 14 -38t4 -35q0 -31 -12.5 -57.5t-34 -47
t-49 -34.5t-57.5 -20z" />
    <glyph glyph-name="Lacute" unicode="&#x139;" horiz-adv-x="609" 
d="M32 644v56h311v-56h-108v-588h266l20 22v138h72v-216h-561v56h91v588h-91zM317 914l123 -33v-40l-256 -72l-13 24z" />
    <glyph glyph-name="lacute" unicode="&#x13a;" horiz-adv-x="339" 
d="M298 0h-253v50h74v650h-85v50h190v-700h74v-50zM247 926l123 -33v-40l-256 -72l-13 24z" />
    <glyph glyph-name="Lcommaaccent" unicode="&#x13b;" horiz-adv-x="609" 
d="M32 644v56h311v-56h-108v-588h266l20 22v138h72v-216h-561v56h91v588h-91zM219 -243q42 11 67.5 30.5t25.5 49.5v7h-60q-10 12 -14 25t-4 27q0 30 18 56h126q17 -34 17 -69q0 -32 -14 -59t-36.5 -48t-52 -35.5t-59.5 -20.5z" />
    <glyph glyph-name="lcommaaccent" unicode="&#x13c;" horiz-adv-x="339" 
d="M298 0h-253v50h74v650h-85v50h190v-700h74v-50zM84 -243q42 11 67.5 33t25.5 52v7h-60q-10 12 -14 24.5t-4 24.5q0 28 18 54h116q10 -20 14 -38t4 -35q0 -31 -12.5 -57.5t-34 -47t-49 -34.5t-57.5 -20z" />
    <glyph glyph-name="Lcaron" unicode="&#x13d;" horiz-adv-x="609" 
d="M32 644v56h311v-56h-108v-588h266l20 22v138h72v-216h-561v56h91v588h-91zM387 500l46 99l1 84l15 17h107q-3 -41 -19 -76.5t-37.5 -64t-46 -49t-43.5 -31.5z" />
    <glyph glyph-name="lcaron" unicode="&#x13e;" horiz-adv-x="339" 
d="M298 0h-253v50h74v650h-85v50h190v-700h74v-50zM273 569q24 48 36 103.5t12 98.5l15 18q8 0 21 -2t27 -5.5t26.5 -8t19.5 -10.5q-5 -29 -19.5 -59t-33.5 -57.5t-40.5 -50.5t-39.5 -38z" />
    <glyph glyph-name="Lslash" unicode="&#x141;" horiz-adv-x="609" 
d="M32 644v56h311v-56h-108v-240l150 83v-77l-150 -83v-271h266l20 22v138h72v-216h-561v56h91v210l-104 -57v76l104 57v302h-91z" />
    <glyph glyph-name="lslash" unicode="&#x142;" horiz-adv-x="360" 
d="M27 310l106 61v329h-85v50h190v-319l101 59v-69l-101 -59v-312h74v-50h-253v50h74v251l-106 -61v70z" />
    <glyph glyph-name="Nacute" unicode="&#x143;" horiz-adv-x="820" 
d="M542 700h246v-56h-91v-656h-65l-407 549l-44 77h-4l10 -78v-480h91v-56h-246v56h91v588h-91v56h200l350 -471l52 -86h5l-6 86v415h-91v56zM495 914l123 -33v-40l-256 -72l-13 24z" />
    <glyph glyph-name="nacute" unicode="&#x144;" horiz-adv-x="670" 
d="M651 0h-245v50h66v251q0 79 -24 123t-88 44q-28 0 -51.5 -9t-42 -24t-32 -35t-20.5 -42v-308h66v-50h-245v50h74v425h-74v50h179v-104h1q23 48 67.5 81t107.5 33q45 0 80 -9.5t58.5 -34.5t36 -67t12.5 -107v-267h74v-50zM402 750h126v-41l-196 -117l-28 23z" />
    <glyph glyph-name="Ncommaaccent" unicode="&#x145;" horiz-adv-x="820" 
d="M542 700h246v-56h-91v-656h-65l-407 549l-44 77h-4l10 -78v-480h91v-56h-246v56h91v588h-91v56h200l350 -471l52 -86h5l-6 86v415h-91v56zM317 -243q42 11 67.5 30.5t25.5 49.5v7h-60q-10 12 -14 25t-4 27q0 30 18 56h126q17 -34 17 -69q0 -32 -14 -59t-36.5 -48
t-52 -35.5t-59.5 -20.5z" />
    <glyph glyph-name="ncommaaccent" unicode="&#x146;" horiz-adv-x="670" 
d="M651 0h-245v50h66v251q0 79 -24 123t-88 44q-28 0 -51.5 -9t-42 -24t-32 -35t-20.5 -42v-308h66v-50h-245v50h74v425h-74v50h179v-104h1q23 48 67.5 81t107.5 33q45 0 80 -9.5t58.5 -34.5t36 -67t12.5 -107v-267h74v-50zM253 -243q42 11 67.5 33t25.5 52v7h-60
q-10 12 -14 24.5t-4 24.5q0 28 18 54h116q10 -20 14 -38t4 -35q0 -31 -12.5 -57.5t-34 -47t-49 -34.5t-57.5 -20z" />
    <glyph glyph-name="Ncaron" unicode="&#x147;" horiz-adv-x="820" 
d="M542 700h246v-56h-91v-656h-65l-407 549l-44 77h-4l10 -78v-480h91v-56h-246v56h91v588h-91v56h200l350 -471l52 -86h5l-6 86v415h-91v56zM543 919l28 -18l-142 -142h-31l-141 139l28 21l133 -55z" />
    <glyph glyph-name="ncaron" unicode="&#x148;" horiz-adv-x="670" 
d="M651 0h-245v50h66v251q0 79 -24 123t-88 44q-28 0 -51.5 -9t-42 -24t-32 -35t-20.5 -42v-308h66v-50h-245v50h74v425h-74v50h179v-104h1q23 48 67.5 81t107.5 33q45 0 80 -9.5t58.5 -34.5t36 -67t12.5 -107v-267h74v-50zM455 806l32 -17l-139 -195h-29l-137 194l40 18
l119 -110z" />
    <glyph glyph-name="Omacron" unicode="&#x14c;" horiz-adv-x="830" 
d="M57 350q0 78 24 144.5t69.5 115t112 75.5t151.5 27t152 -27t113 -75.5t70 -115t24 -144.5t-24 -144.5t-70 -115t-113 -75.5t-152 -27t-151.5 27t-112 75.5t-69.5 115t-24 144.5zM182 350q0 -64 14.5 -120t44.5 -97t75.5 -65t107.5 -24q57 0 99 24t69.5 65t41.5 97t14 120
t-14.5 120t-44.5 97t-75.5 65t-108.5 24q-60 0 -102.5 -24t-69.5 -65t-39 -97t-12 -120zM245 787v64h340v-64h-340z" />
    <glyph glyph-name="omacron" unicode="&#x14d;" horiz-adv-x="622" 
d="M45 262q0 66 19 117t53.5 85.5t84 52.5t109.5 18q70 0 120.5 -19.5t82.5 -55t47.5 -86t15.5 -112.5q0 -66 -18.5 -116.5t-53 -85t-84 -52.5t-110.5 -18q-68 0 -118 19.5t-83 55t-49 85.5t-16 112zM158 262q0 -48 9 -89t29.5 -71t53 -47.5t79.5 -17.5q59 0 97 54t38 171
q0 48 -9 89.5t-28.5 72t-50 47.5t-74.5 17q-66 0 -105 -54t-39 -172zM167 668v55h288v-55h-288z" />
    <glyph glyph-name="Ohungarumlaut" unicode="&#x150;" horiz-adv-x="830" 
d="M57 350q0 78 24 144.5t69.5 115t112 75.5t151.5 27t152 -27t113 -75.5t70 -115t24 -144.5t-24 -144.5t-70 -115t-113 -75.5t-152 -27t-151.5 27t-112 75.5t-69.5 115t-24 144.5zM182 350q0 -64 14.5 -120t44.5 -97t75.5 -65t107.5 -24q57 0 99 24t69.5 65t41.5 97t14 120
t-14.5 120t-44.5 97t-75.5 65t-108.5 24q-60 0 -102.5 -24t-69.5 -65t-39 -97t-12 -120zM382 908l101 -24v-24l-177 -103l-22 19zM579 908l106 -22v-25l-230 -106l-25 19z" />
    <glyph glyph-name="ohungarumlaut" unicode="&#x151;" horiz-adv-x="622" 
d="M45 262q0 66 19 117t53.5 85.5t84 52.5t109.5 18q70 0 120.5 -19.5t82.5 -55t47.5 -86t15.5 -112.5q0 -66 -18.5 -116.5t-53 -85t-84 -52.5t-110.5 -18q-68 0 -118 19.5t-83 55t-49 85.5t-16 112zM158 262q0 -48 9 -89t29.5 -71t53 -47.5t79.5 -17.5q59 0 97 54t38 171
q0 48 -9 89.5t-28.5 72t-50 47.5t-74.5 17q-66 0 -105 -54t-39 -172zM275 806l97 -22v-26l-155 -130l-27 16zM471 806l98 -29v-25l-224 -124l-23 18z" />
    <glyph glyph-name="OE" unicode="&#x152;" horiz-adv-x="1064" 
d="M414 712q26 0 61 -3t67 -9h438v-164h-64v86l-20 22h-242v-259h169l15 15v42h64v-171h-64v42l-15 16h-169v-273h262l20 20v98h64v-174h-457q-29 -5 -63.5 -8.5t-65.5 -3.5q-85 0 -151.5 27t-112 75.5t-69.5 115t-24 144.5t24 144.5t69.5 115t112 75.5t151.5 27zM424 42
q29 0 59.5 4.5t58.5 15.5v571q-29 11 -64 18t-73 7q-60 0 -102.5 -24t-69.5 -66t-39 -98t-12 -120t14.5 -120t44.5 -98t75.5 -66t107.5 -24z" />
    <glyph glyph-name="oe" unicode="&#x153;" horiz-adv-x="984" 
d="M158 262q0 -48 9 -89t29.5 -71t53.5 -47.5t80 -17.5q59 0 97 54t38 171q0 48 -9 89.5t-28.5 72t-50.5 47.5t-75 17q-66 0 -105 -54t-39 -172zM521 79q-20 -25 -44.5 -42t-52 -27.5t-56.5 -15t-57 -4.5q-68 0 -118 19.5t-83 55t-49 85.5t-16 112q0 66 19 117t53.5 85.5
t84 52.5t109.5 18q30 0 60.5 -4.5t57.5 -15t50 -27t40 -40.5q14 22 36.5 38.5t49.5 27.5t56 16t58 5q40 0 78 -9.5t68 -32.5t48.5 -61t18.5 -95q0 -17 -2 -36t-6 -40h-348q0 -44 11.5 -81.5t35 -64.5t59 -42.5t83.5 -15.5q38 0 71.5 16t55.5 40l30 -35q-9 -18 -28.5 -34
t-44.5 -28t-55 -19t-60 -7q-31 0 -63.5 6t-62 17.5t-52.5 28t-35 37.5zM715 488q-31 0 -55 -9t-41 -30t-27 -55.5t-13 -85.5h242q1 9 1 18v17q0 67 -26 106t-81 39z" />
    <glyph glyph-name="Racute" unicode="&#x154;" horiz-adv-x="708" 
d="M235 56h86v-56h-289v56h91v588h-91v56h101q45 0 98 4t104 4q55 0 103.5 -11.5t83.5 -35.5t55.5 -61.5t20.5 -89.5q0 -72 -44.5 -122.5t-116.5 -71.5l199 -260h62v-56h-162l-199 302h-102v-246zM314 354q77 0 120.5 42t43.5 114q0 74 -46 108t-122 34q-26 0 -43.5 -2
t-31.5 -4v-292h79zM417 914l123 -33v-40l-256 -72l-13 24z" />
    <glyph glyph-name="racute" unicode="&#x155;" horiz-adv-x="433" 
d="M284 435q-23 -12 -38 -28t-32 -46v-311h88v-50h-267v50h74v425h-74v50h179v-101h4q17 33 40 57.5t52 43.5h96v-90h-122zM287 750h126v-41l-196 -117l-28 23z" />
    <glyph glyph-name="Rcommaaccent" unicode="&#x156;" horiz-adv-x="708" 
d="M235 56h86v-56h-289v56h91v588h-91v56h101q45 0 98 4t104 4q55 0 103.5 -11.5t83.5 -35.5t55.5 -61.5t20.5 -89.5q0 -72 -44.5 -122.5t-116.5 -71.5l199 -260h62v-56h-162l-199 302h-102v-246zM314 354q77 0 120.5 42t43.5 114q0 74 -46 108t-122 34q-26 0 -43.5 -2
t-31.5 -4v-292h79zM263 -243q42 11 67.5 30.5t25.5 49.5v7h-60q-10 12 -14 25t-4 27q0 30 18 56h126q17 -34 17 -69q0 -32 -14 -59t-36.5 -48t-52 -35.5t-59.5 -20.5z" />
    <glyph glyph-name="rcommaaccent" unicode="&#x157;" horiz-adv-x="433" 
d="M284 435q-23 -12 -38 -28t-32 -46v-311h88v-50h-267v50h74v425h-74v50h179v-101h4q17 33 40 57.5t52 43.5h96v-90h-122zM97 -243q42 11 67.5 33t25.5 52v7h-60q-10 12 -14 24.5t-4 24.5q0 28 18 54h116q10 -20 14 -38t4 -35q0 -31 -12.5 -57.5t-34 -47t-49 -34.5
t-57.5 -20z" />
    <glyph glyph-name="Rcaron" unicode="&#x158;" horiz-adv-x="708" 
d="M235 56h86v-56h-289v56h91v588h-91v56h101q45 0 98 4t104 4q55 0 103.5 -11.5t83.5 -35.5t55.5 -61.5t20.5 -89.5q0 -72 -44.5 -122.5t-116.5 -71.5l199 -260h62v-56h-162l-199 302h-102v-246zM314 354q77 0 120.5 42t43.5 114q0 74 -46 108t-122 34q-26 0 -43.5 -2
t-31.5 -4v-292h79zM449 919l28 -18l-142 -142h-31l-141 139l28 21l133 -55z" />
    <glyph glyph-name="rcaron" unicode="&#x159;" horiz-adv-x="433" 
d="M284 435q-23 -12 -38 -28t-32 -46v-311h88v-50h-267v50h74v425h-74v50h179v-101h4q17 33 40 57.5t52 43.5h96v-90h-122zM367 806l32 -17l-139 -195h-29l-137 194l40 18l119 -110z" />
    <glyph glyph-name="Sacute" unicode="&#x15a;" horiz-adv-x="596" 
d="M126 98l18 -24q18 -13 49.5 -21.5t69.5 -8.5q36 0 66.5 7.5t53.5 22.5t36 38t13 55q0 41 -27.5 68t-68.5 48t-89 41t-89 47t-68.5 65t-27.5 96q0 85 64.5 132.5t174.5 47.5q69 0 119 -9t85 -24v-172h-64v108l-16 25q-19 8 -55 12t-71 4q-60 0 -94 -27.5t-34 -77.5
q0 -41 27.5 -68.5t68.5 -49.5t89 -42.5t89 -47t68.5 -63.5t27.5 -92q0 -97 -75 -148.5t-205 -51.5q-71 0 -123 15t-76 32v182h64v-119zM395 914l123 -33v-40l-256 -72l-13 24z" />
    <glyph glyph-name="sacute" unicode="&#x15b;" horiz-adv-x="486" 
d="M332 119q0 27 -20 47.5t-50 38t-65 35t-65 40t-50 53t-20 73.5q0 29 14 52.5t37.5 40.5t55.5 26.5t68 9.5q30 0 53 -2t42 -5.5t36 -8.5t35 -11v-135h-64v79l-19 22q-13 3 -28 5t-32 2q-48 0 -71.5 -18.5t-23.5 -46.5q0 -27 20 -47t50 -37.5t65 -34.5t65 -38.5t50 -49.5
t20 -67q0 -36 -16.5 -64t-45 -47.5t-67 -30t-81.5 -10.5q-48 0 -93.5 12.5t-71.5 29.5v131h64v-76l20 -21q13 -10 31 -16t47 -6q48 0 79 20t31 55zM290 750h126v-41l-196 -117l-28 23z" />
    <glyph glyph-name="Scircumflex" unicode="&#x15c;" horiz-adv-x="596" 
d="M126 98l18 -24q18 -13 49.5 -21.5t69.5 -8.5q36 0 66.5 7.5t53.5 22.5t36 38t13 55q0 41 -27.5 68t-68.5 48t-89 41t-89 47t-68.5 65t-27.5 96q0 85 64.5 132.5t174.5 47.5q69 0 119 -9t85 -24v-172h-64v108l-16 25q-19 8 -55 12t-71 4q-60 0 -94 -27.5t-34 -77.5
q0 -41 27.5 -68.5t68.5 -49.5t89 -42.5t89 -47t68.5 -63.5t27.5 -92q0 -97 -75 -148.5t-205 -51.5q-71 0 -123 15t-76 32v182h64v-119zM175 761l-16 20l142 133h31l141 -130l-18 -22l-142 56z" />
    <glyph glyph-name="scircumflex" unicode="&#x15d;" horiz-adv-x="486" 
d="M332 119q0 27 -20 47.5t-50 38t-65 35t-65 40t-50 53t-20 73.5q0 29 14 52.5t37.5 40.5t55.5 26.5t68 9.5q30 0 53 -2t42 -5.5t36 -8.5t35 -11v-135h-64v79l-19 22q-13 3 -28 5t-32 2q-48 0 -71.5 -18.5t-23.5 -46.5q0 -27 20 -47t50 -37.5t65 -34.5t65 -38.5t50 -49.5
t20 -67q0 -36 -16.5 -64t-45 -47.5t-67 -30t-81.5 -10.5q-48 0 -93.5 12.5t-71.5 29.5v131h64v-76l20 -21q13 -10 31 -16t47 -6q48 0 79 20t31 55zM137 619l-32 17l125 196h29l126 -195l-32 -18l-113 112z" />
    <glyph glyph-name="Scedilla" unicode="&#x15e;" horiz-adv-x="596" 
d="M126 98l18 -24q18 -13 49.5 -21.5t69.5 -8.5q36 0 66.5 7.5t53.5 22.5t36 38t13 55q0 41 -27.5 68t-68.5 48t-89 41t-89 47t-68.5 65t-27.5 96q0 85 64.5 132.5t174.5 47.5q69 0 119 -9t85 -24v-172h-64v108l-16 25q-19 8 -55 12t-71 4q-60 0 -94 -27.5t-34 -77.5
q0 -41 27.5 -68.5t68.5 -49.5t89 -42.5t89 -47t68.5 -63.5t27.5 -92q0 -88 -62 -139t-172 -59l-27 -54q68 -2 101 -18.5t33 -52.5q0 -30 -20 -49t-50.5 -29.5t-66.5 -14.5t-68 -4v33q22 1 40.5 3.5t32.5 7.5t22 13.5t8 22.5q0 27 -25 35t-75 10l39 95q-67 2 -116.5 16.5
t-72.5 30.5v182h64v-119z" />
    <glyph glyph-name="scedilla" unicode="&#x15f;" horiz-adv-x="486" 
d="M332 119q0 27 -20 47.5t-50 38t-65 35t-65 40t-50 53t-20 73.5q0 29 14 52.5t37.5 40.5t55.5 26.5t68 9.5q30 0 53 -2t42 -5.5t36 -8.5t35 -11v-135h-64v79l-19 22q-13 3 -28 5t-32 2q-48 0 -71.5 -18.5t-23.5 -46.5q0 -27 20 -47t50 -37.5t65 -34.5t65 -38.5t50 -49.5
t20 -67q0 -33 -14.5 -60t-40 -46.5t-59.5 -31t-73 -14.5l-24 -51q63 -2 92 -17t29 -49q0 -31 -17.5 -50t-44.5 -29.5t-60 -14t-64 -3.5v32q21 1 38.5 3t29.5 7t18.5 14t6.5 25q0 26 -23 32t-69 10l38 91q-42 4 -79 15.5t-59 26.5v131h64v-76l20 -21q13 -10 31 -16t47 -6
q48 0 79 20t31 55z" />
    <glyph glyph-name="Scaron" unicode="&#x160;" horiz-adv-x="596" 
d="M126 98l18 -24q18 -13 49.5 -21.5t69.5 -8.5q36 0 66.5 7.5t53.5 22.5t36 38t13 55q0 41 -27.5 68t-68.5 48t-89 41t-89 47t-68.5 65t-27.5 96q0 85 64.5 132.5t174.5 47.5q69 0 119 -9t85 -24v-172h-64v108l-16 25q-19 8 -55 12t-71 4q-60 0 -94 -27.5t-34 -77.5
q0 -41 27.5 -68.5t68.5 -49.5t89 -42.5t89 -47t68.5 -63.5t27.5 -92q0 -97 -75 -148.5t-205 -51.5q-71 0 -123 15t-76 32v182h64v-119zM435 919l28 -18l-142 -142h-31l-141 139l28 21l133 -55z" />
    <glyph glyph-name="scaron" unicode="&#x161;" horiz-adv-x="486" 
d="M332 119q0 27 -20 47.5t-50 38t-65 35t-65 40t-50 53t-20 73.5q0 29 14 52.5t37.5 40.5t55.5 26.5t68 9.5q30 0 53 -2t42 -5.5t36 -8.5t35 -11v-135h-64v79l-19 22q-13 3 -28 5t-32 2q-48 0 -71.5 -18.5t-23.5 -46.5q0 -27 20 -47t50 -37.5t65 -34.5t65 -38.5t50 -49.5
t20 -67q0 -36 -16.5 -64t-45 -47.5t-67 -30t-81.5 -10.5q-48 0 -93.5 12.5t-71.5 29.5v131h64v-76l20 -21q13 -10 31 -16t47 -6q48 0 79 20t31 55zM364 806l32 -17l-139 -195h-29l-137 194l40 18l119 -110z" />
    <glyph glyph-name="Tcedilla" unicode="&#x162;" horiz-adv-x="698" 
d="M508 0h-131l-33 -64q68 -2 101 -18.5t33 -52.5q0 -30 -20 -49t-50.5 -29.5t-66.5 -14.5t-68 -4v33q22 1 40.5 3.5t32.5 7.5t22 13.5t8 22.5q0 27 -25 35t-75 10l44 107h-130v56h103v588h-179l-20 -22v-129h-72v207h654v-207h-72v129l-20 22h-179v-588h103v-56z" />
    <glyph glyph-name="tcedilla" unicode="&#x163;" horiz-adv-x="418" 
d="M17 525h89v125h105v-125h166v-64h-166v-292q0 -63 16 -89t52 -26q31 0 53.5 11t41.5 24l25 -39q-9 -9 -24 -19t-34.5 -19t-43.5 -15t-49 -7l-24 -51q63 -2 92 -17t29 -49q0 -32 -17.5 -51t-44.5 -29t-60 -13.5t-64 -3.5v32q21 1 38.5 3t29.5 7t18.5 14t6.5 25
q0 26 -23 32t-69 10l39 96q-45 10 -69 44t-24 100v322h-89v64z" />
    <glyph glyph-name="Tcaron" unicode="&#x164;" horiz-adv-x="698" 
d="M508 0h-318v56h103v588h-179l-20 -22v-129h-72v207h654v-207h-72v129l-20 22h-179v-588h103v-56zM479 919l28 -18l-142 -142h-31l-141 139l28 21l133 -55z" />
    <glyph glyph-name="tcaron" unicode="&#x165;" horiz-adv-x="418" 
d="M17 525h89v125h105v-125h166v-64h-166v-292q0 -63 16 -89t52 -26q31 0 53.5 11t41.5 24l25 -39q-9 -9 -24.5 -19.5t-35.5 -19.5t-44.5 -15t-50.5 -6q-67 0 -102.5 34.5t-35.5 114.5v322h-89v64zM263 571q24 48 36 103.5t12 98.5l15 18q8 0 21 -2t27 -5.5t26.5 -8
t19.5 -10.5q-5 -29 -19.5 -59t-33.5 -57.5t-40.5 -50.5t-39.5 -38z" />
    <glyph glyph-name="Umacron" unicode="&#x16a;" horiz-adv-x="762" 
d="M659 239q0 -64 -19 -110.5t-53.5 -77t-83.5 -45.5t-109 -15q-142 0 -216.5 56.5t-74.5 174.5v422h-91v56h284v-56h-81v-401q0 -52 13 -87.5t37.5 -57t60.5 -31t82 -9.5q88 0 137.5 44t49.5 144v398h-81v56h236v-56h-91v-405v0zM230 787v64h340v-64h-340z" />
    <glyph glyph-name="umacron" unicode="&#x16b;" horiz-adv-x="647" 
d="M87 208q0 66 3 135t3 132h-74v50h178q-2 -78 -3.5 -149.5t-1.5 -148.5q0 -41 4.5 -72.5t17 -53.5t34.5 -33t56 -11q50 0 84 32t52 86v300h-73v50h178v-475h74v-50h-167l-7 114h-5q-5 -21 -19.5 -43t-36.5 -40t-51 -29.5t-63 -11.5q-45 0 -79 9.5t-57 34.5t-35 67t-12 107
zM179 668v55h288v-55h-288z" />
    <glyph glyph-name="Ubreve" unicode="&#x16c;" horiz-adv-x="762" 
d="M659 239q0 -64 -19 -110.5t-53.5 -77t-83.5 -45.5t-109 -15q-142 0 -216.5 56.5t-74.5 174.5v422h-91v56h284v-56h-81v-401q0 -52 13 -87.5t37.5 -57t60.5 -31t82 -9.5q88 0 137.5 44t49.5 144v398h-81v56h236v-56h-91v-405v0zM563 890q-9 -26 -25.5 -50t-38.5 -42
t-48.5 -28.5t-54.5 -10.5q-31 0 -59.5 10t-51.5 28t-40 42.5t-24 52.5l47 15q8 -12 23 -22.5t33 -18t37 -11.5t36 -4q36 0 71.5 11.5t58.5 41.5z" />
    <glyph glyph-name="ubreve" unicode="&#x16d;" horiz-adv-x="647" 
d="M87 208q0 66 3 135t3 132h-74v50h178q-2 -78 -3.5 -149.5t-1.5 -148.5q0 -41 4.5 -72.5t17 -53.5t34.5 -33t56 -11q50 0 84 32t52 86v300h-73v50h178v-475h74v-50h-167l-7 114h-5q-5 -21 -19.5 -43t-36.5 -40t-51 -29.5t-63 -11.5q-45 0 -79 9.5t-57 34.5t-35 67t-12 107
zM474 756q-10 -24 -24.5 -47t-33 -41t-42 -29.5t-51.5 -11.5q-60 0 -98 37t-58 94l32 14q9 -15 24 -27.5t32.5 -21.5t36 -14.5t35.5 -5.5q36 0 67 16.5t53 48.5z" />
    <glyph glyph-name="Uring" unicode="&#x16e;" horiz-adv-x="762" 
d="M659 239q0 -64 -19 -110.5t-53.5 -77t-83.5 -45.5t-109 -15q-142 0 -216.5 56.5t-74.5 174.5v422h-91v56h284v-56h-81v-401q0 -52 13 -87.5t37.5 -57t60.5 -31t82 -9.5q88 0 137.5 44t49.5 144v398h-81v56h236v-56h-91v-405v0zM276 788q0 41 38 63.5t93 22.5q22 0 44 -5
t39.5 -15t28.5 -25.5t11 -37.5q0 -20 -10 -35t-27.5 -26t-40 -16.5t-46.5 -5.5q-58 0 -94 21t-36 59zM351 788q0 -17 14.5 -27.5t34.5 -10.5q29 0 42 10t13 27q0 26 -15 35.5t-36 9.5q-27 0 -40 -12.5t-13 -31.5z" />
    <glyph glyph-name="uring" unicode="&#x16f;" horiz-adv-x="647" 
d="M87 208q0 66 3 135t3 132h-74v50h178q-2 -78 -3.5 -149.5t-1.5 -148.5q0 -41 4.5 -72.5t17 -53.5t34.5 -33t56 -11q50 0 84 32t52 86v300h-73v50h178v-475h74v-50h-167l-7 114h-5q-5 -21 -19.5 -43t-36.5 -40t-51 -29.5t-63 -11.5q-45 0 -79 9.5t-57 34.5t-35 67t-12 107
zM213 717q0 43 32 72.5t81 29.5q45 0 75.5 -26.5t30.5 -72.5q0 -21 -9 -39t-23.5 -31t-34 -20.5t-40.5 -7.5q-51 0 -81.5 25.5t-30.5 69.5zM273 719q0 -26 15 -39.5t33 -13.5q22 0 36.5 12t14.5 38q0 29 -14 44t-36 15q-26 0 -37.5 -15t-11.5 -41z" />
    <glyph glyph-name="Uhungarumlaut" unicode="&#x170;" horiz-adv-x="762" 
d="M659 239q0 -64 -19 -110.5t-53.5 -77t-83.5 -45.5t-109 -15q-142 0 -216.5 56.5t-74.5 174.5v422h-91v56h284v-56h-81v-401q0 -52 13 -87.5t37.5 -57t60.5 -31t82 -9.5q88 0 137.5 44t49.5 144v398h-81v56h236v-56h-91v-405v0zM368 908l101 -24v-24l-177 -103l-22 19z
M565 908l106 -22v-25l-230 -106l-25 19z" />
    <glyph glyph-name="uhungarumlaut" unicode="&#x171;" horiz-adv-x="647" 
d="M87 208q0 66 3 135t3 132h-74v50h178q-2 -78 -3.5 -149.5t-1.5 -148.5q0 -41 4.5 -72.5t17 -53.5t34.5 -33t56 -11q50 0 84 32t52 86v300h-73v50h178v-475h74v-50h-167l-7 114h-5q-5 -21 -19.5 -43t-36.5 -40t-51 -29.5t-63 -11.5q-45 0 -79 9.5t-57 34.5t-35 67t-12 107
zM274 806l97 -22v-26l-155 -130l-27 16zM470 806l98 -29v-25l-224 -124l-23 18z" />
    <glyph glyph-name="Uogonek" unicode="&#x172;" horiz-adv-x="762" 
d="M659 239q0 -102 -46 -160t-127 -78q-47 -18 -73.5 -43.5t-26.5 -67.5q0 -27 20 -37.5t53 -10.5q34 0 63 6v-31q-16 -11 -41 -19.5t-62 -8.5q-26 0 -49.5 5t-41 15t-28 25.5t-10.5 37.5q0 41 27.5 70t70.5 49q-139 2 -212 58t-73 173v422h-91v56h284v-56h-81v-401
q0 -52 13 -87.5t37.5 -57t60.5 -31t82 -9.5q88 0 137.5 44t49.5 144v398h-81v56h236v-56h-91v-405v0z" />
    <glyph glyph-name="uogonek" unicode="&#x173;" horiz-adv-x="647" 
d="M87 208q0 66 3 135t3 132h-74v50h178q-2 -78 -3.5 -149.5t-1.5 -148.5q0 -41 4.5 -72.5t17 -53.5t34.5 -33t56 -11q50 0 84 32t52 86v300h-73v50h178v-475h74v-50h-13q-49 -9 -82 -31.5t-33 -68.5q0 -20 14.5 -36.5t49.5 -16.5q30 0 59 10v-36q-16 -9 -40.5 -15t-44.5 -6
q-66 0 -100 21.5t-34 61.5q0 27 14.5 47t35.5 34t45.5 22.5t44.5 13.5h-83l-7 114h-5q-5 -21 -19.5 -43t-36.5 -40t-51 -29.5t-63 -11.5q-45 0 -79 9.5t-57 34.5t-35 67t-12 107z" />
    <glyph glyph-name="Ydieresis" unicode="&#x178;" horiz-adv-x="727" 
d="M478 700h249v-56h-85l-213 -347v-241h91v-56h-294v56h91v240l-226 348h-91v56h302v-56h-84l181 -291l171 291h-92v56zM199 796q0 29 18.5 43.5t46.5 14.5q29 0 48 -14.5t19 -43.5q0 -26 -19 -40t-48 -14q-28 0 -46.5 14t-18.5 40zM451 796q0 29 19 43.5t46 14.5
q29 0 48 -14.5t19 -43.5q0 -26 -19 -40t-48 -14q-27 0 -46 14t-19 40z" />
    <glyph glyph-name="Zacute" unicode="&#x179;" horiz-adv-x="672" 
d="M40 56l458 588h-341l-20 -22v-125h-72v203h561v-56l-458 -588h372l20 22v125h72v-203h-592v56zM436 914l123 -33v-40l-256 -72l-13 24z" />
    <glyph glyph-name="zacute" unicode="&#x17a;" horiz-adv-x="549" 
d="M491 181v-181h-434v50l329 425h-217l-20 -20v-100h-64v170h416v-50l-331 -425h237l20 20v111h64zM311 750h126v-41l-196 -117l-28 23z" />
    <glyph glyph-name="Zdotaccent" unicode="&#x17b;" horiz-adv-x="672" 
d="M40 56l458 588h-341l-20 -22v-125h-72v203h561v-56l-458 -588h372l20 22v125h72v-203h-592v56zM253 821q0 29 23 44t57 15q35 0 58 -15t23 -44t-23 -44t-58 -15q-34 0 -57 15t-23 44z" />
    <glyph glyph-name="zdotaccent" unicode="&#x17c;" horiz-adv-x="549" 
d="M491 181v-181h-434v50l329 425h-217l-20 -20v-100h-64v170h416v-50l-331 -425h237l20 20v111h64zM201 687q0 29 20.5 46t52.5 17q34 0 53.5 -17t19.5 -46t-19.5 -46t-53.5 -17q-32 0 -52.5 17t-20.5 46z" />
    <glyph glyph-name="Zcaron" unicode="&#x17d;" horiz-adv-x="672" 
d="M40 56l458 588h-341l-20 -22v-125h-72v203h561v-56l-458 -588h372l20 22v125h72v-203h-592v56zM469 919l28 -18l-142 -142h-31l-141 139l28 21l133 -55z" />
    <glyph glyph-name="zcaron" unicode="&#x17e;" horiz-adv-x="549" 
d="M491 181v-181h-434v50l329 425h-217l-20 -20v-100h-64v170h416v-50l-331 -425h237l20 20v111h64zM396 806l32 -17l-139 -195h-29l-137 194l40 18l119 -110z" />
    <glyph glyph-name="longs" unicode="&#x17f;" horiz-adv-x="385" 
d="M307 750q17 0 35.5 -2.5t35 -7t30 -10t21.5 -11.5v-93h-96v66q-11 2 -18 3t-17 1q-44 0 -58.5 -35.5t-14.5 -113.5v-497h107v-50h-286v50h74v425h-85v50h85v16q0 60 16 100t42 64t60 34.5t69 10.5z" />
    <glyph glyph-name="florin" unicode="&#x192;" 
d="M219 475h-80v50h93l3 14q22 103 82 157t153 54q9 0 21.5 -1.5t25 -3.5t24 -5t20.5 -7v-83h-98v46q-31 0 -51.5 -8t-34.5 -25.5t-24 -46t-20 -70.5l-5 -21h113v-50h-124l-71 -430q-12 -74 -41 -121t-62.5 -74.5t-65.5 -39.5t-50 -17l-11 28q14 6 32.5 19.5t37.5 37
t35.5 59.5t25.5 88z" />
    <glyph glyph-name="uni01F4" unicode="&#x1f4;" horiz-adv-x="774" 
d="M669 48q-21 -12 -48 -23t-56.5 -19t-59.5 -13t-58 -5q-93 0 -165.5 21.5t-122.5 66t-76 113t-26 161.5q0 98 31.5 167t83.5 112.5t119.5 63t138.5 19.5q74 0 122 -10t86 -27v-171h-64v105l-14 20q-9 5 -23 8.5t-29.5 6t-32 3.5t-30.5 1q-55 0 -103 -17t-83.5 -53
t-56 -92.5t-20.5 -135.5q0 -142 70.5 -220t202.5 -78q33 0 56.5 4.5t41.5 11.5l15 18v189h-106v56h277v-56h-70v-227zM515 914l123 -33v-40l-256 -72l-13 24z" />
    <glyph glyph-name="uni01F5" unicode="&#x1f5;" horiz-adv-x="592" 
d="M582 525v-64h-117q14 -14 26 -39t12 -60q0 -74 -58 -119t-167 -45q-20 0 -34 0.5t-30 4.5q-5 -10 -12.5 -21.5t-7.5 -24.5q0 -21 26 -31.5t65 -19t85 -17t85.5 -25t65.5 -43.5t26 -71q0 -38 -19.5 -66.5t-55 -47t-84.5 -27.5t-107 -9q-125 0 -187 33t-62 91q0 56 38 86
t107 50q-26 11 -42 24t-16 39q0 12 6 24.5t16 24t22 21t23 15.5q-64 17 -98.5 58t-34.5 98q0 73 57 117t168 44h304zM442 -74q0 33 -23.5 52.5t-59 32t-76.5 20.5t-77 19q-42 -25 -55.5 -50.5t-13.5 -54.5q0 -42 42 -70t122 -28q41 0 68 6.5t43.5 17.5t23 25t6.5 30z
M158 364q0 -26 6 -48t19.5 -37.5t36.5 -24.5t58 -9q64 0 92 32.5t28 86.5q0 21 -1.5 35t-4 25t-5.5 19.5l-6 17.5q-23 10 -49 13.5t-54 3.5q-68 0 -94 -28t-26 -86zM353 750h126v-41l-196 -117l-28 23z" />
    <glyph glyph-name="Scommaaccent" unicode="&#x218;" horiz-adv-x="596" 
d="M126 98l18 -24q18 -13 49.5 -21.5t69.5 -8.5q36 0 66.5 7.5t53.5 22.5t36 38t13 55q0 41 -27.5 68t-68.5 48t-89 41t-89 47t-68.5 65t-27.5 96q0 85 64.5 132.5t174.5 47.5q69 0 119 -9t85 -24v-172h-64v108l-16 25q-19 8 -55 12t-71 4q-60 0 -94 -27.5t-34 -77.5
q0 -41 27.5 -68.5t68.5 -49.5t89 -42.5t89 -47t68.5 -63.5t27.5 -92q0 -97 -75 -148.5t-205 -51.5q-71 0 -123 15t-76 32v182h64v-119zM202 -243q42 11 67.5 30.5t25.5 49.5v7h-60q-10 12 -14 25t-4 27q0 30 18 56h126q17 -34 17 -69q0 -32 -14 -59t-36.5 -48t-52 -35.5
t-59.5 -20.5z" />
    <glyph glyph-name="scommaaccent" unicode="&#x219;" horiz-adv-x="486" 
d="M332 119q0 27 -20 47.5t-50 38t-65 35t-65 40t-50 53t-20 73.5q0 29 14 52.5t37.5 40.5t55.5 26.5t68 9.5q30 0 53 -2t42 -5.5t36 -8.5t35 -11v-135h-64v79l-19 22q-13 3 -28 5t-32 2q-48 0 -71.5 -18.5t-23.5 -46.5q0 -27 20 -47t50 -37.5t65 -34.5t65 -38.5t50 -49.5
t20 -67q0 -36 -16.5 -64t-45 -47.5t-67 -30t-81.5 -10.5q-48 0 -93.5 12.5t-71.5 29.5v131h64v-76l20 -21q13 -10 31 -16t47 -6q48 0 79 20t31 55zM139 -243q42 11 67.5 33t25.5 52v7h-60q-10 12 -14 24.5t-4 24.5q0 28 18 54h116q10 -20 14 -38t4 -35q0 -31 -12.5 -57.5
t-34 -47t-49 -34.5t-57.5 -20z" />
    <glyph glyph-name="Tcommaaccent" unicode="&#x21a;" horiz-adv-x="698" 
d="M508 0h-318v56h103v588h-179l-20 -22v-129h-72v207h654v-207h-72v129l-20 22h-179v-588h103v-56zM263 -243q42 11 67.5 30.5t25.5 49.5v7h-60q-10 12 -14 25t-4 27q0 30 18 56h126q17 -34 17 -69q0 -32 -14 -59t-36.5 -48t-52 -35.5t-59.5 -20.5z" />
    <glyph glyph-name="tcommaaccent" unicode="&#x21b;" horiz-adv-x="418" 
d="M17 525h89v125h105v-125h166v-64h-166v-292q0 -63 16 -89t52 -26q31 0 53.5 11t41.5 24l25 -39q-9 -9 -24.5 -19.5t-35.5 -19.5t-44.5 -15t-50.5 -6q-67 0 -102.5 34.5t-35.5 114.5v322h-89v64zM130 -243q42 11 67.5 33t25.5 52v7h-60q-10 12 -14 24.5t-4 24.5
q0 28 18 54h116q10 -20 14 -38t4 -35q0 -31 -12.5 -57.5t-34 -47t-49 -34.5t-57.5 -20z" />
    <glyph glyph-name="uni0237" unicode="&#x237;" horiz-adv-x="326" 
d="M119 475h-74v50h179v-463q0 -75 -20.5 -124t-48.5 -79.5t-56.5 -45t-44.5 -19.5l-27 43q13 6 29 18.5t30 35.5t23.5 59.5t9.5 91.5v433z" />
    <glyph glyph-name="afii57929" unicode="&#x2bc;" horiz-adv-x="281" 
d="M61 462q21 6 38 19t29 29.5t17.5 35.5t4.5 37h-57q-8 12 -13 24.5t-5 26.5q0 12 2.5 22.5t6.5 19.5t9 17h111q8 -20 13 -39t5 -39q0 -28 -9.5 -59t-28.5 -55q-15 -20 -41.5 -40t-63.5 -28z" />
    <glyph glyph-name="circumflex" unicode="&#x2c6;" horiz-adv-x="400" 
d="M92 619l-32 17l125 196h29l126 -195l-32 -18l-113 112z" />
    <glyph glyph-name="caron" unicode="&#x2c7;" horiz-adv-x="425" 
d="M333 806l32 -17l-139 -195h-29l-137 194l40 18l119 -110z" />
    <glyph glyph-name="breve" unicode="&#x2d8;" horiz-adv-x="427" 
d="M367 756q-10 -24 -24.5 -47t-33 -41t-42 -29.5t-51.5 -11.5q-60 0 -98 37t-58 94l32 14q9 -15 24 -27.5t32.5 -21.5t36 -14.5t35.5 -5.5q36 0 67 16.5t53 48.5z" />
    <glyph glyph-name="dotaccent" unicode="&#x2d9;" horiz-adv-x="333" 
d="M97 687q0 29 20.5 46t52.5 17q34 0 53.5 -17t19.5 -46t-19.5 -46t-53.5 -17q-32 0 -52.5 17t-20.5 46z" />
    <glyph glyph-name="ring" unicode="&#x2da;" horiz-adv-x="339" 
d="M60 717q0 43 32 72.5t81 29.5q45 0 75.5 -26.5t30.5 -72.5q0 -21 -9 -39t-23.5 -31t-34 -20.5t-40.5 -7.5q-51 0 -81.5 25.5t-30.5 69.5zM120 719q0 -26 15 -39.5t33 -13.5q22 0 36.5 12t14.5 38q0 29 -14 44t-36 15q-26 0 -37.5 -15t-11.5 -41z" />
    <glyph glyph-name="ogonek" unicode="&#x2db;" horiz-adv-x="470" 
d="M418 21q-27 -12 -50 -23.5t-40 -25t-27 -31t-10 -41.5q0 -20 14.5 -36.5t49.5 -16.5q30 0 59 10v-36q-16 -9 -40.5 -15t-44.5 -6q-66 0 -100 21.5t-34 61.5q0 28 14 48.5t38 36t57 28t71 25.5h43z" />
    <glyph glyph-name="tilde" unicode="&#x2dc;" horiz-adv-x="466" 
d="M406 705q-36 -34 -66.5 -46.5t-55.5 -12.5q-20 0 -38 5.5t-35 12t-33 12t-33 5.5q-14 0 -29.5 -5.5t-33.5 -20.5l-22 32q42 36 74.5 49t58.5 13q20 0 37.5 -5.5t33.5 -11.5l32 -11.5t33 -5.5q14 0 29 4.5t32 16.5z" />
    <glyph glyph-name="hungarumlaut" unicode="&#x2dd;" horiz-adv-x="499" 
d="M145 806l97 -22v-26l-155 -130l-27 16zM341 806l98 -29v-25l-224 -124l-23 18z" />
    <glyph glyph-name="acutecomb" unicode="&#x301;" horiz-adv-x="2" 
d="M-227 750h126v-41l-196 -117l-28 23z" />
    <glyph glyph-name="uni0394" unicode="&#x394;" horiz-adv-x="728" 
d="M22 0v32l329 668h33l322 -668v-32h-684zM344 559l-241 -497h469z" />
    <glyph glyph-name="uni0394" unicode="&#x2206;" horiz-adv-x="728" 
d="M22 0v32l329 668h33l322 -668v-32h-684zM344 559l-241 -497h469z" />
    <glyph glyph-name="uni03A9" unicode="&#x3a9;" horiz-adv-x="895" 
d="M63 0v146h64v-68h206q-50 16 -95 43.5t-79.5 65.5t-54.5 86t-20 106q0 75 26 136.5t74 105t117 67t155 23.5q87 0 153.5 -23t112 -65t69 -101.5t23.5 -132.5q0 -62 -22 -113t-57 -90.5t-78 -66.5t-85 -41h199v68h64v-146h-322v85q27 10 57.5 34t57 61t44 86.5t17.5 110.5
q0 58 -14 109.5t-43 90t-73 60.5t-103 22q-67 0 -114 -22t-76.5 -59t-43 -86t-13.5 -104q0 -62 18.5 -113t46.5 -90t60 -64.5t59 -35.5v-85h-330z" />
    <glyph glyph-name="uni03A9" unicode="&#x2126;" horiz-adv-x="895" 
d="M63 0v146h64v-68h206q-50 16 -95 43.5t-79.5 65.5t-54.5 86t-20 106q0 75 26 136.5t74 105t117 67t155 23.5q87 0 153.5 -23t112 -65t69 -101.5t23.5 -132.5q0 -62 -22 -113t-57 -90.5t-78 -66.5t-85 -41h199v68h64v-146h-322v85q27 10 57.5 34t57 61t44 86.5t17.5 110.5
q0 58 -14 109.5t-43 90t-73 60.5t-103 22q-67 0 -114 -22t-76.5 -59t-43 -86t-13.5 -104q0 -62 18.5 -113t46.5 -90t60 -64.5t59 -35.5v-85h-330z" />
    <glyph glyph-name="pi" unicode="&#x3c0;" horiz-adv-x="693" 
d="M626 50v-50h-186v458h-210v-197q0 -35 -3 -71t-9 -70t-14.5 -65t-18.5 -55h-120q22 39 42 96t35 121t24 127t9 114h-19q-32 0 -57 -15t-51 -47l-28 14q6 27 16 49.5t28 38.5t47.5 24.5t75.5 8.5q12 0 45.5 -1t78 -2t95 -2t96.5 -1q36 0 60 0.5t40.5 3.5t27.5 8.5t22 14.5
l16 -9q-5 -35 -29.5 -60t-72.5 -25h-14v-408h74z" />
    <glyph glyph-name="afii10023" unicode="&#x401;" horiz-adv-x="645" 
d="M564 700v-164h-64v86l-20 22h-245v-259h169l15 15v42h64v-171h-64v42l-15 16h-169v-273h262l20 20v98h64v-174h-549v56h91v588h-91v56h532zM133 796q0 29 18.5 43.5t46.5 14.5q29 0 48 -14.5t19 -43.5q0 -26 -19 -40t-48 -14q-28 0 -46.5 14t-18.5 40zM385 796
q0 29 19 43.5t46 14.5q29 0 48 -14.5t19 -43.5q0 -26 -19 -40t-48 -14q-27 0 -46 14t-19 40z" />
    <glyph glyph-name="afii10051" unicode="&#x402;" horiz-adv-x="842" 
d="M473 0h-295v56h105v588h-179l-20 -22v-129h-72v207h654v-207h-72v129l-20 22h-179v-255q31 15 81 30t115 15q46 0 85.5 -8.5t67.5 -30.5t44 -60t16 -98q0 -75 -17.5 -121.5t-48.5 -73t-74.5 -36t-94.5 -9.5l-4 37q27 5 50 16t40.5 33t27 56.5t9.5 87.5q0 70 -31 111.5
t-104 41.5q-47 0 -89 -11.5t-73 -28.5v-284h78v-56z" />
    <glyph glyph-name="afii10052" unicode="&#x403;" horiz-adv-x="557" 
d="M32 644v56h513v-207h-72v129l-20 22h-218v-588h108v-56h-311v56h91v588h-91zM404 914l123 -33v-40l-256 -72l-13 24z" />
    <glyph glyph-name="afii10053" unicode="&#x404;" horiz-adv-x="698" 
d="M569 184h64v-157q-31 -17 -82 -28t-101 -11q-92 0 -165 21t-123.5 65.5t-77.5 112.5t-27 163q0 98 30 166.5t81 112t118 63.5t141 20q36 0 65 -2.5t52.5 -7.5t43.5 -12t39 -15v-171h-64v105l-14 20q-11 5 -34.5 12t-75.5 7q-50 0 -94.5 -14.5t-78 -45.5t-55.5 -79.5
t-27 -116.5h336v-64h-338q6 -133 78.5 -204.5t197.5 -71.5q36 0 60.5 5.5t36.5 14.5l14 19v93z" />
    <glyph glyph-name="afii10054" unicode="&#x405;" horiz-adv-x="596" 
d="M126 98l18 -24q18 -13 49.5 -21.5t69.5 -8.5q36 0 66.5 7.5t53.5 22.5t36 38t13 55q0 41 -27.5 68t-68.5 48t-89 41t-89 47t-68.5 65t-27.5 96q0 85 64.5 132.5t174.5 47.5q69 0 119 -9t85 -24v-172h-64v108l-16 25q-19 8 -55 12t-71 4q-60 0 -94 -27.5t-34 -77.5
q0 -41 27.5 -68.5t68.5 -49.5t89 -42.5t89 -47t68.5 -63.5t27.5 -92q0 -97 -75 -148.5t-205 -51.5q-71 0 -123 15t-76 32v182h64v-119z" />
    <glyph glyph-name="afii10055" unicode="&#x406;" horiz-adv-x="398" 
d="M346 0h-294v56h91v588h-91v56h294v-56h-91v-588h91v-56z" />
    <glyph glyph-name="afii10056" unicode="&#x407;" horiz-adv-x="398" 
d="M32 789q0 25 18.5 37.5t46.5 12.5q29 0 48 -12.5t19 -37.5q0 -23 -19 -35t-48 -12q-28 0 -46.5 12t-18.5 35zM233 789q0 25 19 37.5t46 12.5q29 0 48 -12.5t19 -37.5q0 -23 -19 -35t-48 -12q-27 0 -46 12t-19 35zM346 0h-294v56h91v588h-91v56h294v-56h-91v-588h91v-56z
" />
    <glyph glyph-name="afii10057" unicode="&#x408;" horiz-adv-x="380" 
d="M36 -113q17 8 33 19.5t28.5 32t20 53.5t7.5 86v566h-83v56h286v-56h-91v-556q0 -71 -18.5 -116.5t-45.5 -73t-58 -40.5t-56 -18z" />
    <glyph glyph-name="afii10058" unicode="&#x409;" horiz-adv-x="1033" 
d="M616 417q20 3 49 5t52 2q56 0 106.5 -9t88.5 -32.5t60.5 -63.5t22.5 -101q0 -59 -23.5 -100.5t-64 -68.5t-94 -39.5t-114.5 -12.5q-5 0 -17 0.5t-28 1t-34.5 1t-35.5 0.5h-171v56h91v588h-209q-5 -141 -15.5 -235.5t-24 -159t-30.5 -106t-35 -75.5q-9 -17 -22 -34
l-27 -34h-116v126h116q15 25 30.5 66.5t27.5 104t19.5 148.5t7.5 199h-104v56h594v-56h-100v-227zM692 368q-27 0 -44.5 -1.5t-31.5 -4.5v-304q6 -2 16.5 -2.5t22.5 -1.5t23 -1h17q38 0 70 9t55.5 29t36.5 51.5t13 76.5q0 81 -44.5 115t-133.5 34z" />
    <glyph glyph-name="afii10059" unicode="&#x40a;" horiz-adv-x="1115" 
d="M697 397q20 3 49 5t52 2q55 0 105.5 -9t89 -31.5t61.5 -61t23 -97.5q0 -57 -25.5 -97t-67.5 -64.5t-95 -35.5t-108 -11q-6 0 -22 0.5t-37 1l-43 1t-39 0.5h-138v56h83v275h-350v-275h83v-56h-286v56h91v588h-91v56h286v-56h-83v-257h350v257h-83v56h296v-56h-101v-247z
M772 348q-26 0 -43.5 -1t-31.5 -5v-284q5 -2 15.5 -2.5t22.5 -1.5t23 -1h17q38 0 70.5 8.5t56 26.5t37 47t13.5 71q0 69 -44.5 105.5t-135.5 36.5z" />
    <glyph glyph-name="afii10060" unicode="&#x40b;" horiz-adv-x="886" 
d="M473 0h-295v56h105v588h-179l-20 -22v-129h-72v207h654v-207h-72v129l-20 22h-179v-256q31 16 76 30.5t108 14.5q47 0 85 -8t64.5 -29t40.5 -57t14 -92v-191h91v-56h-203v224q0 35 -5.5 63t-20 48t-38.5 31t-60 11q-48 0 -84.5 -12t-67.5 -29v-280h78v-56z" />
    <glyph glyph-name="afii10061" unicode="&#x40c;" horiz-adv-x="712" 
d="M300 382l218 262h-81v56h247v-56h-79l-238 -267l283 -321h62v-56h-161l-263 332h-53v-276h83v-56h-286v56h91v588h-91v56h286v-56h-83v-262h65zM459 914l123 -33v-40l-256 -72l-13 24z" />
    <glyph glyph-name="afii10062" unicode="&#x40e;" horiz-adv-x="742" 
d="M584 644h-93v56h251v-56h-81l-215 -443q-31 -63 -60.5 -114.5t-59.5 -86.5h-95v123h111q16 24 23 46l-280 475h-85v56h300v-56h-90l183 -326l23 -64h2l23 66zM397 743q-103 0 -152 34t-49 104h116v-79q14 -7 37 -10.5t49 -3.5q19 0 45 3t41 8v82h111q0 -69 -46.5 -103.5
t-151.5 -34.5z" />
    <glyph glyph-name="afii10145" unicode="&#x40f;" horiz-adv-x="808" 
d="M573 56v588h-83v56h286v-56h-91v-588h91v-56h-332v-200h-80v200h-332v56h91v588h-91v56h286v-56h-83v-588h338z" />
    <glyph glyph-name="afii10017" unicode="&#x410;" horiz-adv-x="755" 
d="M245 0h-245v56h78l259 644h106l237 -644h75v-56h-286v56h89l-65 176h-266l-68 -176h86v-56zM250 288h226l-82 231l-25 106h-4l-29 -108z" />
    <glyph glyph-name="afii10018" unicode="&#x411;" horiz-adv-x="665" 
d="M235 407q20 2 49.5 4.5t52.5 2.5q55 0 105.5 -10.5t89.5 -34.5t62 -63.5t23 -97.5q0 -55 -24 -94.5t-65 -65.5t-94.5 -38.5t-113.5 -12.5q-6 0 -23 0.5t-38.5 1l-44.5 1t-40 0.5h-142v56h91v588h-91v56h537v-183h-72v105l-20 22h-242v-237zM311 358q-26 0 -44 -1t-32 -5
v-294q5 -2 16 -2.5t23 -1.5t23 -1h17q39 0 71.5 9t56 28.5t37 48.5t13.5 70q0 73 -45 111t-136 38z" />
    <glyph glyph-name="afii10019" unicode="&#x412;" horiz-adv-x="690" 
d="M32 0v56h91v588h-91v56h131q21 0 40 1t40 2t45.5 2t54.5 1q44 0 90 -6.5t83 -24.5t60.5 -50.5t23.5 -84.5q0 -27 -9.5 -53t-28 -48t-46.5 -39t-65 -25v-4q33 -5 66 -17t59.5 -32.5t42.5 -50.5t16 -72q0 -54 -26.5 -93t-69.5 -64t-97.5 -36.5t-110.5 -11.5q-39 0 -87.5 3
t-93.5 3h-118zM339 50q39 0 72.5 10.5t57.5 29.5t37.5 45.5t13.5 58.5q0 40 -16.5 66.5t-44 42t-64.5 21.5t-78 6h-82v-271q15 -4 36.5 -6.5t67.5 -2.5zM289 382q20 0 44.5 1.5t41.5 3.5q51 16 82 51.5t31 83.5q0 66 -42 97t-114 31q-34 0 -57.5 -1.5t-39.5 -3.5v-263h54z
" />
    <glyph glyph-name="afii10020" unicode="&#x413;" horiz-adv-x="557" 
d="M32 644v56h513v-207h-72v129l-20 22h-218v-588h108v-56h-311v56h91v588h-91z" />
    <glyph glyph-name="afii10021" unicode="&#x414;" horiz-adv-x="769" 
d="M729 644h-91v-588h104v-218h-75v140l-20 22h-542l-20 -22v-140h-75v218h98q28 42 53 108t43.5 144.5t29.5 165t11 170.5h-108v56h592v-56zM526 56v588h-212q-6 -123 -20.5 -218.5t-33 -167.5t-39 -121.5t-36.5 -80.5h341z" />
    <glyph glyph-name="afii10022" unicode="&#x415;" horiz-adv-x="645" 
d="M564 700v-164h-64v86l-20 22h-245v-259h169l15 15v42h64v-171h-64v42l-15 16h-169v-273h262l20 20v98h64v-174h-549v56h91v588h-91v56h532z" />
    <glyph glyph-name="afii10024" unicode="&#x416;" horiz-adv-x="1053" 
d="M403 332l-250 -332h-153v56h60l133 156l48.5 57l42.5 50l30.5 35.5l11.5 13.5l-223 276h-78v56h249v-56h-75l195 -262h75v262h-77v56h262v-56h-77v-262h79l196 262h-80v56h249v-56h-85l-215 -268l272 -320h60v-56h-153l-255 332h-68v-276h77v-56h-262v56h77v276h-66z" />
    <glyph glyph-name="afii10025" unicode="&#x417;" horiz-adv-x="611" 
d="M261 -12q-62 0 -115 11t-91 28v167h64v-112l15 -19q9 -5 24.5 -8.5t33 -6t35.5 -3.5t32 -1q41 0 74.5 11t57 31t36.5 47.5t13 60.5q0 39 -13.5 65t-36 41.5t-52.5 21.5t-63 6h-87v64h127q51 16 78 49t27 81q0 65 -40.5 99.5t-114.5 34.5q-33 0 -64.5 -6t-44.5 -14
l-13 -19v-99h-64v153q18 12 41 19.5t48.5 12.5t51.5 7t50 2q46 0 92.5 -7t84 -26.5t61.5 -53t24 -85.5q0 -51 -33.5 -96t-105.5 -69v-4q34 -5 63.5 -17.5t51.5 -33t34.5 -50.5t12.5 -71q0 -54 -24 -94t-64.5 -66t-93.5 -38.5t-112 -12.5z" />
    <glyph glyph-name="afii10026" unicode="&#x418;" horiz-adv-x="833" 
d="M318 0h-286v56h91v588h-91v56h286v-56h-83v-429l-12 -75l54 79l327 403v22h-91v56h288v-56h-91v-588h91v-56h-288v56h85v428l11 75l-49 -75l-332 -408v-20h90v-56z" />
    <glyph glyph-name="afii10027" unicode="&#x419;" horiz-adv-x="833" 
d="M318 0h-286v56h91v588h-91v56h286v-56h-83v-429l-12 -75l54 79l327 403v22h-91v56h288v-56h-91v-588h91v-56h-288v56h85v428l11 75l-49 -75l-332 -408v-20h90v-56zM422 743q-103 0 -152 34t-49 104h116v-79q14 -7 37 -10.5t49 -3.5q19 0 45 3t41 8v82h111
q0 -69 -46.5 -103.5t-151.5 -34.5z" />
    <glyph glyph-name="afii10028" unicode="&#x41a;" horiz-adv-x="712" 
d="M300 382l218 262h-81v56h247v-56h-79l-238 -267l283 -321h62v-56h-161l-263 332h-53v-276h83v-56h-286v56h91v588h-91v56h286v-56h-83v-262h65z" />
    <glyph glyph-name="afii10029" unicode="&#x41b;" horiz-adv-x="739" 
d="M295 644q-5 -141 -15.5 -235.5t-24 -159t-30.5 -106t-35 -75.5q-9 -17 -22 -34l-27 -34h-116v126h116q15 25 30.5 66.5t27.5 104t19.5 148.5t7.5 199h-104v56h585v-56h-91v-588h91v-56h-289v56h86v588h-209z" />
    <glyph glyph-name="afii10030" unicode="&#x41c;" horiz-adv-x="984" 
d="M32 644v56h228l236 -448l241 448h215v-56h-91v-588h91v-56h-290v56h91v446q1 5 1.5 23.5t1.5 39.5q1 25 2 54h-9l-43 -107l-205 -362h-61l-200 362l-44 117h-10v-62q0 -23 0.5 -43.5t0.5 -21.5v-446h85v-56h-240v56h91v588h-91z" />
    <glyph glyph-name="afii10031" unicode="&#x41d;" horiz-adv-x="820" 
d="M318 56v-56h-286v56h91v588h-91v56h286v-56h-83v-257h350v257h-83v56h286v-56h-91v-588h91v-56h-286v56h83v275h-350v-275h83z" />
    <glyph glyph-name="afii10032" unicode="&#x41e;" horiz-adv-x="830" 
d="M57 350q0 78 24 144.5t69.5 115t112 75.5t151.5 27t152 -27t113 -75.5t70 -115t24 -144.5t-24 -144.5t-70 -115t-113 -75.5t-152 -27t-151.5 27t-112 75.5t-69.5 115t-24 144.5zM182 350q0 -64 14.5 -120t44.5 -97t75.5 -65t107.5 -24q57 0 99 24t69.5 65t41.5 97t14 120
t-14.5 120t-44.5 97t-75.5 65t-108.5 24q-60 0 -102.5 -24t-69.5 -65t-39 -97t-12 -120z" />
    <glyph glyph-name="afii10033" unicode="&#x41f;" horiz-adv-x="808" 
d="M235 644v-588h83v-56h-286v56h91v588h-91v56h744v-56h-91v-588h91v-56h-286v56h83v588h-338z" />
    <glyph glyph-name="afii10034" unicode="&#x420;" horiz-adv-x="667" 
d="M32 644v56h104q45 0 97.5 4t101.5 4q55 0 108 -10.5t94 -35.5t66.5 -66.5t25.5 -103.5q0 -59 -26 -101.5t-68.5 -69.5t-98 -40t-114.5 -13h-18t-25.5 0.5t-25.5 1.5t-18 2v-216h100v-56h-303v56h91v588h-91zM235 329q5 -2 15.5 -2.5t22.5 -1.5t23.5 -1h17.5
q39 0 73.5 9.5t60.5 29.5t41 52t15 77q0 82 -51.5 121t-140.5 39q-27 0 -45 -1.5t-32 -4.5v-317z" />
    <glyph glyph-name="afii10035" unicode="&#x421;" horiz-adv-x="699" 
d="M569 184h64v-157q-31 -17 -82 -28t-101 -11q-92 0 -165 21t-123.5 65.5t-77.5 112.5t-27 163q0 98 30 166.5t81 112t118 63.5t141 20q36 0 65 -2.5t52.5 -7.5t43.5 -12t39 -15v-171h-64v105l-14 20q-11 5 -34.5 12t-75.5 7q-54 0 -101 -17t-81.5 -53t-54.5 -92.5
t-20 -135.5q0 -143 72.5 -220.5t203.5 -77.5q36 0 60.5 5.5t36.5 14.5l14 19v93z" />
    <glyph glyph-name="afii10036" unicode="&#x422;" horiz-adv-x="698" 
d="M508 0h-318v56h103v588h-179l-20 -22v-129h-72v207h654v-207h-72v129l-20 22h-179v-588h103v-56z" />
    <glyph glyph-name="afii10037" unicode="&#x423;" horiz-adv-x="742" 
d="M584 644h-93v56h251v-56h-81l-215 -443q-31 -63 -60.5 -114.5t-59.5 -86.5h-95v123h111q16 24 23 46l-280 475h-85v56h300v-56h-90l183 -326l23 -64h2l23 66z" />
    <glyph glyph-name="afii10038" unicode="&#x424;" horiz-adv-x="885" 
d="M317 603q15 0 37.5 -1t36.5 -3v45h-78v56h259v-56h-78v-48q20 4 48.5 5.5t47.5 1.5q54 0 101 -15t81.5 -44.5t54.5 -73t20 -100.5q0 -64 -24.5 -113t-64 -82t-89 -50t-99.5 -17q-6 0 -16 0.5l-21 1t-21.5 2t-17.5 3.5v-59h78v-56h-259v56h78v57q-22 -3 -48 -4t-48 -1
q-45 0 -91 15t-83 46t-60 78.5t-23 112.5q0 60 23 105.5t61.5 76t89 46t105.5 15.5zM553 549q-17 0 -31 -1t-29 -5v-378q11 -2 27 -2.5t26 -0.5q36 0 69 12.5t57.5 38t39.5 64.5t15 93q0 91 -44.5 135t-129.5 44zM338 162q14 0 26 1t28 4v379q-29 3 -54 3q-35 0 -67 -9.5
t-57.5 -31.5t-40.5 -58.5t-15 -89.5q0 -47 13 -83.5t37 -62t57 -39t73 -13.5z" />
    <glyph glyph-name="afii10039" unicode="&#x425;" horiz-adv-x="756" 
d="M449 700h252v-56h-82l-196 -269l230 -319h91v-56h-291v56h73l-176 247l-166 -247h77v-56h-251v56h84l219 296l-210 292h-89v56h298v-56h-80l155 -223l150 223h-88v56z" />
    <glyph glyph-name="afii10040" unicode="&#x426;" horiz-adv-x="809" 
d="M569 56v588h-83v56h286v-56h-91v-588h111v-218h-69v140l-20 22h-671v56h91v588h-91v56h286v-56h-83v-588h334z" />
    <glyph glyph-name="afii10041" unicode="&#x427;" horiz-adv-x="748" 
d="M625 56h91v-56h-307v56h104v254q-31 -16 -81 -30.5t-115 -14.5q-47 0 -86 8t-67.5 29t-44.5 57t-16 92v193h-91v56h276v-56h-73v-170q0 -70 31 -111.5t105 -41.5q47 0 89 12t73 29v282h-83v56h286v-56h-91v-588z" />
    <glyph glyph-name="afii10042" unicode="&#x428;" horiz-adv-x="1074" 
d="M32 644v56h275v-56h-72v-588h246v588h-72v56h256v-56h-72v-588h246v588h-72v56h275v-56h-91v-588h91v-56h-1010v56h91v588h-91z" />
    <glyph glyph-name="afii10043" unicode="&#x429;" horiz-adv-x="1080" 
d="M32 644v56h275v-56h-72v-588h246v588h-72v56h256v-56h-72v-588h246v588h-72v56h275v-56h-91v-588h112v-218h-69v140l-20 22h-942v56h91v588h-91z" />
    <glyph glyph-name="afii10044" unicode="&#x42a;" horiz-adv-x="803" 
d="M371 417q20 3 49 5t52 2q56 0 109 -9t94 -32.5t65.5 -63.5t24.5 -101q0 -59 -26 -100.5t-69 -68.5t-99 -39.5t-117 -12.5q-5 0 -21.5 0.5t-37.5 1l-43.5 1t-39.5 0.5h-144v56h91v588h-155l-20 -22v-129h-64v207h451v-56h-100v-227zM447 368q-27 0 -44.5 -1.5t-31.5 -4.5
v-304q6 -2 16.5 -2.5t22.5 -1.5t23 -1h17q38 0 72.5 9t60.5 29t41.5 51.5t15.5 76.5q0 40 -13.5 68.5t-38.5 46.5t-61 26t-80 8z" />
    <glyph glyph-name="afii10045" unicode="&#x42b;" horiz-adv-x="953" 
d="M32 644v56h302v-56h-99v-227q22 3 50 5t51 2q55 0 105.5 -9t89 -32t61.5 -63t23 -102q0 -59 -25.5 -100.5t-67.5 -68.5t-95.5 -39.5t-108.5 -12.5q-5 0 -21 0.5t-37 1l-43 1t-39 0.5h-146v56h91v588h-91zM631 644v56h290v-56h-91v-588h91v-56h-290v56h87v588h-87z
M310 368q-26 0 -43.5 -1.5t-31.5 -4.5v-304q5 -2 15.5 -2.5t22.5 -1.5t23 -1h17q39 0 71.5 10t56 30.5t36.5 52t13 73.5q0 149 -180 149z" />
    <glyph glyph-name="afii10046" unicode="&#x42c;" horiz-adv-x="667" 
d="M235 417q20 3 49 5t52 2q56 0 109 -9t94 -32.5t65.5 -63.5t24.5 -101q0 -59 -26 -100.5t-69 -68.5t-99 -39.5t-117 -12.5q-5 0 -21.5 0.5t-37.5 1l-43.5 1t-39.5 0.5h-144v56h91v588h-91v56h303v-56h-100v-227zM311 368q-27 0 -44.5 -1.5t-31.5 -4.5v-304q6 -2 16.5 -2.5
t22.5 -1.5t23 -1h17q38 0 72.5 9t60.5 29t41.5 51.5t15.5 76.5q0 40 -13.5 68.5t-38.5 46.5t-61 26t-80 8z" />
    <glyph glyph-name="afii10047" unicode="&#x42d;" horiz-adv-x="686" 
d="M202 328v64h305q-18 256 -264 256q-33 0 -57 -6t-35 -13l-14 -20v-92h-64v154q36 23 85.5 32t97.5 9q88 0 157 -20.5t117 -64t73.5 -110.5t25.5 -159q0 -95 -29.5 -164.5t-79 -115.5t-115.5 -68t-138 -22q-36 0 -65.5 2t-53.5 6.5t-44 11t-39 15.5v173h64v-105l15 -21
q14 -7 42.5 -12.5t55.5 -5.5q50 0 97.5 15t84.5 48t59.5 85.5t23.5 127.5h-305z" />
    <glyph glyph-name="afii10048" unicode="&#x42e;" horiz-adv-x="1088" 
d="M32 644v56h288v-56h-85v-257h132q4 69 27 128.5t64.5 103t101 68.5t136.5 25q84 0 147 -27t104.5 -75.5t62.5 -115t21 -144.5q0 -77 -21 -143.5t-63 -115t-105 -76t-146 -27.5t-144 25.5t-101.5 71t-61.5 108.5t-23 138h-131v-275h85v-56h-288v56h91v588h-91zM487 350
q0 -65 11.5 -121t37.5 -97t68 -64.5t102 -23.5q56 0 94.5 24t62 65t33.5 97t10 120t-11 120t-36.5 97t-67.5 65t-105 24q-60 0 -98.5 -24t-61 -65t-31 -97t-8.5 -120z" />
    <glyph glyph-name="afii10049" unicode="&#x42f;" horiz-adv-x="710" 
d="M678 700v-56h-91v-588h91v-56h-300v56h97v236h-112l-191 -292h-162v56h62l190 243q-35 8 -65 24t-52.5 40.5t-35.5 57.5t-13 75q0 55 26 94.5t69.5 64.5t100 36.5t116.5 11.5q23 0 56.5 -1.5t68.5 -1.5h145zM398 344q20 0 41.5 1.5t35.5 4.5v292q-11 2 -31 3.5t-37 1.5
q-85 0 -135.5 -34.5t-50.5 -116.5q0 -75 43.5 -113.5t133.5 -38.5z" />
    <glyph glyph-name="afii10065" unicode="&#x430;" horiz-adv-x="569" 
d="M464 139q0 -23 1 -46.5t3 -42.5h66v-50h-157l-10 95h-5q-5 -20 -18.5 -39t-34 -34t-48.5 -24t-62 -9t-62.5 10t-49.5 28t-32.5 43.5t-11.5 57.5q0 49 20.5 81t60.5 50.5t100 26.5t140 9q2 16 2 30.5v28.5q0 62 -21 94.5t-75 32.5q-20 0 -43 -2t-42 -12v-92h-90v111
q36 19 85 34t115 15q57 0 91.5 -14.5t53 -38t24 -53t5.5 -58.5q0 -63 -2.5 -120.5t-2.5 -111.5zM245 56q24 0 43 7.5t33.5 19t25 25.5t17.5 27v119q-65 0 -105.5 -8.5t-63.5 -22.5t-31.5 -33.5t-8.5 -41.5q0 -45 24 -68.5t66 -23.5z" />
    <glyph glyph-name="afii10066" unicode="&#x431;" horiz-adv-x="608" 
d="M45 276q0 134 26.5 221t78 137.5t127.5 70t175 19.5v36h64v-132h-137q-56 0 -104 -10.5t-84 -38t-59 -75t-27 -121.5h6q27 55 86 92t139 37q105 0 166 -62.5t61 -184.5q0 -61 -18 -111.5t-52.5 -87t-84 -56.5t-112.5 -20q-56 0 -102.5 19t-79.5 55.5t-51 90t-18 121.5z
M158 275q0 -66 12 -111t33.5 -73.5t50 -41t61.5 -12.5q66 0 100.5 55t34.5 160q0 52 -11.5 89t-31 61t-45.5 35t-56 11q-51 0 -85 -15.5t-52 -35.5q-6 -27 -8.5 -56t-2.5 -66z" />
    <glyph glyph-name="afii10067" unicode="&#x432;" horiz-adv-x="595" 
d="M542 153q0 -42 -20 -71.5t-53.5 -48.5t-78.5 -28t-94 -9q-36 0 -58 0.5t-36.5 1.5t-25 1.5t-23.5 0.5h-110v50h74v425h-74v50h104q26 0 45.5 0.5t37 1.5t34 1.5t37.5 0.5q98 0 154 -27.5t56 -97.5q0 -25 -11.5 -45.5t-30 -35.5t-41 -25t-43.5 -14q31 -3 59.5 -12
t50.5 -25t34.5 -39.5t12.5 -54.5zM222 47q16 -3 39 -3.5t39 -0.5q65 0 97 27t32 76q0 51 -38.5 76t-99.5 25h-69v-200zM222 288h123q10 4 20.5 13.5t19.5 22.5t15 30.5t6 38.5q0 51 -32.5 70t-95.5 19q-12 0 -28.5 -0.5t-27.5 -3.5v-190z" />
    <glyph glyph-name="afii10068" unicode="&#x433;" horiz-adv-x="486" 
d="M461 525v-175h-64v105l-20 20h-155v-425h101v-50h-280v50h74v425h-74v50h418z" />
    <glyph glyph-name="afii10069" unicode="&#x434;" horiz-adv-x="645" 
d="M111 0l-20 -20v-130h-72v200h67q13 15 30 44t32 79t25.5 124t10.5 178h-78v50h481v-50h-74v-425h90v-200h-72v130l-20 20h-400zM248 472q-1 -95 -11 -165t-24 -120.5t-29.5 -83.5t-27.5 -53h252v422h-160z" />
    <glyph glyph-name="afii10070" unicode="&#x435;" horiz-adv-x="566" 
d="M499 69q-26 -37 -73.5 -58.5t-110.5 -21.5q-66 0 -116.5 19.5t-84.5 55t-51.5 86t-17.5 112.5q0 134 67 203.5t188 69.5q40 0 78.5 -10t68.5 -33t48.5 -61t18.5 -94q0 -17 -2 -36t-6 -40h-348q0 -44 11.5 -80t35 -62t58.5 -40.5t83 -14.5q39 0 72.5 13t53.5 30zM296 488
q-31 0 -54.5 -9t-40.5 -30t-27 -55.5t-13 -85.5h241q1 9 1.5 18.5t0.5 17.5q0 66 -26.5 105t-81.5 39z" />
    <glyph glyph-name="afii10072" unicode="&#x436;" horiz-adv-x="814" 
d="M594 525h199v-50h-63l-146 -183l183 -242h47v-50h-136l-167 244h-54v-194h59v-50h-218v50h59v194h-59l-161 -244h-137v50h52l176 238l-154 187h-52v50h196v-50h-59l142 -191h56v191h-59v50h218v-50h-59v-191h56l140 191h-59v50z" />
    <glyph glyph-name="afii10073" unicode="&#x437;" horiz-adv-x="532" 
d="M244 44q29 0 51 9t37 24t22.5 34t7.5 38q0 46 -23 64.5t-63 24.5h-105v54h113q10 4 21 12.5t20.5 21.5t15.5 30t6 39q0 50 -29 68t-78 18q-25 0 -44 -2t-25 -5l-19 -22v-87h-64v134q23 12 61.5 24t109.5 12q93 0 143 -29.5t50 -90.5q0 -26 -11 -47t-29 -37.5t-40 -28
t-44 -17.5q31 -3 57.5 -12.5t46.5 -25.5t31.5 -39t11.5 -52q0 -42 -16.5 -73t-46.5 -51.5t-72 -31t-94 -10.5q-58 0 -102.5 18.5t-73.5 44.5v100h64v-69l17 -22q11 -7 33 -12.5t60 -5.5z" />
    <glyph glyph-name="afii10074" unicode="&#x438;" horiz-adv-x="691" 
d="M43 525h240v-50h-66v-308l-6 -108h6l38 89l198 377h195v-50h-74v-425h74v-50h-240v50h66v320l11 103h-6l-42 -99l-201 -374h-193v50h74v425h-74v50z" />
    <glyph glyph-name="afii10075" unicode="&#x439;" horiz-adv-x="691" 
d="M43 525h240v-50h-66v-308l-6 -108h6l38 89l198 377h195v-50h-74v-425h74v-50h-240v50h66v320l11 103h-6l-42 -99l-201 -374h-193v50h74v425h-74v50zM357 588q-36 0 -68 6.5t-56.5 18t-41 26t-22.5 31.5v58h114v-79q13 -9 31 -12.5t44 -3.5q27 0 43.5 2.5t32.5 10.5v82
h109v-58q-3 -17 -19 -32t-41.5 -26t-57.5 -17.5t-68 -6.5z" />
    <glyph glyph-name="afii10076" unicode="&#x43a;" horiz-adv-x="610" 
d="M367 525h207v-50h-64l-155 -179l204 -246h50v-50h-144l-186 248h-57v-198h72v-50h-251v50h74v425h-74v50h235v-50h-56v-186h52l156 186h-63v50z" />
    <glyph glyph-name="afii10077" unicode="&#x43b;" horiz-adv-x="612" 
d="M116 107q19 25 32 66.5t21 91.5t11.5 104.5t3.5 105.5h-78v50h463v-50h-74v-425h74v-50h-245v50h66v425h-146q-1 -94 -11.5 -172t-28.5 -138.5t-41.5 -102t-50.5 -62.5h-90v107h94z" />
    <glyph glyph-name="afii10078" unicode="&#x43c;" horiz-adv-x="828" 
d="M239 0h-200v50h74v425h-71v50h222l145 -322h3l150 322h217v-50h-74v-425h74v-50h-240v50h66v425h-9l-192 -405h-31l-191 405h-9v-425h66v-50z" />
    <glyph glyph-name="afii10079" unicode="&#x43d;" horiz-adv-x="689" 
d="M288 0h-245v50h74v425h-74v50h245v-50h-66v-182h245v182h-66v50h245v-50h-74v-425h74v-50h-245v50h66v189h-245v-189h66v-50z" />
    <glyph glyph-name="afii10080" unicode="&#x43e;" horiz-adv-x="622" 
d="M45 262q0 66 19 117t53.5 85.5t84 52.5t109.5 18q70 0 120.5 -19.5t82.5 -55t47.5 -86t15.5 -112.5q0 -66 -18.5 -116.5t-53 -85t-84 -52.5t-110.5 -18q-68 0 -118 19.5t-83 55t-49 85.5t-16 112zM158 262q0 -48 9 -89t29.5 -71t53 -47.5t79.5 -17.5q59 0 97 54t38 171
q0 48 -9 89.5t-28.5 72t-50 47.5t-74.5 17q-66 0 -105 -54t-39 -172z" />
    <glyph glyph-name="afii10081" unicode="&#x43f;" horiz-adv-x="688" 
d="M288 0h-245v50h74v425h-74v50h602v-50h-74v-425h74v-50h-245v50h66v425h-244v-425h66v-50z" />
    <glyph glyph-name="afii10082" unicode="&#x440;" horiz-adv-x="636" 
d="M287 -200h-253v50h74v625h-74v50h179v-105h1q22 53 62.5 84t106.5 31q99 0 153.5 -61t54.5 -200q0 -66 -18.5 -119t-53 -90t-83 -56.5t-108.5 -19.5q-20 0 -35.5 1t-28.5 3t-25.5 6t-25.5 9v-158h74v-50zM344 468q-54 0 -85.5 -30.5t-45.5 -86.5v-293q20 -13 44.5 -17.5
t65.5 -4.5q37 0 66 17.5t49 49t30.5 75t10.5 96.5q0 43 -7 78.5t-22.5 61t-41.5 40t-64 14.5z" />
    <glyph glyph-name="afii10083" unicode="&#x441;" horiz-adv-x="523" 
d="M482 67q-21 -29 -66.5 -53.5t-107.5 -24.5q-66 0 -115.5 19.5t-82.5 55t-49 86t-16 112.5q0 133 70.5 203t191.5 70q55 0 91 -7t66 -22v-130h-90v96q-15 9 -60 9q-38 0 -67 -11t-49 -36t-30 -67t-10 -103q0 -40 11 -76.5t33 -64t55.5 -43.5t78.5 -16q24 0 42.5 5
t32.5 10.5t25 12.5t21 15z" />
    <glyph glyph-name="afii10084" unicode="&#x442;" horiz-adv-x="559" 
d="M406 0h-253v50h74v425h-102l-20 -20v-105h-64v175h477v-175h-64v105l-20 20h-102v-425h74v-50z" />
    <glyph glyph-name="afii10085" unicode="&#x443;" horiz-adv-x="568" 
d="M47 475h-59v50h258v-50h-84l136 -332l20 -76h5l19 77l107 331h-61v50h192v-50h-64l-164 -475q-14 -41 -30.5 -75.5t-32 -61t-30 -43t-24.5 -20.5h-101v90h102q7 8 13 16t12 20t13 29.5t16 44.5h-37z" />
    <glyph glyph-name="afii10086" unicode="&#x444;" horiz-adv-x="816" 
d="M532 -200h-248v50h74v178q-17 -18 -41.5 -28.5t-56.5 -10.5q-48 0 -87.5 15t-68 46t-44 79t-15.5 115q0 75 16 130t45.5 90.5t71.5 53t94 17.5q28 0 51.5 -11t34.5 -22v198h-86v50h186v-254q17 17 45 28t59 11q47 0 85.5 -14.5t66 -44t42.5 -75t15 -107.5
q0 -80 -17 -137.5t-46.5 -95t-70.5 -55t-89 -17.5q-27 0 -51.5 9t-38.5 23v-171h74v-50zM286 43q18 0 38 5t35 19v396q-14 9 -30 13.5t-45 4.5q-28 0 -51.5 -11t-41 -34.5t-27 -60.5t-9.5 -90q0 -71 10 -117.5t27.5 -74.5t41.5 -39t52 -11zM534 481q-23 0 -42.5 -4.5
t-34.5 -17.5v-397q14 -11 30.5 -15t43.5 -4q25 0 48.5 11t41.5 36.5t29 66.5t11 100q0 64 -8 107.5t-24 69t-40 36.5t-55 11z" />
    <glyph glyph-name="afii10087" unicode="&#x445;" horiz-adv-x="584" 
d="M337 281l177 -231h59v-50h-244v50h67l-123 174l-124 -174h55v-50h-193v50h63l167 210l-168 215h-55v50h240v-50h-65l115 -159l112 159h-55v50h188v-50h-62z" />
    <glyph glyph-name="afii10088" unicode="&#x446;" horiz-adv-x="691" 
d="M43 0v50h74v425h-74v50h245v-50h-66v-425h233v425h-66v50h245v-50h-74v-425h97v-200h-64v130l-20 20h-530z" />
    <glyph glyph-name="afii10089" unicode="&#x447;" horiz-adv-x="629" 
d="M16 525h244v-50h-65v-130q0 -48 22 -77.5t74 -29.5q31 0 60.5 10t55.5 25v202h-65v50h244v-50h-74v-425h74v-50h-269v50h90v188q-27 -27 -64.5 -44.5t-92.5 -17.5q-76 0 -118 40t-42 108v151h-74v50z" />
    <glyph glyph-name="afii10090" unicode="&#x448;" horiz-adv-x="939" 
d="M717 50v425h-61v50h240v-50h-74v-425h74v-50h-853v50h74v425h-74v50h238v-50h-59v-425h195v425h-59v50h223v-50h-59v-425h195z" />
    <glyph glyph-name="afii10091" unicode="&#x449;" horiz-adv-x="952" 
d="M43 0v50h74v425h-74v50h238v-50h-59v-425h195v425h-59v50h223v-50h-59v-425h195v425h-61v50h240v-50h-74v-425h97v-200h-64v128l-20 22h-792z" />
    <glyph glyph-name="afii10092" unicode="&#x44a;" horiz-adv-x="651" 
d="M300 47q14 -1 28.5 -2.5t29.5 -1.5q65 0 101.5 30t36.5 95q0 30 -10 50t-27 32.5t-39.5 17.5t-47.5 5q-19 0 -37 -1t-35 -4v-221zM367 525v-50h-67v-163q19 2 43 5t69 3q92 0 144.5 -37t52.5 -116q0 -42 -17 -73.5t-47.5 -53.5t-73 -33t-92.5 -11q-31 0 -70 2t-82 2h-106
v50h74v425h-92l-20 -20v-104h-64v174h348z" />
    <glyph glyph-name="afii10093" unicode="&#x44b;" horiz-adv-x="842" 
d="M222 312q18 2 42 5t69 3q85 0 135.5 -37t50.5 -116q0 -42 -16 -73.5t-45 -53.5t-69.5 -33t-89.5 -11q-30 0 -69.5 2t-82.5 2h-104v50h74v425h-74v50h246v-50h-67v-163zM222 47q14 -1 29 -2.5t29 -1.5q126 0 126 125q0 30 -10 50t-26 32t-37.5 17.5t-43.5 5.5
q-15 0 -32.5 -1t-34.5 -4v-221zM799 0h-245v50h66v425h-67v50h246v-50h-74v-425h74v-50z" />
    <glyph glyph-name="afii10094" unicode="&#x44c;" horiz-adv-x="572" 
d="M222 312q18 2 42.5 5t69.5 3q92 0 144 -37t52 -116q0 -42 -17 -73.5t-47.5 -53.5t-72.5 -33t-93 -11q-30 0 -70 2t-83 2h-104v50h74v425h-74v50h246v-50h-67v-163zM222 47q14 -1 29 -2.5t29 -1.5q64 0 100.5 30t36.5 95q0 30 -10 50t-27 32t-40 17.5t-48 5.5
q-17 0 -35 -1t-35 -4v-221z" />
    <glyph glyph-name="afii10095" unicode="&#x44d;" horiz-adv-x="552" 
d="M241 -10q-58 0 -100 18.5t-71 44.5v100h64v-68l15 -20q11 -6 32.5 -13.5t56.5 -7.5q75 0 115.5 51.5t40.5 141.5h-224v54h223q-2 56 -14 93t-33 59.5t-50 31.5t-63 9t-50 -4t-25 -8l-17 -20v-97h-64v143q15 8 31 15t36.5 12.5t46.5 9t62 3.5q54 0 100 -14t80.5 -45
t54 -82t19.5 -124q0 -75 -23 -128.5t-60.5 -88t-85 -50.5t-97.5 -16z" />
    <glyph glyph-name="afii10096" unicode="&#x44e;" horiz-adv-x="886" 
d="M288 0h-245v50h74v425h-74v50h245v-50h-66v-182h110q3 58 22 103.5t52 76t78.5 46.5t100.5 16q127 0 191.5 -69.5t64.5 -206.5q0 -127 -66 -198.5t-190 -71.5q-54 0 -99.5 14.5t-79 45t-53 77.5t-21.5 113h-110v-189h66v-50zM442 262q0 -56 12 -98.5t32.5 -71t48 -42.5
t57.5 -14q72 0 104 59t32 167q0 115 -35.5 170.5t-112.5 55.5q-66 0 -102 -59.5t-36 -166.5z" />
    <glyph glyph-name="afii10097" unicode="&#x44f;" horiz-adv-x="597" 
d="M71 371q0 35 12.5 64.5t38.5 50.5t67.5 33t99.5 12q13 0 37.5 -1t51.5 -2l52 -2t40 -1h84v-50h-74v-425h74v-50h-245v50h66v166h-70l-151 -216h-154v50h56l148 171q-23 4 -46.5 15.5t-42.5 30.5t-31.5 45t-12.5 59zM375 478q-14 2 -37 4t-37 2q-34 0 -57 -8t-37 -22.5
t-20 -35t-6 -45.5q0 -51 40 -83.5t125 -32.5h29v221z" />
    <glyph glyph-name="afii10071" unicode="&#x451;" horiz-adv-x="566" 
d="M499 69q-26 -37 -73.5 -58.5t-110.5 -21.5q-66 0 -116.5 19.5t-84.5 55t-51.5 86t-17.5 112.5q0 134 67 203.5t188 69.5q40 0 78.5 -10t68.5 -33t48.5 -61t18.5 -94q0 -17 -2 -36t-6 -40h-348q0 -44 11.5 -80t35 -62t58.5 -40.5t83 -14.5q39 0 72.5 13t53.5 30zM296 488
q-31 0 -54.5 -9t-40.5 -30t-27 -55.5t-13 -85.5h241q1 9 1.5 18.5t0.5 17.5q0 66 -26.5 105t-81.5 39zM106 688q0 29 17.5 46.5t46.5 17.5t46.5 -17.5t17.5 -46.5q0 -27 -17.5 -44.5t-46.5 -17.5t-46.5 17.5t-17.5 44.5zM352 688q0 29 18.5 46.5t46.5 17.5q29 0 46 -17.5
t17 -46.5q0 -27 -17 -44.5t-46 -17.5q-28 0 -46.5 17.5t-18.5 44.5z" />
    <glyph glyph-name="afii10099" unicode="&#x452;" horiz-adv-x="648" 
d="M25 633h75v67h-85v50h190v-117h196v-55h-196v-195h1q23 49 72.5 82.5t118.5 33.5q39 0 71 -9.5t54 -34.5t34 -67t12 -107v-231q-2 -71 -23 -118t-48.5 -76t-55 -43t-43.5 -19l-29 47q13 6 29.5 18t30.5 34.5t24 58t10 90.5v218q0 83 -22 127.5t-78 44.5q-30 0 -56 -10
t-46 -26t-34.5 -35.5t-21.5 -38.5v-272h66v-50h-245v50h74v528h-75v55z" />
    <glyph glyph-name="afii10100" unicode="&#x453;" horiz-adv-x="486" 
d="M461 525v-175h-64v105l-20 20h-155v-425h101v-50h-280v50h74v425h-74v50h418zM314 750h126v-41l-196 -117l-28 23z" />
    <glyph glyph-name="afii10101" unicode="&#x454;" horiz-adv-x="537" 
d="M363 237h-204q4 -36 18 -67.5t38 -55t56.5 -37t74.5 -13.5q24 0 42.5 3.5t32.5 9t25 12.5t21 15l25 -40q-21 -29 -66.5 -52t-107.5 -23q-66 0 -117 19.5t-85.5 55t-52.5 86t-18 112.5q0 66 20 117t56 85.5t86 52.5t110 18q55 0 91 -7t66 -22v-130h-64v81l-12 15
q-8 5 -29.5 7t-44.5 2q-36 0 -65.5 -9.5t-51 -32t-34 -58.5t-15.5 -90h205v-54z" />
    <glyph glyph-name="afii10102" unicode="&#x455;" horiz-adv-x="486" 
d="M332 119q0 27 -20 47.5t-50 38t-65 35t-65 40t-50 53t-20 73.5q0 29 14 52.5t37.5 40.5t55.5 26.5t68 9.5q30 0 53 -2t42 -5.5t36 -8.5t35 -11v-135h-64v79l-19 22q-13 3 -28 5t-32 2q-48 0 -71.5 -18.5t-23.5 -46.5q0 -27 20 -47t50 -37.5t65 -34.5t65 -38.5t50 -49.5
t20 -67q0 -36 -16.5 -64t-45 -47.5t-67 -30t-81.5 -10.5q-48 0 -93.5 12.5t-71.5 29.5v131h64v-76l20 -21q13 -10 31 -16t47 -6q48 0 79 20t31 55z" />
    <glyph glyph-name="afii10103" unicode="&#x456;" horiz-adv-x="339" 
d="M298 0h-253v50h74v425h-74v50h179v-475h74v-50zM97 687q0 29 20.5 46t52.5 17q34 0 53.5 -17t19.5 -46t-19.5 -46t-53.5 -17q-32 0 -52.5 17t-20.5 46z" />
    <glyph glyph-name="afii10104" unicode="&#x457;" horiz-adv-x="384" 
d="M40 688q0 29 16 45.5t44 16.5t45 -16.5t17 -45.5q0 -26 -17 -43t-45 -17t-44 17t-16 43zM222 688q0 29 16.5 45.5t44.5 16.5t44.5 -16.5t16.5 -45.5q0 -26 -16.5 -43t-44.5 -17t-44.5 17t-16.5 43zM321 0h-253v50h74v425h-74v50h179v-475h74v-50z" />
    <glyph glyph-name="afii10105" unicode="&#x458;" horiz-adv-x="326" 
d="M119 475h-74v50h179v-463q0 -75 -20.5 -124t-48.5 -79.5t-56.5 -45t-44.5 -19.5l-27 43q13 6 29 18.5t30 35.5t23.5 59.5t9.5 91.5v433zM96 687q0 29 20.5 46t52.5 17q34 0 53.5 -17t19.5 -46t-19.5 -46t-53.5 -17q-32 0 -52.5 17t-20.5 46z" />
    <glyph glyph-name="afii10106" unicode="&#x459;" horiz-adv-x="834" 
d="M495 47q14 -1 29 -2.5t29 -1.5q126 0 126 125q0 30 -9.5 50t-25.5 32t-37.5 17.5t-44.5 5.5q-14 0 -32 -1t-35 -4v-221zM495 312q19 2 43 5t69 3q85 0 135 -37t50 -116q0 -42 -16 -73.5t-45 -53.5t-69.5 -33t-88.5 -11q-30 0 -70 2t-83 2h-96v50h66v425h-146
q-1 -94 -11.5 -172t-28.5 -138.5t-41.5 -102t-50.5 -62.5h-90v107h94q19 25 32 66.5t21 91.5t11.5 104.5t3.5 105.5h-78v50h463v-50h-74v-163z" />
    <glyph glyph-name="afii10107" unicode="&#x45a;" horiz-adv-x="912" 
d="M573 47q14 -1 29 -2.5t29 -1.5q126 0 126 125q0 30 -9.5 50t-25.5 32t-37.5 17.5t-44.5 5.5q-14 0 -32 -1t-35 -4v-221zM573 312q19 2 43 5t69 3q85 0 135 -37t50 -116q0 -42 -16 -73.5t-45 -53.5t-69.5 -33t-88.5 -11q-30 0 -70 2t-83 2h-96v50h66v189h-246v-189h66v-50
h-245v50h74v425h-74v50h245v-50h-66v-182h246v182h-67v50h245v-50h-74z" />
    <glyph glyph-name="afii10108" unicode="&#x45b;" horiz-adv-x="661" 
d="M25 633h75v67h-85v50h190v-117h196v-55h-196v-195h1q23 49 72.5 82.5t118.5 33.5q39 0 71 -9.5t54 -34.5t34 -67t12 -107v-231h74v-50h-179v260q0 83 -22 127.5t-78 44.5q-30 0 -56 -10t-46 -26t-34.5 -35.5t-21.5 -38.5v-272h66v-50h-245v50h74v528h-75v55z" />
    <glyph glyph-name="afii10109" unicode="&#x45c;" horiz-adv-x="610" 
d="M367 525h207v-50h-64l-155 -179l204 -246h50v-50h-144l-186 248h-57v-198h72v-50h-251v50h74v425h-74v50h235v-50h-56v-186h52l156 186h-63v50zM363 750h126v-41l-196 -117l-28 23z" />
    <glyph glyph-name="afii10110" unicode="&#x45e;" horiz-adv-x="568" 
d="M47 475h-59v50h258v-50h-84l136 -332l20 -76h5l19 77l107 331h-61v50h192v-50h-64l-164 -475q-14 -41 -30.5 -75.5t-32 -61t-30 -43t-24.5 -20.5h-101v90h102q7 8 13 16t12 20t13 29.5t16 44.5h-37zM305 588q-36 0 -68 6.5t-56.5 18t-41 26t-22.5 31.5v58h114v-79
q13 -9 31 -12.5t44 -3.5q27 0 43.5 2.5t32.5 10.5v82h109v-58q-3 -17 -19 -32t-41.5 -26t-57.5 -17.5t-68 -6.5z" />
    <glyph glyph-name="afii10193" unicode="&#x45f;" horiz-adv-x="678" 
d="M390 525h245v-50h-74v-425h74v-50h-256v-199h-80v199h-256v50h74v425h-74v50h245v-50h-66v-425h234v425h-66v50z" />
    <glyph glyph-name="afii10146" unicode="&#x462;" horiz-adv-x="797" 
d="M96 561l-20 -22v-118h-64v196h240v48h-91v56h303v-56h-100v-48h282v-162h-64v84l-20 22h-198v-165q20 3 49.5 5t52.5 2q56 0 108.5 -7.5t93.5 -29t66 -60t25 -99.5q0 -59 -25.5 -99t-68.5 -64.5t-99.5 -35.5t-117.5 -11q-5 0 -17 0.5t-28 1t-34.5 1t-36.5 0.5h-171v56h91
v505h-156zM441 347q-28 0 -44.5 -1.5t-32.5 -4.5v-283q14 -3 40 -4t40 -1q38 0 72.5 7.5t60.5 25t41.5 47.5t15.5 75q0 40 -13.5 67t-38.5 43t-60.5 22.5t-80.5 6.5z" />
    <glyph glyph-name="afii10194" unicode="&#x463;" horiz-adv-x="659" 
d="M309 475v-163q18 2 42.5 5t69.5 3q92 0 144 -37t52 -116q0 -42 -17 -73.5t-47.5 -53.5t-72.5 -33t-93 -11q-30 0 -70 2t-83 2h-104v50h74v425h-93l-20 -20v-105h-64v175h177v175h-86v50h191v-225h196v-145h-64v75l-20 20h-112zM309 47q14 -1 29 -2.5t29 -1.5
q64 0 100.5 30t36.5 95q0 30 -10 50t-27 32t-40 17.5t-48 5.5q-17 0 -35 -1t-35 -4v-221z" />
    <glyph glyph-name="afii10147" unicode="&#x472;" horiz-adv-x="830" 
d="M57 350q0 78 24 144.5t69.5 115t112 75.5t151.5 27t152 -27t113 -75.5t70 -115t24 -144.5t-24 -144.5t-70 -115t-113 -75.5t-152 -27t-151.5 27t-112 75.5t-69.5 115t-24 144.5zM182 349q26 27 53 43.5t53 24.5q22 7 47 7q29 -1 56 -11.5t53.5 -23t53 -23t55.5 -10.5
q17 0 44.5 2t50.5 16q-3 60 -19 111.5t-46 89.5t-74 59.5t-104 21.5t-102.5 -23.5t-69.5 -65t-39 -96.5t-12 -118v-4zM299 344q-24 0 -56 -6.5t-59 -32.5q4 -56 21 -104t47 -83t73 -54.5t99 -19.5q54 0 95 21.5t69 60t43 90.5t17 112q-30 -28 -63.5 -40t-59.5 -12
q-30 0 -58.5 10.5t-56 23.5t-55.5 23.5t-56 10.5z" />
    <glyph glyph-name="afii10195" unicode="&#x473;" horiz-adv-x="622" 
d="M45 262q0 66 19 117t53.5 85.5t84 52.5t109.5 18q70 0 120.5 -19.5t82.5 -55t47.5 -86t15.5 -112.5q0 -66 -18.5 -116.5t-53 -85t-84 -52.5t-110.5 -18q-68 0 -118 19.5t-83 55t-49 85.5t-16 112zM401 278q13 0 29.5 6t33.5 17q-3 40 -14 74.5t-31 59.5t-49 39t-68 14
q-65 0 -104 -51t-41 -161q32 24 61 33t51 9q19 0 36 -6.5t32.5 -14t31 -13.5t32.5 -6zM222 254q-14 0 -31 -6t-33 -19q3 -42 14 -77t31.5 -60.5t51.5 -40t75 -14.5q29 0 54 13t43 40t28.5 68.5t10.5 98.5q-29 -23 -56.5 -33t-52.5 -10q-20 0 -37 6t-33.5 13.5t-32.5 14
t-32 6.5z" />
    <glyph glyph-name="afii10148" unicode="&#x474;" horiz-adv-x="768" 
d="M629 700h144v-126h-112l-204 -574h-111l-260 644h-86v56h307v-56h-96l180 -467l29 -95h4l30 97z" />
    <glyph glyph-name="afii10196" unicode="&#x475;" horiz-adv-x="576" 
d="M238 0l-192 475h-57v50h238v-50h-67l120 -315l26 -109h5l28 109l134 365h119v-106h-91l-155 -419h-108z" />
    <glyph glyph-name="uni048A" unicode="&#x48a;" horiz-adv-x="834" 
d="M318 0h-286v56h91v588h-91v56h286v-56h-83v-429l-12 -75l54 79l327 403v22h-91v56h288v-56h-91v-588h123l9 -22l-164 -214h-33l74 180h-206v56h85v428l11 75l-49 -75l-332 -408v-20h90v-56zM423 743q-103 0 -152 33.5t-49 104.5h116v-79q14 -7 37 -10.5t49 -3.5
q19 0 45 3t41 8v82h111q0 -70 -46.5 -104t-151.5 -34z" />
    <glyph glyph-name="uni048B" unicode="&#x48b;" horiz-adv-x="700" 
d="M43 525h240v-50h-66v-308l-7 -108h6l38 89l198 377h195v-50h-74v-425h105l8 -22l-133 -203h-41l70 175h-175v50h66v320l11 103h-6l-42 -99l-201 -374h-192v50h74v425h-74v50zM356 588q-36 0 -68 6.5t-56.5 18t-41 26t-22.5 31.5v58h114v-79q13 -9 31 -12.5t44 -3.5
q27 0 43.5 2.5t32.5 10.5v82h109v-58q-3 -17 -19 -32t-41.5 -26t-57.5 -17.5t-68 -6.5z" />
    <glyph glyph-name="uni048C" unicode="&#x48c;" horiz-adv-x="702" 
d="M11 570h147v74h-91v56h303v-56h-100v-74h216v-56h-216v-97q20 3 49 5t52 2q56 0 109 -9t94 -32.5t65.5 -63.5t24.5 -101q0 -59 -26 -100.5t-69 -68.5t-99 -39.5t-117 -12.5q-5 0 -21.5 0.5t-37.5 1l-43.5 1t-39.5 0.5h-144v56h91v458h-147v56zM346 368q-27 0 -44.5 -1.5
t-31.5 -4.5v-304q6 -2 16.5 -2.5t22.5 -1.5t23 -1h17q38 0 72.5 9t60.5 29t41.5 51.5t15.5 76.5q0 40 -13.5 68.5t-38.5 46.5t-61 26t-80 8z" />
    <glyph glyph-name="uni048D" unicode="&#x48d;" horiz-adv-x="572" 
d="M5 525h112v175h-85v50h190v-225h159v-55h-159v-158q18 2 42.5 5t69.5 3q92 0 144 -37t52 -116q0 -42 -17 -73.5t-47.5 -53.5t-72.5 -33t-93 -11q-30 0 -69.5 2t-82.5 2h-104v50h73v420h-112v55zM222 47q14 -1 29 -2.5t29 -1.5q64 0 100.5 30t36.5 95q0 30 -10 50t-27 32
t-40 17.5t-48 5.5q-17 0 -35 -1t-35 -4v-221z" />
    <glyph glyph-name="uni048E" unicode="&#x48e;" horiz-adv-x="667" 
d="M32 644v56h104q45 0 97.5 4t101.5 4q55 0 108 -10.5t94 -35.5t66.5 -66.5t25.5 -103.5q0 -77 -43.5 -126t-109.5 -73l51 -74l-48 -32l-62 90q-45 -9 -95 -9h-18t-25.5 0.5t-25.5 1.5t-18 2v-216h100v-56h-303v56h91v588h-91zM235 329q5 -2 15.5 -2.5t22.5 -1.5t23.5 -1
h17.5q37 0 66 7l-73 107l48 31l79 -115q32 20 51 53.5t19 84.5q0 82 -51.5 121t-140.5 39q-27 0 -45 -1.5t-32 -4.5v-317z" />
    <glyph glyph-name="uni048F" unicode="&#x48f;" horiz-adv-x="637" 
d="M287 -200h-253v50h74v625h-74v50h179v-105h1q22 53 62.5 84t106.5 31q99 0 153.5 -61t54.5 -200q0 -95 -37 -161t-103 -98l66 -89l-47 -35l-78 105q-15 -3 -31 -5t-33 -2q-20 0 -35.5 1t-28.5 3t-25.5 6t-25.5 9v-158h74v-50zM344 468q-54 0 -85.5 -30.5t-45.5 -86.5
v-293q20 -13 44.5 -17.5t65.5 -4.5q20 0 35 4l-65 88l47 37l70 -96q33 30 51 83t18 122q0 43 -7 78.5t-22.5 61t-41.5 40t-64 14.5z" />
    <glyph glyph-name="afii10050" unicode="&#x490;" horiz-adv-x="542" 
d="M32 644v56h414l20 22v115h64v-193h-295v-588h108v-56h-311v56h91v588h-91z" />
    <glyph glyph-name="afii10098" unicode="&#x491;" horiz-adv-x="450" 
d="M366 525l20 20v105h64v-175h-228v-425h101v-50h-280v50h74v425h-74v50h323z" />
    <glyph glyph-name="uni0492" unicode="&#x492;" horiz-adv-x="596" 
d="M51 644v56h513v-207h-72v129l-20 22h-218v-260h167v-56h-167v-272h108v-56h-311v56h91v272h-100v56h100v260h-91z" />
    <glyph glyph-name="uni0493" unicode="&#x493;" horiz-adv-x="485" 
d="M460 525v-175h-64v105l-20 20h-154v-192h124v-55h-124v-178h101v-50h-280v50h74v178h-82v55h82v192h-74v50h417z" />
    <glyph glyph-name="uni0494" unicode="&#x494;" horiz-adv-x="686" 
d="M32 644v56h513v-207h-72v129l-20 22h-218v-277q30 16 77 30.5t123 14.5q46 0 84 -14t65.5 -44.5t42.5 -80t15 -120.5t-14.5 -132.5t-46.5 -108.5t-84.5 -76t-127.5 -35l-8 39q50 15 82 44t51 68.5t26 87t7 100.5q0 107 -33.5 161.5t-108.5 54.5q-48 0 -84 -12t-66 -29
v-259h103v-56h-306v56h91v588h-91z" />
    <glyph glyph-name="uni0495" unicode="&#x495;" horiz-adv-x="617" 
d="M460 525v-175h-64v105l-20 20h-154v-242q27 27 64.5 44t92.5 17q76 0 118.5 -52t42.5 -156v-45q0 -114 -52.5 -179.5t-151.5 -70.5l-9 41q30 9 51 28t33.5 46t18 61.5t5.5 73.5v24q0 90 -22.5 129t-74.5 39q-31 0 -60.5 -9t-55.5 -23v-151h101v-50h-280v50h74v425h-74v50
h417z" />
    <glyph glyph-name="uni0496" unicode="&#x496;" horiz-adv-x="1080" 
d="M403 332l-250 -332h-153v56h60l133 156l48.5 57l42.5 50l30.5 35.5l11.5 13.5l-223 276h-78v56h249v-56h-75l195 -262h75v262h-77v56h262v-56h-77v-262h79l196 262h-80v56h249v-56h-85l-215 -268l272 -320h75v-218h-69v140l-20 22h-79l-255 332h-68v-276h77v-56h-262v56
h77v276h-66z" />
    <glyph glyph-name="uni0497" unicode="&#x497;" horiz-adv-x="837" 
d="M678 0l-167 244h-54v-194h59v-50h-218v50h59v194h-59l-161 -244h-137v50h52l176 238l-154 187h-52v50h196v-50h-59l142 -191h56v191h-59v50h218v-50h-59v-191h56l140 191h-57v50h197v-50h-63l-146 -183l183 -242h60v-200h-64v130l-20 20h-65z" />
    <glyph glyph-name="uni0498" unicode="&#x498;" horiz-adv-x="611" 
d="M227 -200v188q-52 3 -96 14t-76 25v167h64v-112l15 -19q9 -5 24.5 -8.5t33 -6t35.5 -3.5t32 -1q41 0 74.5 11t57 31t36.5 47.5t13 60.5q0 39 -13.5 65t-36 41.5t-52.5 21.5t-63 6h-87v64h127q51 16 78 49t27 81q0 65 -40.5 99.5t-114.5 34.5q-33 0 -64.5 -6t-44.5 -14
l-13 -19v-99h-64v153q18 12 41 19.5t48.5 12.5t51.5 7t50 2q46 0 92.5 -7t84 -26.5t61.5 -53t24 -85.5q0 -51 -33.5 -96t-105.5 -69v-4q34 -5 63.5 -17.5t51.5 -33t34.5 -50.5t12.5 -71q0 -49 -19.5 -86.5t-53 -63.5t-79 -41t-96.5 -19v-189h-80z" />
    <glyph glyph-name="uni0499" unicode="&#x499;" horiz-adv-x="532" 
d="M244 44q29 0 51 9t37 24t22.5 34t7.5 38q0 46 -23 64.5t-63 24.5h-105v54h113q10 4 21 12.5t20.5 21.5t15.5 30t6 39q0 50 -29 68t-78 18q-25 0 -44 -2t-25 -5l-19 -22v-87h-64v134q23 12 61.5 24t109.5 12q93 0 143 -29.5t50 -90.5q0 -26 -11 -47t-29 -37.5t-40 -28
t-44 -17.5q31 -3 57.5 -12.5t46.5 -25.5t31.5 -39t11.5 -52q0 -74 -49 -116t-134 -50v-189h-80v189q-46 5 -82 23t-60 40v100h64v-69l17 -22q11 -7 33 -12.5t60 -5.5z" />
    <glyph glyph-name="uni049A" unicode="&#x49a;" horiz-adv-x="731" 
d="M551 0l-263 332h-53v-276h83v-56h-286v56h91v588h-91v56h286v-56h-83v-262h65l218 262h-81v56h247v-56h-79l-238 -267l283 -321h69v-218h-69v140l-20 22h-79z" />
    <glyph glyph-name="uni049B" unicode="&#x49b;" horiz-adv-x="625" 
d="M464 0l-186 249h-57v-199h72v-50h-251v50h74v425h-74v50h235v-50h-56v-186h52l156 186h-63v50h207v-50h-64l-155 -179l204 -246h67v-200h-64v130l-20 20h-77z" />
    <glyph glyph-name="uni049C" unicode="&#x49c;" horiz-adv-x="796" 
d="M310 382v152h62v-152h12l218 262h-81v56h247v-56h-79l-238 -267l283 -321h62v-56h-161l-263 332v-150h-62v150h-75v-276h83v-56h-286v56h91v588h-91v56h286v-56h-83v-262h75z" />
    <glyph glyph-name="uni049D" unicode="&#x49d;" horiz-adv-x="708" 
d="M342 289h31l156 186h-63v50h207v-50h-64l-155 -179l204 -246h50v-50h-144l-186 249h-36v-131h-54v131h-67v-199h72v-50h-251v50h74v425h-74v50h235v-50h-56v-186h67v137h54v-137z" />
    <glyph glyph-name="uni049E" unicode="&#x49e;" horiz-adv-x="749" 
d="M22 583h138v61h-91v56h286v-56h-83v-61h121v-54h-121v-147h65l218 262h-81v56h247v-56h-79l-238 -267l283 -321h62v-56h-161l-263 332h-53v-276h83v-56h-286v56h91v473h-138v54z" />
    <glyph glyph-name="uni049F" unicode="&#x49f;" horiz-adv-x="582" 
d="M5 643h95v57h-85v50h190v-107h176v-55h-176v-299h35l153 186h-76v50h220v-50h-64l-155 -179l204 -246h50v-50h-144l-186 249h-37v-199h72v-50h-251v50h74v538h-95v55z" />
    <glyph glyph-name="uni04A0" unicode="&#x4a0;" horiz-adv-x="848" 
d="M436 382l218 262h-81v56h247v-56h-79l-238 -267l283 -321h62v-56h-161l-263 332h-53v-276h83v-56h-286v56h91v588h-155l-20 -22v-129h-64v207h434v-56h-83v-262h65z" />
    <glyph glyph-name="uni04A1" unicode="&#x4a1;" horiz-adv-x="689" 
d="M103 475l-20 -20v-104h-64v174h348v-50h-66v-186h52l156 186h-63v50h207v-50h-64l-155 -179l204 -246h50v-50h-144l-186 249h-57v-199h72v-50h-251v50h74v425h-93z" />
    <glyph glyph-name="uni04A2" unicode="&#x4a2;" horiz-adv-x="825" 
d="M502 0v56h83v275h-350v-275h83v-56h-286v56h91v588h-91v56h286v-56h-83v-257h350v257h-83v56h286v-56h-91v-588h111v-218h-69v140l-20 22h-217z" />
    <glyph glyph-name="uni04A3" unicode="&#x4a3;" horiz-adv-x="691" 
d="M401 0v50h66v189h-245v-189h66v-50h-245v50h74v425h-74v50h245v-50h-66v-182h245v182h-66v50h245v-50h-74v-425h95v-200h-64v130l-20 20h-182z" />
    <glyph glyph-name="uni04A4" unicode="&#x4a4;" horiz-adv-x="1019" 
d="M318 56v-56h-286v56h91v588h-91v56h286v-56h-83v-257h350v257h-83v56h505v-207h-72v129l-20 22h-218v-588h108v-56h-303v56h83v275h-350v-275h83z" />
    <glyph glyph-name="uni04A5" unicode="&#x4a5;" horiz-adv-x="836" 
d="M393 475v50h407v-175h-64v105l-20 20h-144v-425h74v-50h-245v50h66v189h-245v-189h66v-50h-245v50h74v425h-74v50h245v-50h-66v-182h245v182h-74z" />
    <glyph glyph-name="uni04A6" unicode="&#x4a6;" horiz-adv-x="1136" 
d="M1092 153q0 -78 -16 -142.5t-50 -111.5t-88 -74.5t-129 -33.5l-8 39q50 15 83.5 43.5t54 68.5t29.5 89.5t9 108.5q0 112 -33.5 164t-108.5 52q-48 0 -84 -12t-66 -29v-259h91v-56h-286v56h83v588h-338v-588h83v-56h-286v56h91v588h-91v56h744v-56h-91v-277
q30 16 74.5 30.5t107.5 14.5q52 0 94 -13.5t71 -44.5t44.5 -80t15.5 -121z" />
    <glyph glyph-name="uni04A7" unicode="&#x4a7;" horiz-adv-x="948" 
d="M288 0h-245v50h74v425h-74v50h602v-50h-74v-241q27 26 64 43t92 17q76 0 118.5 -52t42.5 -156v-45q0 -114 -52.5 -179.5t-151.5 -70.5l-9 41q30 9 51 28t33.5 46t18 61.5t5.5 73.5v24q0 90 -22.5 129t-74.5 39q-31 0 -60 -9t-55 -23v-151h74v-50h-245v50h66v425h-244
v-425h66v-50z" />
    <glyph glyph-name="uni04A8" unicode="&#x4a8;" horiz-adv-x="952" 
d="M891 33q-30 -25 -65.5 -35t-93.5 -10q-19 0 -38.5 3.5t-37.5 9.5t-33.5 13t-25.5 13q-18 -13 -57.5 -26t-89.5 -13q-87 0 -159.5 27t-124 75.5t-80.5 115t-29 145.5q0 73 24 138.5t69 115t108.5 78.5t142.5 29q36 0 65 -6.5t47 -22.5l-20 -40q-11 7 -27 10t-33 3
q-61 0 -108 -23.5t-78.5 -64.5t-48 -97t-16.5 -122q0 -64 19 -119.5t55.5 -97t90 -65t123.5 -23.5q43 0 76 11q-36 16 -71 44t-62.5 66t-44.5 86.5t-17 106.5q0 64 23 119t61 95t88.5 62.5t105.5 22.5q51 0 98.5 -18.5t85 -56t60 -93.5t22.5 -132q0 -60 -22.5 -109.5
t-56 -88t-72 -64t-70.5 -37.5q11 -5 29.5 -9.5t36.5 -4.5q40 0 68 11.5t54 31.5zM476 350q0 -49 12 -90.5t31.5 -75t45.5 -59.5t53 -43q34 17 62.5 45.5t48 64.5t30.5 78.5t11 89.5q0 53 -8 97t-25 76t-43 50t-62 18q-41 0 -70.5 -19.5t-48.5 -53t-28 -79.5t-9 -99z" />
    <glyph glyph-name="uni04A9" unicode="&#x4a9;" horiz-adv-x="744" 
d="M711 20q-3 -6 -13 -11.5t-24 -9.5t-29 -6.5t-27 -2.5q-16 0 -33.5 1.5t-34 5t-30.5 8.5t-24 12q-29 -13 -65 -20t-65 -7q-68 0 -127 19.5t-102 55t-67.5 85.5t-24.5 112q0 57 18.5 107t53 86.5t83.5 58t111 21.5q35 0 55 -4.5t33 -12.5l-10 -36q-13 3 -28.5 4.5
t-26.5 1.5q-41 -1 -74 -17.5t-56 -46t-36 -71t-13 -91.5q0 -48 17 -89t47 -71t70.5 -47.5t87.5 -17.5q20 0 42 1.5t30 4.5q-33 9 -62.5 29.5t-52 49t-35.5 62t-13 67.5q0 60 18.5 103.5t49 71t69.5 40.5t81 13q34 0 69.5 -12t64.5 -38t47.5 -66.5t18.5 -96.5
q0 -40 -15 -76.5t-38.5 -66t-52 -50.5t-56.5 -30q15 -5 35.5 -6t40.5 -1q30 0 76 26zM396 254q0 -65 24.5 -115.5t71.5 -75.5q19 10 37.5 29.5t33 46.5t23 61t8.5 74q0 30 -5 58.5t-17 50.5t-31 35.5t-46 13.5q-49 0 -74 -49.5t-25 -128.5z" />
    <glyph glyph-name="uni04AA" unicode="&#x4aa;" horiz-adv-x="698" 
d="M569 184h64v-157q-30 -16 -79 -27t-97 -12v-188h-80v192q-75 7 -134.5 32.5t-101 69.5t-63 107.5t-21.5 148.5q0 98 30 166.5t81 112t118 63.5t141 20q36 0 65 -2.5t52.5 -7.5t43.5 -12t39 -15v-171h-64v105l-14 20q-11 5 -34.5 12t-75.5 7q-54 0 -101 -17t-81.5 -53
t-54.5 -92.5t-20 -135.5q0 -143 72.5 -220.5t203.5 -77.5q36 0 60.5 5.5t36.5 14.5l14 19v93z" />
    <glyph glyph-name="uni04AB" unicode="&#x4ab;" horiz-adv-x="523" 
d="M482 64q-20 -27 -62.5 -49.5t-99.5 -25.5v-188h-80v194q-99 19 -147 89.5t-48 177.5q0 133 70.5 203t191.5 70q55 0 91 -7t66 -22v-130h-90v96q-15 9 -60 9q-38 0 -67 -11t-49 -36t-30 -67t-10 -103q0 -40 11 -76.5t33 -64t55.5 -43.5t78.5 -16q24 0 42.5 3.5t32.5 9
t25 12.5t21 15z" />
    <glyph glyph-name="uni04AC" unicode="&#x4ac;" horiz-adv-x="698" 
d="M516 -162h-69v140l-20 22h-237v56h103v588h-179l-20 -22v-129h-72v207h654v-207h-72v129l-20 22h-179v-588h111v-218z" />
    <glyph glyph-name="uni04AD" unicode="&#x4ad;" horiz-adv-x="559" 
d="M153 0v50h74v425h-102l-20 -20v-105h-64v175h477v-175h-64v105l-20 20h-102v-425h97v-200h-64v130l-20 20h-192z" />
    <glyph glyph-name="uni04AE" unicode="&#x4ae;" horiz-adv-x="727" 
d="M478 700h249v-56h-85l-213 -347v-241h91v-56h-294v56h91v240l-226 348h-91v56h302v-56h-84l181 -291l171 291h-92v56z" />
    <glyph glyph-name="uni04AF" unicode="&#x4af;" horiz-adv-x="571" 
d="M416 -200h-253v50h74v150l-189 475h-59v50h238v-50h-63l115 -317l27 -94h6l27 92q1 2 6 16.5l13 37l17.5 51t20.5 58.5l55 156h-61v50h192v-50h-63l-177 -475v-150h74v-50z" />
    <glyph glyph-name="uni04B0" unicode="&#x4b0;" horiz-adv-x="727" 
d="M478 700h249v-56h-85l-212 -345h161v-56h-162v-187h91v-56h-294v56h91v187h-162v56h160l-224 345h-91v56h302v-56h-84l181 -291l171 291h-92v56z" />
    <glyph glyph-name="uni04B1" unicode="&#x4b1;" horiz-adv-x="571" 
d="M101 55h114l-167 420h-59v50h238v-50h-63l115 -317l27 -94h6l27 92l6 18t13.5 38l18.5 51.5l20 57.5l54 154h-61v50h192v-50h-63l-157 -420h116v-55h-136v-150h74v-50h-253v50h74v150h-136v55z" />
    <glyph glyph-name="uni04B2" unicode="&#x4b2;" horiz-adv-x="756" 
d="M449 700h252v-56h-82l-196 -269l230 -319h91v-218h-69v140l-20 22h-202v56h73l-176 247l-166 -247h77v-56h-251v56h84l219 296l-210 292h-89v56h298v-56h-80l155 -223l150 223h-88v56z" />
    <glyph glyph-name="uni04B3" unicode="&#x4b3;" horiz-adv-x="597" 
d="M329 0v50h67l-123 174l-124 -174h55v-50h-193v50h63l167 210l-168 215h-55v50h240v-50h-65l115 -159l112 159h-55v50h188v-50h-62l-154 -194l177 -231h83v-200h-64v130l-20 20h-184z" />
    <glyph glyph-name="uni04B4" unicode="&#x4b4;" horiz-adv-x="986" 
d="M743 56v588h-72v56h275v-56h-91v-588h114v-218h-69v141l-20 21h-690v56h103v588h-179l-20 -22v-129h-72v207h585v-207h-72v129l-20 22h-110v-588h338z" />
    <glyph glyph-name="uni04B5" unicode="&#x4b5;" horiz-adv-x="875" 
d="M332 50h307v425h-66v50h245v-50h-74v-425h97v-200h-64v130l-20 20h-604v50h74v425h-102l-20 -20v-105h-64v175h477v-175h-64v105l-20 20h-102v-425z" />
    <glyph glyph-name="uni04B6" unicode="&#x4b6;" horiz-adv-x="753" 
d="M625 56h111v-218h-69v140l-20 22h-238v56h104v254q-31 -16 -81 -30.5t-115 -14.5q-47 0 -86 8t-67.5 29t-44.5 57t-16 92v193h-91v56h276v-56h-73v-170q0 -70 31 -111.5t105 -41.5q47 0 89 12t73 29v282h-80v56h283v-56h-91v-588z" />
    <glyph glyph-name="uni04B7" unicode="&#x4b7;" horiz-adv-x="629" 
d="M317 0v50h90v188q-27 -27 -64.5 -44.5t-92.5 -17.5q-76 0 -118 40t-42 108v151h-74v50h244v-50h-65v-130q0 -48 22 -77.5t74 -29.5q31 0 60.5 9t55.5 24v204h-65v50h244v-50h-74v-425h97v-200h-64v130l-20 20h-208z" />
    <glyph glyph-name="uni04B8" unicode="&#x4b8;" horiz-adv-x="779" 
d="M656 56h91v-56h-307v56h104v254q-21 -11 -55.5 -21.5t-76.5 -17.5v-143h-56v137h-29q-47 0 -87.5 8t-71 29t-48 57t-17.5 92v193h-91v56h276v-56h-73v-170q0 -69 31 -110t110 -43v149h56v-146q38 5 73.5 15t58.5 23v282h-80v56h283v-56h-91v-588z" />
    <glyph glyph-name="uni04B9" unicode="&#x4b9;" horiz-adv-x="698" 
d="M318 179q-24 -3 -48 -3q-98 0 -139 40t-41 108v151h-74v50h244v-50h-65v-130q0 -48 28 -77.5t88 -29.5h7v168h54v-164q32 4 59.5 11t45.5 18v204h-65v50h244v-50h-74v-425h74v-50h-269v50h90v188q-16 -16 -43.5 -29t-61.5 -21v-90h-54v81z" />
    <glyph glyph-name="uni04BA" unicode="&#x4ba;" horiz-adv-x="748" 
d="M123.038 644.004h-90.9941v55.9961h306.981v-55.9961h-103.994v-253.985q30.998 15.999 80.9951 30.498q49.9971 14.5 114.993 14.5q46.9971 0 85.9941 -8q38.998 -7.99902 67.4961 -28.998t44.4971 -56.9971q15.999 -35.9971 15.999 -91.9941v-192.988h90.9951v-55.9961
h-275.983v55.9961h72.9951v169.99q0 69.9951 -30.998 111.493q-30.998 41.4971 -104.993 41.4971q-46.9971 0 -88.9941 -11.999q-41.998 -11.999 -72.9961 -28.998v-281.983h82.9951v-55.9961h-285.982v55.9961h90.9941v587.965z" />
    <glyph glyph-name="uni04BB" unicode="&#x4bb;" horiz-adv-x="661" 
d="M642 0h-245v50h66v246q0 83 -22 127.5t-78 44.5q-30 0 -56 -10t-46 -26t-34.5 -35.5t-21.5 -38.5v-308h66v-50h-245v50h74v650h-85v50h190v-331h1q23 49 72.5 82.5t118.5 33.5q39 0 71 -9.5t54 -34.5t34 -67t12 -107v-267h74v-50z" />
    <glyph glyph-name="uni04BC" unicode="&#x4bc;" horiz-adv-x="919" 
d="M541 712q72 0 131 -18.5t101 -56t65.5 -93.5t23.5 -131q0 -26 -2 -43t-5 -33h-550q0 -71 23.5 -122.5t62.5 -85.5t89.5 -50.5t105.5 -16.5t110 16t103 48l22 -32q-22 -29 -52.5 -49t-64.5 -32.5t-69.5 -18.5t-68.5 -6q-80 0 -148.5 22t-119.5 65.5t-80.5 109t-32.5 152.5
q-93 2 -139 40t-46 117v78h133v-92l-62 -28q14 -35 44.5 -46.5t70.5 -12.5q7 79 37.5 139t78.5 100t109.5 60t129.5 20zM542 656q-104 0 -167.5 -67.5t-69.5 -195.5h435q1 11 1.5 21t0.5 20q0 51 -14.5 92t-41 70t-63.5 44.5t-81 15.5z" />
    <glyph glyph-name="uni04BD" unicode="&#x4bd;" horiz-adv-x="681" 
d="M614 69q-26 -37 -73.5 -58.5t-110.5 -21.5q-66 0 -116.5 19t-84.5 54.5t-51.5 86t-17.5 112.5q-39 1 -68.5 11.5t-49.5 28.5t-30.5 41t-10.5 50v83h106v-79l-46 -24q0 -10 6.5 -21.5t18.5 -21t31 -15.5t45 -6q11 112 76.5 169.5t176.5 57.5q40 0 78.5 -10t68.5 -33
t48.5 -61t18.5 -94q0 -17 -2 -36t-6 -40h-348q0 -44 11.5 -80t35 -62t58.5 -40.5t83 -14.5q39 0 72.5 13t53.5 30zM411 488q-31 0 -54.5 -9t-40.5 -30t-27 -55.5t-13 -85.5h241q1 9 1.5 18.5t0.5 17.5q0 66 -26.5 105t-81.5 39z" />
    <glyph glyph-name="uni04BE" unicode="&#x4be;" horiz-adv-x="919" 
d="M541 712q72 0 131 -18.5t101 -56t65.5 -93.5t23.5 -131q0 -26 -2 -43t-5 -33h-550q0 -71 23.5 -122.5t62.5 -85.5t89.5 -50.5t105.5 -16.5t110 16t103 48l22 -32q-20 -25 -45.5 -43.5t-54.5 -31.5t-59.5 -20.5t-60.5 -10.5v-188h-80v188q-72 6 -132.5 30.5t-105 68
t-70.5 106.5t-28 144q-93 2 -139 40t-46 117v78h133v-92l-62 -28q14 -35 44.5 -46.5t70.5 -12.5q7 79 37.5 139t78.5 100t109.5 60t129.5 20zM542 656q-104 0 -167.5 -67.5t-69.5 -195.5h435q1 11 1.5 21t0.5 20q0 51 -14.5 92t-41 70t-63.5 44.5t-81 15.5z" />
    <glyph glyph-name="uni04BF" unicode="&#x4bf;" horiz-adv-x="681" 
d="M614 69q-24 -34 -66.5 -55.5t-97.5 -24.5v-188h-80v192q-104 16 -157 87t-53 181q-39 1 -68.5 11.5t-49.5 28.5t-30.5 41t-10.5 50v83h106v-79l-46 -24q0 -10 6.5 -21.5t18.5 -21t31 -15.5t45 -6q11 112 76.5 169.5t176.5 57.5q40 0 78.5 -10t68.5 -33t48.5 -61t18.5 -94
q0 -17 -2 -36t-6 -40h-348q0 -44 11.5 -80t35 -62t58.5 -40.5t83 -14.5q39 0 72.5 13t53.5 30zM411 488q-31 0 -54.5 -9t-40.5 -30t-27 -55.5t-13 -85.5h241q1 9 1.5 18.5t0.5 17.5q0 66 -26.5 105t-81.5 39z" />
    <glyph glyph-name="uni04C0" unicode="&#x4c0;" horiz-adv-x="398" 
d="M346 0h-294v56h91v588h-91v56h294v-56h-91v-588h91v-56z" />
    <glyph glyph-name="uni04C3" unicode="&#x4c3;" horiz-adv-x="712" 
d="M370 382q58 -15 111.5 -42.5t94.5 -67t65.5 -91.5t24.5 -116q0 -57 -22 -106t-59 -85.5t-86 -59t-104 -25.5l-9 50q31 8 61 26t53 45t37 63.5t14 81.5q0 53 -21 98.5t-55.5 81t-79 60.5t-90.5 37h-71v-276h83v-56h-286v56h91v588h-91v56h286v-56h-83v-262h65l208 262h-80
v56h248v-56h-81z" />
    <glyph glyph-name="uni04C4" unicode="&#x4c4;" horiz-adv-x="609" 
d="M349 293q35 -16 74.5 -39.5t72.5 -57t55 -78t22 -102.5q0 -46 -19 -84.5t-50.5 -68t-71.5 -48.5t-82 -25l-15 40q61 17 97 62t36 107q0 49 -19 90t-47.5 73t-62 54t-62.5 33h-56v-199h72v-50h-251v50h74v425h-74v50h235v-50h-56v-186h52l156 186h-63v50h207v-50h-64z" />
    <glyph glyph-name="uni04C5" unicode="&#x4c5;" horiz-adv-x="739" 
d="M295 644q-5 -141 -15.5 -235.5t-24 -159t-30.5 -106t-35 -75.5q-9 -17 -22 -34l-27 -34h-116v126h116q15 25 30.5 66.5t27.5 104t19.5 148.5t7.5 199h-104v56h585v-56h-91v-588h122l9 -22l-164 -214h-33l74 180h-206v56h86v588h-209z" />
    <glyph glyph-name="uni04C6" unicode="&#x4c6;" horiz-adv-x="622" 
d="M116 107q19 25 32 66.5t21 91.5t11.5 104.5t3.5 105.5h-78v50h463v-50h-74v-425h105l8 -22l-133 -203h-41l70 175h-180v50h66v425h-146q-1 -94 -11.5 -172t-28.5 -138.5t-41.5 -102t-50.5 -62.5h-90v107h94z" />
    <glyph glyph-name="uni04C7" unicode="&#x4c7;" horiz-adv-x="820" 
d="M318 56v-56h-286v56h91v588h-91v56h286v-56h-83v-257h350v257h-83v56h286v-56h-91v-608q0 -70 -19 -115t-46 -72.5t-57.5 -40.5t-55.5 -18l-23 46q18 9 34 21t28 32t19.5 50.5t7.5 77.5v314h-350v-275h83z" />
    <glyph glyph-name="uni04C8" unicode="&#x4c8;" horiz-adv-x="682" 
d="M288 0h-245v50h74v425h-74v50h245v-50h-66v-182h245v182h-66v50h245v-50h-74v-413q0 -75 -20.5 -124t-48.5 -79.5t-56.5 -45t-44.5 -19.5l-29 47q13 6 29 18t30.5 33.5t24.5 55t10 83.5v208h-245v-189h66v-50z" />
    <glyph glyph-name="uni04C9" unicode="&#x4c9;" horiz-adv-x="821" 
d="M318 56v-56h-286v56h91v588h-91v56h286v-56h-83v-257h350v257h-83v56h286v-56h-91v-588h123l9 -22l-164 -214h-33l74 180h-204v56h83v275h-350v-275h83z" />
    <glyph glyph-name="uni04CA" unicode="&#x4ca;" horiz-adv-x="699" 
d="M288 0h-245v50h74v425h-74v50h245v-50h-66v-182h245v182h-66v50h245v-50h-74v-425h105l8 -22l-133 -203h-41l70 175h-180v50h66v189h-245v-189h66v-50z" />
    <glyph glyph-name="uni04CB" unicode="&#x4cb;" horiz-adv-x="748" 
d="M625 56h91v-56h-225l-20 -22v-140h-69v218h111v254q-31 -16 -81 -30.5t-115 -14.5q-47 0 -86 8t-67.5 29t-44.5 57t-16 92v193h-91v56h276v-56h-73v-170q0 -70 31 -111.5t105 -41.5q47 0 89 12t73 29v282h-80v56h283v-56h-91v-588z" />
    <glyph glyph-name="uni04CC" unicode="&#x4cc;" horiz-adv-x="628" 
d="M16 525h244v-50h-65v-130q0 -48 22 -77.5t74 -29.5q31 0 60.5 9t55.5 24v204h-65v50h244v-50h-74v-425h74v-50h-214v-150h-64v200h99v188q-27 -27 -64.5 -44.5t-92.5 -17.5q-76 0 -118 40t-42 108v151h-74v50z" />
    <glyph glyph-name="uni04CD" unicode="&#x4cd;" horiz-adv-x="984" 
d="M32 644v56h228l236 -448l241 448h215v-56h-91v-588h122l9 -22l-164 -214h-33l74 180h-207v56h91v446q0 2 0.5 20.5t1.5 40.5q1 25 3 56h-9l-43 -107l-205 -362h-61l-200 362l-44 117h-10v-59q0 -23 0.5 -43.5t0.5 -24.5v-446h85v-56h-240v56h91v588h-91z" />
    <glyph glyph-name="uni04CE" unicode="&#x4ce;" horiz-adv-x="825" 
d="M239 0h-200v50h74v425h-71v50h222l145 -322h3l150 322h217v-50h-74v-425h98l8 -22l-133 -203h-41l70 175h-168v50h66v425h-9l-192 -405h-31l-191 405h-9v-425h66v-50z" />
    <glyph glyph-name="uni04CF" unicode="&#x4cf;" horiz-adv-x="343" 
d="M45 700v50h253v-50h-74v-650h74v-50h-253v50h74v650h-74z" />
    <glyph glyph-name="uni04D0" unicode="&#x4d0;" horiz-adv-x="755" 
d="M245 0h-245v56h78l259 644h106l237 -644h75v-56h-286v56h89l-65 176h-266l-68 -176h86v-56zM250 288h226l-82 231l-25 106h-4l-29 -108zM389 743q-103 0 -152 34t-49 104h116v-79q14 -7 37 -10.5t49 -3.5q19 0 45 3t41 8v82h111q0 -69 -46.5 -103.5t-151.5 -34.5z" />
    <glyph glyph-name="uni04D1" unicode="&#x4d1;" horiz-adv-x="569" 
d="M464 139q0 -23 1 -46.5t3 -42.5h66v-50h-157l-10 95h-5q-5 -20 -18.5 -39t-34 -34t-48.5 -24t-62 -9t-62.5 10t-49.5 28t-32.5 43.5t-11.5 57.5q0 49 20.5 81t60.5 50.5t100 26.5t140 9q2 16 2 30.5v28.5q0 62 -21 94.5t-75 32.5q-20 0 -43 -2t-42 -12v-92h-90v111
q36 19 85 34t115 15q57 0 91.5 -14.5t53 -38t24 -53t5.5 -58.5q0 -63 -2.5 -120.5t-2.5 -111.5zM245 56q24 0 43 7.5t33.5 19t25 25.5t17.5 27v119q-65 0 -105.5 -8.5t-63.5 -22.5t-31.5 -33.5t-8.5 -41.5q0 -45 24 -68.5t66 -23.5zM287 588q-36 0 -68 6.5t-56.5 18t-41 26
t-22.5 31.5v58h114v-79q13 -9 31 -12.5t44 -3.5q27 0 43.5 2.5t32.5 10.5v82h109v-58q-3 -17 -19 -32t-41.5 -26t-57.5 -17.5t-68 -6.5z" />
    <glyph glyph-name="uni04D2" unicode="&#x4d2;" horiz-adv-x="755" 
d="M245 0h-245v56h78l259 644h106l237 -644h75v-56h-286v56h89l-65 176h-266l-68 -176h86v-56zM250 288h226l-82 231l-25 106h-4l-29 -108zM192 796q0 29 18.5 43.5t46.5 14.5q29 0 48 -14.5t19 -43.5q0 -26 -19 -40t-48 -14q-28 0 -46.5 14t-18.5 40zM444 796q0 29 19 43.5
t46 14.5q29 0 48 -14.5t19 -43.5q0 -26 -19 -40t-48 -14q-27 0 -46 14t-19 40z" />
    <glyph glyph-name="uni04D3" unicode="&#x4d3;" horiz-adv-x="569" 
d="M464 139q0 -23 1 -46.5t3 -42.5h66v-50h-157l-10 95h-5q-5 -20 -18.5 -39t-34 -34t-48.5 -24t-62 -9t-62.5 10t-49.5 28t-32.5 43.5t-11.5 57.5q0 49 20.5 81t60.5 50.5t100 26.5t140 9q2 16 2 30.5v28.5q0 62 -21 94.5t-75 32.5q-20 0 -43 -2t-42 -12v-92h-90v111
q36 19 85 34t115 15q57 0 91.5 -14.5t53 -38t24 -53t5.5 -58.5q0 -63 -2.5 -120.5t-2.5 -111.5zM245 56q24 0 43 7.5t33.5 19t25 25.5t17.5 27v119q-65 0 -105.5 -8.5t-63.5 -22.5t-31.5 -33.5t-8.5 -41.5q0 -45 24 -68.5t66 -23.5zM93 688q0 29 17.5 46.5t46.5 17.5
t46.5 -17.5t17.5 -46.5q0 -27 -17.5 -44.5t-46.5 -17.5t-46.5 17.5t-17.5 44.5zM339 688q0 29 18.5 46.5t46.5 17.5q29 0 46 -17.5t17 -46.5q0 -27 -17 -44.5t-46 -17.5q-28 0 -46.5 17.5t-18.5 44.5z" />
    <glyph glyph-name="uni04D4" unicode="&#x4d4;" horiz-adv-x="1027" 
d="M943 700v-164h-64v86l-20 22h-242v-259h169l15 15v42h64v-171h-64v42l-15 16h-169v-273h262l20 20v98h64v-174h-546v56h88v197h-218l-129 -197h94v-56h-252v56h82l390 588h-60v56h531zM321 309h184v301h-2l-45 -93z" />
    <glyph glyph-name="uni04D5" unicode="&#x4d5;" horiz-adv-x="875" 
d="M245 57q24 0 43 7.5t33.5 18.5t24.5 25t17 27v119q-64 0 -104.5 -8.5t-63.5 -22.5t-31.5 -33.5t-8.5 -41.5q0 -45 24 -68t66 -23zM391 105l-21 -32.5t-34 -38t-51.5 -31.5t-72.5 -13q-78 0 -123.5 37.5t-45.5 100.5q0 49 20 81t60.5 50.5t100 26.5t139.5 9q3 31 3 59
q0 62 -21 94.5t-75 32.5q-20 0 -43 -2t-42 -12v-92h-90v111q36 19 85 34t115 15q60 0 94.5 -15.5t52.5 -40.5q28 30 73 43t94 13q40 0 78.5 -10t68.5 -33t48.5 -61t18.5 -94q0 -17 -2 -36t-6 -40h-347q0 -44 11.5 -80t34.5 -62t58 -40.5t83 -14.5q39 0 72.5 13t53.5 30
l27 -38q-26 -37 -73.5 -58.5t-110.5 -21.5q-85 0 -143 30.5t-90 85.5zM605 488q-31 0 -54.5 -9t-40.5 -30t-27 -55.5t-13 -85.5h241q1 9 1.5 18.5t0.5 17.5q0 66 -26.5 105t-81.5 39z" />
    <glyph glyph-name="uni04D6" unicode="&#x4d6;" horiz-adv-x="645" 
d="M564 700v-164h-64v86l-20 22h-245v-259h169l15 15v42h64v-171h-64v42l-15 16h-169v-273h262l20 20v98h64v-174h-549v56h91v588h-91v56h532zM328 743q-103 0 -152 34t-49 104h116v-79q14 -7 37 -10.5t49 -3.5q19 0 45 3t41 8v82h111q0 -69 -46.5 -103.5t-151.5 -34.5z" />
    <glyph glyph-name="uni04D7" unicode="&#x4d7;" horiz-adv-x="566" 
d="M499 69q-26 -37 -73.5 -58.5t-110.5 -21.5q-66 0 -116.5 19.5t-84.5 55t-51.5 86t-17.5 112.5q0 134 67 203.5t188 69.5q40 0 78.5 -10t68.5 -33t48.5 -61t18.5 -94q0 -17 -2 -36t-6 -40h-348q0 -44 11.5 -80t35 -62t58.5 -40.5t83 -14.5q39 0 72.5 13t53.5 30zM296 488
q-31 0 -54.5 -9t-40.5 -30t-27 -55.5t-13 -85.5h241q1 9 1.5 18.5t0.5 17.5q0 66 -26.5 105t-81.5 39zM299 588q-36 0 -68 6.5t-56.5 18t-41 26t-22.5 31.5v58h114v-79q13 -9 31 -12.5t44 -3.5q27 0 43.5 2.5t32.5 10.5v82h109v-58q-3 -17 -19 -32t-41.5 -26t-57.5 -17.5
t-68 -6.5z" />
    <glyph glyph-name="uni04D8" unicode="&#x4d8;" horiz-adv-x="798" 
d="M402 -12q-80 0 -144 20t-108.5 59.5t-68.5 100t-24 141.5q0 14 1 31.5t3 33.5h560q-2 67 -20.5 119.5t-55 88.5t-91 55t-127.5 19q-14 0 -32 -1t-37 -3t-36 -5t-29 -7l-16 -23v-117h-64v171q39 17 96.5 29t123.5 12q203 0 305.5 -91t102.5 -271q0 -89 -24.5 -157
t-69.5 -113.5t-107.5 -68.5t-137.5 -23zM401 44q102 0 159 66.5t61 207.5h-441l-2 -22t-1 -21q0 -49 15.5 -91.5t44.5 -73.5t70.5 -48.5t93.5 -17.5z" />
    <glyph glyph-name="afii10846" unicode="&#x4d9;" horiz-adv-x="584" 
d="M271 481q-26 0 -47.5 -2.5t-41.5 -9.5l-20 -20v-77h-64v112q21 12 41 21.5t42.5 16t49.5 10t63 3.5q63 0 109 -19t76 -54.5t44.5 -86t14.5 -113.5q0 -134 -67 -203t-188 -69q-40 0 -81 11.5t-74.5 37.5t-54.5 67.5t-21 100.5q0 16 1.5 33.5t5.5 36.5h370q0 45 -9 82.5
t-28 64.5t-49 42t-72 15zM287 37q63 0 98 45.5t41 147.5h-261q-1 -8 -1 -14.5v-14.5q0 -77 33 -120.5t90 -43.5z" />
    <glyph glyph-name="uni04DA" unicode="&#x4da;" horiz-adv-x="798" 
d="M402 -12q-80 0 -144 20t-108.5 59.5t-68.5 100t-24 141.5q0 14 1 31.5t3 33.5h560q-2 67 -20.5 119.5t-55 88.5t-91 55t-127.5 19q-14 0 -32 -1t-37 -3t-36 -5t-29 -7l-16 -23v-117h-64v171q39 17 96.5 29t123.5 12q203 0 305.5 -91t102.5 -271q0 -89 -24.5 -157
t-69.5 -113.5t-107.5 -68.5t-137.5 -23zM401 44q102 0 159 66.5t61 207.5h-441l-2 -22t-1 -21q0 -49 15.5 -91.5t44.5 -73.5t70.5 -48.5t93.5 -17.5zM180 796q0 29 18.5 43.5t46.5 14.5q29 0 48 -14.5t19 -43.5q0 -26 -19 -40t-48 -14q-28 0 -46.5 14t-18.5 40zM432 796
q0 29 19 43.5t46 14.5q29 0 48 -14.5t19 -43.5q0 -26 -19 -40t-48 -14q-27 0 -46 14t-19 40z" />
    <glyph glyph-name="uni04DB" unicode="&#x4db;" horiz-adv-x="584" 
d="M271 481q-26 0 -47.5 -2.5t-41.5 -9.5l-20 -20v-77h-64v112q21 12 41 21.5t42.5 16t49.5 10t63 3.5q63 0 109 -19t76 -54.5t44.5 -86t14.5 -113.5q0 -134 -67 -203t-188 -69q-40 0 -81 11.5t-74.5 37.5t-54.5 67.5t-21 100.5q0 16 1.5 33.5t5.5 36.5h370q0 45 -9 82.5
t-28 64.5t-49 42t-72 15zM287 37q63 0 98 45.5t41 147.5h-261q-1 -8 -1 -14.5v-14.5q0 -77 33 -120.5t90 -43.5zM105 688q0 29 17.5 46.5t46.5 17.5t46.5 -17.5t17.5 -46.5q0 -27 -17.5 -44.5t-46.5 -17.5t-46.5 17.5t-17.5 44.5zM351 688q0 29 18.5 46.5t46.5 17.5
q29 0 46 -17.5t17 -46.5q0 -27 -17 -44.5t-46 -17.5q-28 0 -46.5 17.5t-18.5 44.5z" />
    <glyph glyph-name="uni04DC" unicode="&#x4dc;" horiz-adv-x="1053" 
d="M403 332l-250 -332h-153v56h60l133 156l48.5 57l42.5 50l30.5 35.5l11.5 13.5l-223 276h-78v56h249v-56h-75l195 -262h75v262h-77v56h262v-56h-77v-262h79l196 262h-80v56h249v-56h-85l-215 -268l272 -320h60v-56h-153l-255 332h-68v-276h77v-56h-262v56h77v276h-66z
M335 796q0 29 18.5 43.5t46.5 14.5q29 0 48 -14.5t19 -43.5q0 -26 -19 -40t-48 -14q-28 0 -46.5 14t-18.5 40zM587 796q0 29 19 43.5t46 14.5q29 0 48 -14.5t19 -43.5q0 -26 -19 -40t-48 -14q-27 0 -46 14t-19 40z" />
    <glyph glyph-name="uni04DD" unicode="&#x4dd;" horiz-adv-x="814" 
d="M594 525h199v-50h-63l-146 -183l183 -242h47v-50h-136l-167 244h-54v-194h59v-50h-218v50h59v194h-59l-161 -244h-137v50h52l176 238l-154 187h-52v50h196v-50h-59l142 -191h56v191h-59v50h218v-50h-59v-191h56l140 191h-59v50zM220 688q0 29 17.5 46.5t46.5 17.5
t46.5 -17.5t17.5 -46.5q0 -27 -17.5 -44.5t-46.5 -17.5t-46.5 17.5t-17.5 44.5zM466 688q0 29 18.5 46.5t46.5 17.5q29 0 46 -17.5t17 -46.5q0 -27 -17 -44.5t-46 -17.5q-28 0 -46.5 17.5t-18.5 44.5z" />
    <glyph glyph-name="uni04DE" unicode="&#x4de;" horiz-adv-x="611" 
d="M261 -12q-62 0 -115 11t-91 28v167h64v-112l15 -19q9 -5 24.5 -8.5t33 -6t35.5 -3.5t32 -1q41 0 74.5 11t57 31t36.5 47.5t13 60.5q0 39 -13.5 65t-36 41.5t-52.5 21.5t-63 6h-87v64h127q51 16 78 49t27 81q0 65 -40.5 99.5t-114.5 34.5q-33 0 -64.5 -6t-44.5 -14
l-13 -19v-99h-64v153q18 12 41 19.5t48.5 12.5t51.5 7t50 2q46 0 92.5 -7t84 -26.5t61.5 -53t24 -85.5q0 -51 -33.5 -96t-105.5 -69v-4q34 -5 63.5 -17.5t51.5 -33t34.5 -50.5t12.5 -71q0 -54 -24 -94t-64.5 -66t-93.5 -38.5t-112 -12.5zM104 796q0 29 18.5 43.5t46.5 14.5
q29 0 48 -14.5t19 -43.5q0 -26 -19 -40t-48 -14q-28 0 -46.5 14t-18.5 40zM356 796q0 29 19 43.5t46 14.5q29 0 48 -14.5t19 -43.5q0 -26 -19 -40t-48 -14q-27 0 -46 14t-19 40z" />
    <glyph glyph-name="uni04DF" unicode="&#x4df;" horiz-adv-x="532" 
d="M244 44q29 0 51 9t37 24t22.5 34t7.5 38q0 46 -23 64.5t-63 24.5h-105v54h113q10 4 21 12.5t20.5 21.5t15.5 30t6 39q0 50 -29 68t-78 18q-25 0 -44 -2t-25 -5l-19 -22v-87h-64v134q23 12 61.5 24t109.5 12q93 0 143 -29.5t50 -90.5q0 -26 -11 -47t-29 -37.5t-40 -28
t-44 -17.5q31 -3 57.5 -12.5t46.5 -25.5t31.5 -39t11.5 -52q0 -42 -16.5 -73t-46.5 -51.5t-72 -31t-94 -10.5q-58 0 -102.5 18.5t-73.5 44.5v100h64v-69l17 -22q11 -7 33 -12.5t60 -5.5zM71 688q0 29 17.5 46.5t46.5 17.5t46.5 -17.5t17.5 -46.5q0 -27 -17.5 -44.5
t-46.5 -17.5t-46.5 17.5t-17.5 44.5zM317 688q0 29 18.5 46.5t46.5 17.5q29 0 46 -17.5t17 -46.5q0 -27 -17 -44.5t-46 -17.5q-28 0 -46.5 17.5t-18.5 44.5z" />
    <glyph glyph-name="uni04E0" unicode="&#x4e0;" horiz-adv-x="610" 
d="M303 388q120 0 185 -51.5t65 -135.5q0 -56 -25 -96t-66.5 -66t-94.5 -38.5t-109 -12.5q-62 0 -113.5 11t-89.5 28v167h64v-118l20 -19q6 -3 20 -5.5t31 -4t34.5 -2.5t31.5 -1q41 0 74.5 11.5t57.5 32t37 47.5t13 59q0 40 -15.5 67t-40.5 43t-57.5 22.5t-65.5 6.5h-90v64
h83l148 195l34 36v4l-64 -7h-230l-10 -17v-87h-64v179h459v-32l-171 -230z" />
    <glyph glyph-name="uni04E1" unicode="&#x4e1;" horiz-adv-x="528" 
d="M222 -149q41 0 71 12.5t49 34.5t28 52t9 64q0 39 -13 65t-35 42t-51.5 23.5t-61.5 7.5h-66v54h50l180 249h-241l-20 -20v-85h-72v175h405v-70l-184 -249q110 0 162 -50t52 -136q0 -57 -20.5 -98.5t-55.5 -69.5t-82.5 -41.5t-101.5 -13.5q-53 0 -99.5 18.5t-75.5 44.5v110
h72v-87l18 -21q14 -5 33.5 -8t49.5 -3z" />
    <glyph glyph-name="uni04E2" unicode="&#x4e2;" horiz-adv-x="833" 
d="M318 0h-286v56h91v588h-91v56h286v-56h-83v-429l-12 -75l54 79l327 403v22h-91v56h288v-56h-91v-588h91v-56h-288v56h85v428l11 75l-49 -75l-332 -408v-20h90v-56zM247 787v64h340v-64h-340z" />
    <glyph glyph-name="uni04E3" unicode="&#x4e3;" horiz-adv-x="691" 
d="M43 525h240v-50h-66v-308l-6 -108h6l38 89l198 377h195v-50h-74v-425h74v-50h-240v50h66v320l11 103h-6l-42 -99l-201 -374h-193v50h74v425h-74v50zM206 668v55h288v-55h-288z" />
    <glyph glyph-name="uni04E4" unicode="&#x4e4;" horiz-adv-x="833" 
d="M318 0h-286v56h91v588h-91v56h286v-56h-83v-429l-12 -75l54 79l327 403v22h-91v56h288v-56h-91v-588h91v-56h-288v56h85v428l11 75l-49 -75l-332 -408v-20h90v-56zM227 796q0 29 18.5 43.5t46.5 14.5q29 0 48 -14.5t19 -43.5q0 -26 -19 -40t-48 -14q-28 0 -46.5 14
t-18.5 40zM479 796q0 29 19 43.5t46 14.5q29 0 48 -14.5t19 -43.5q0 -26 -19 -40t-48 -14q-27 0 -46 14t-19 40z" />
    <glyph glyph-name="uni04E5" unicode="&#x4e5;" horiz-adv-x="691" 
d="M43 525h240v-50h-66v-308l-6 -108h6l38 89l198 377h195v-50h-74v-425h74v-50h-240v50h66v320l11 103h-6l-42 -99l-201 -374h-193v50h74v425h-74v50zM159 688q0 29 17.5 46.5t46.5 17.5t46.5 -17.5t17.5 -46.5q0 -27 -17.5 -44.5t-46.5 -17.5t-46.5 17.5t-17.5 44.5z
M405 688q0 29 18.5 46.5t46.5 17.5q29 0 46 -17.5t17 -46.5q0 -27 -17 -44.5t-46 -17.5q-28 0 -46.5 17.5t-18.5 44.5z" />
    <glyph glyph-name="uni04E6" unicode="&#x4e6;" horiz-adv-x="830" 
d="M57 350q0 78 24 144.5t69.5 115t112 75.5t151.5 27t152 -27t113 -75.5t70 -115t24 -144.5t-24 -144.5t-70 -115t-113 -75.5t-152 -27t-151.5 27t-112 75.5t-69.5 115t-24 144.5zM182 350q0 -64 14.5 -120t44.5 -97t75.5 -65t107.5 -24q57 0 99 24t69.5 65t41.5 97t14 120
t-14.5 120t-44.5 97t-75.5 65t-108.5 24q-60 0 -102.5 -24t-69.5 -65t-39 -97t-12 -120zM223 796q0 29 18.5 43.5t46.5 14.5q29 0 48 -14.5t19 -43.5q0 -26 -19 -40t-48 -14q-28 0 -46.5 14t-18.5 40zM475 796q0 29 19 43.5t46 14.5q29 0 48 -14.5t19 -43.5q0 -26 -19 -40
t-48 -14q-27 0 -46 14t-19 40z" />
    <glyph glyph-name="uni04E7" unicode="&#x4e7;" horiz-adv-x="622" 
d="M45 262q0 66 19 117t53.5 85.5t84 52.5t109.5 18q70 0 120.5 -19.5t82.5 -55t47.5 -86t15.5 -112.5q0 -66 -18.5 -116.5t-53 -85t-84 -52.5t-110.5 -18q-68 0 -118 19.5t-83 55t-49 85.5t-16 112zM158 262q0 -48 9 -89t29.5 -71t53 -47.5t79.5 -17.5q59 0 97 54t38 171
q0 48 -9 89.5t-28.5 72t-50 47.5t-74.5 17q-66 0 -105 -54t-39 -172zM124 688q0 29 17.5 46.5t46.5 17.5t46.5 -17.5t17.5 -46.5q0 -27 -17.5 -44.5t-46.5 -17.5t-46.5 17.5t-17.5 44.5zM370 688q0 29 18.5 46.5t46.5 17.5q29 0 46 -17.5t17 -46.5q0 -27 -17 -44.5
t-46 -17.5q-28 0 -46.5 17.5t-18.5 44.5z" />
    <glyph glyph-name="uni04E8" unicode="&#x4e8;" horiz-adv-x="830" 
d="M57 350q0 78 24 144.5t69.5 115t112 75.5t151.5 27t152 -27t113 -75.5t70 -115t24 -144.5t-24 -144.5t-70 -115t-113 -75.5t-152 -27t-151.5 27t-112 75.5t-69.5 115t-24 144.5zM424 44q54 0 95 21.5t69 59.5t43 89.5t17 111.5h-466q3 -60 19 -111.5t46 -89.5t74 -59.5
t103 -21.5zM405 656q-56 0 -96.5 -20.5t-67.5 -56.5t-41 -85.5t-17 -106.5h464q-4 57 -20.5 106.5t-46.5 85.5t-73.5 56.5t-101.5 20.5z" />
    <glyph glyph-name="uni04E9" unicode="&#x4e9;" horiz-adv-x="622" 
d="M45 262q0 66 19 117t53.5 85.5t84 52.5t109.5 18q70 0 120.5 -19.5t82.5 -55t47.5 -86t15.5 -112.5q0 -66 -18.5 -116.5t-53 -85t-84 -52.5t-110.5 -18q-68 0 -118 19.5t-83 55t-49 85.5t-16 112zM302 488q-62 0 -100 -46.5t-43 -147.5h305q-3 42 -13.5 77.5t-30 61.5
t-49 40.5t-69.5 14.5zM330 37q56 0 93 48t41 153h-306q1 -43 11.5 -80t31.5 -64t52.5 -42t76.5 -15z" />
    <glyph glyph-name="uni04EA" unicode="&#x4ea;" horiz-adv-x="830" 
d="M57 350q0 78 24 144.5t69.5 115t112 75.5t151.5 27t152 -27t113 -75.5t70 -115t24 -144.5t-24 -144.5t-70 -115t-113 -75.5t-152 -27t-151.5 27t-112 75.5t-69.5 115t-24 144.5zM424 44q54 0 95 21.5t69 59.5t43 89.5t17 111.5h-466q3 -60 19 -111.5t46 -89.5t74 -59.5
t103 -21.5zM405 656q-56 0 -96.5 -20.5t-67.5 -56.5t-41 -85.5t-17 -106.5h464q-4 57 -20.5 106.5t-46.5 85.5t-73.5 56.5t-101.5 20.5zM223 796q0 29 18.5 43.5t46.5 14.5q29 0 48 -14.5t19 -43.5q0 -26 -19 -40t-48 -14q-28 0 -46.5 14t-18.5 40zM475 796q0 29 19 43.5
t46 14.5q29 0 48 -14.5t19 -43.5q0 -26 -19 -40t-48 -14q-27 0 -46 14t-19 40z" />
    <glyph glyph-name="uni04EB" unicode="&#x4eb;" horiz-adv-x="622" 
d="M45 262q0 66 19 117t53.5 85.5t84 52.5t109.5 18q70 0 120.5 -19.5t82.5 -55t47.5 -86t15.5 -112.5q0 -66 -18.5 -116.5t-53 -85t-84 -52.5t-110.5 -18q-68 0 -118 19.5t-83 55t-49 85.5t-16 112zM302 488q-62 0 -100 -46.5t-43 -147.5h305q-3 42 -13.5 77.5t-30 61.5
t-49 40.5t-69.5 14.5zM330 37q56 0 93 48t41 153h-306q1 -43 11.5 -80t31.5 -64t52.5 -42t76.5 -15zM124 688q0 29 17.5 46.5t46.5 17.5t46.5 -17.5t17.5 -46.5q0 -27 -17.5 -44.5t-46.5 -17.5t-46.5 17.5t-17.5 44.5zM370 688q0 29 18.5 46.5t46.5 17.5q29 0 46 -17.5
t17 -46.5q0 -27 -17 -44.5t-46 -17.5q-28 0 -46.5 17.5t-18.5 44.5z" />
    <glyph glyph-name="uni04EC" unicode="&#x4ec;" horiz-adv-x="686" 
d="M202 328v64h305q-18 256 -264 256q-33 0 -57 -6t-35 -13l-14 -20v-92h-64v154q36 23 85.5 32t97.5 9q88 0 157 -20.5t117 -64t73.5 -110.5t25.5 -159q0 -95 -29.5 -164.5t-79 -115.5t-115.5 -68t-138 -22q-36 0 -65.5 2t-53.5 6.5t-44 11t-39 15.5v173h64v-105l15 -21
q14 -7 42.5 -12.5t55.5 -5.5q50 0 97.5 15t84.5 48t59.5 85.5t23.5 127.5h-305zM92 796q0 29 18.5 43.5t46.5 14.5q29 0 48 -14.5t19 -43.5q0 -26 -19 -40t-48 -14q-28 0 -46.5 14t-18.5 40zM344 796q0 29 19 43.5t46 14.5q29 0 48 -14.5t19 -43.5q0 -26 -19 -40t-48 -14
q-27 0 -46 14t-19 40z" />
    <glyph glyph-name="uni04ED" unicode="&#x4ed;" horiz-adv-x="552" 
d="M241 -10q-58 0 -100 18.5t-71 44.5v100h64v-68l15 -20q11 -6 32.5 -13.5t56.5 -7.5q75 0 115.5 51.5t40.5 141.5h-224v54h223q-2 56 -14 93t-33 59.5t-50 31.5t-63 9t-50 -4t-25 -8l-17 -20v-97h-64v143q15 8 31 15t36.5 12.5t46.5 9t62 3.5q54 0 100 -14t80.5 -45
t54 -82t19.5 -124q0 -75 -23 -128.5t-60.5 -88t-85 -50.5t-97.5 -16zM81 688q0 29 17.5 46.5t46.5 17.5t46.5 -17.5t17.5 -46.5q0 -27 -17.5 -44.5t-46.5 -17.5t-46.5 17.5t-17.5 44.5zM327 688q0 29 18.5 46.5t46.5 17.5q29 0 46 -17.5t17 -46.5q0 -27 -17 -44.5t-46 -17.5
q-28 0 -46.5 17.5t-18.5 44.5z" />
    <glyph glyph-name="uni04EE" unicode="&#x4ee;" horiz-adv-x="742" 
d="M584 644h-93v56h251v-56h-81l-215 -443q-31 -63 -60.5 -114.5t-59.5 -86.5h-95v123h111q16 24 23 46l-280 475h-85v56h300v-56h-90l183 -326l23 -64h2l23 66zM217 787v64h340v-64h-340z" />
    <glyph glyph-name="uni04EF" unicode="&#x4ef;" horiz-adv-x="568" 
d="M47 475h-59v50h258v-50h-84l136 -332l20 -76h5l19 77l107 331h-61v50h192v-50h-64l-164 -475q-14 -41 -30.5 -75.5t-32 -61t-30 -43t-24.5 -20.5h-101v90h102q7 8 13 16t12 20t13 29.5t16 44.5h-37zM160 668v55h288v-55h-288z" />
    <glyph glyph-name="uni04F0" unicode="&#x4f0;" horiz-adv-x="742" 
d="M584 644h-93v56h251v-56h-81l-215 -443q-31 -63 -60.5 -114.5t-59.5 -86.5h-95v123h111q16 24 23 46l-280 475h-85v56h300v-56h-90l183 -326l23 -64h2l23 66zM209 796q0 29 18.5 43.5t46.5 14.5q29 0 48 -14.5t19 -43.5q0 -26 -19 -40t-48 -14q-28 0 -46.5 14t-18.5 40z
M461 796q0 29 19 43.5t46 14.5q29 0 48 -14.5t19 -43.5q0 -26 -19 -40t-48 -14q-27 0 -46 14t-19 40z" />
    <glyph glyph-name="uni04F1" unicode="&#x4f1;" horiz-adv-x="568" 
d="M47 475h-59v50h258v-50h-84l136 -332l20 -76h5l19 77l107 331h-61v50h192v-50h-64l-164 -475q-14 -41 -30.5 -75.5t-32 -61t-30 -43t-24.5 -20.5h-101v90h102q7 8 13 16t12 20t13 29.5t16 44.5h-37zM118 688q0 29 17.5 46.5t46.5 17.5t46.5 -17.5t17.5 -46.5
q0 -27 -17.5 -44.5t-46.5 -17.5t-46.5 17.5t-17.5 44.5zM364 688q0 29 18.5 46.5t46.5 17.5q29 0 46 -17.5t17 -46.5q0 -27 -17 -44.5t-46 -17.5q-28 0 -46.5 17.5t-18.5 44.5z" />
    <glyph glyph-name="uni04F2" unicode="&#x4f2;" horiz-adv-x="742" 
d="M584 644h-93v56h251v-56h-81l-215 -443q-31 -63 -60.5 -114.5t-59.5 -86.5h-95v123h111q16 24 23 46l-280 475h-85v56h300v-56h-90l183 -326l23 -64h2l23 66zM361 908l101 -24v-24l-177 -103l-22 19zM558 908l106 -22v-25l-230 -106l-25 19z" />
    <glyph glyph-name="uni04F3" unicode="&#x4f3;" horiz-adv-x="568" 
d="M47 475h-59v50h258v-50h-84l136 -332l20 -76h5l19 77l107 331h-61v50h192v-50h-64l-164 -475q-14 -41 -30.5 -75.5t-32 -61t-30 -43t-24.5 -20.5h-101v90h102q7 8 13 16t12 20t13 29.5t16 44.5h-37zM242 806l97 -22v-26l-155 -130l-27 16zM438 806l98 -29v-25l-224 -124
l-23 18z" />
    <glyph glyph-name="uni04F4" unicode="&#x4f4;" horiz-adv-x="748" 
d="M625 56h91v-56h-307v56h104v254q-31 -16 -81 -30.5t-115 -14.5q-47 0 -86 8t-67.5 29t-44.5 57t-16 92v193h-91v56h276v-56h-73v-170q0 -70 31 -111.5t105 -41.5q47 0 89 12t73 29v282h-83v56h286v-56h-91v-588zM172 796q0 29 18.5 43.5t46.5 14.5q29 0 48 -14.5
t19 -43.5q0 -26 -19 -40t-48 -14q-28 0 -46.5 14t-18.5 40zM424 796q0 29 19 43.5t46 14.5q29 0 48 -14.5t19 -43.5q0 -26 -19 -40t-48 -14q-27 0 -46 14t-19 40z" />
    <glyph glyph-name="uni04F5" unicode="&#x4f5;" horiz-adv-x="629" 
d="M16 525h244v-50h-65v-130q0 -48 22 -77.5t74 -29.5q31 0 60.5 10t55.5 25v202h-65v50h244v-50h-74v-425h74v-50h-269v50h90v188q-27 -27 -64.5 -44.5t-92.5 -17.5q-76 0 -118 40t-42 108v151h-74v50zM116 688q0 29 17.5 46.5t46.5 17.5t46.5 -17.5t17.5 -46.5
q0 -27 -17.5 -44.5t-46.5 -17.5t-46.5 17.5t-17.5 44.5zM362 688q0 29 18.5 46.5t46.5 17.5q29 0 46 -17.5t17 -46.5q0 -27 -17 -44.5t-46 -17.5q-28 0 -46.5 17.5t-18.5 44.5z" />
    <glyph glyph-name="uni04F6" unicode="&#x4f6;" horiz-adv-x="557" 
d="M32 0v56h91v588h-91v56h513v-207h-72v129l-20 22h-218v-588h111v-218h-69v140l-20 22h-225z" />
    <glyph glyph-name="uni04F7" unicode="&#x4f7;" horiz-adv-x="485" 
d="M43 0v50h74v425h-74v50h417v-175h-64v105l-20 20h-154v-425h101v-200h-64v130l-20 20h-196z" />
    <glyph glyph-name="uni04F8" unicode="&#x4f8;" horiz-adv-x="953" 
d="M32 644v56h302v-56h-99v-227q22 3 50 5t51 2q55 0 105.5 -9t89 -32t61.5 -63t23 -102q0 -59 -25.5 -100.5t-67.5 -68.5t-95.5 -39.5t-108.5 -12.5q-5 0 -21 0.5t-37 1l-43 1t-39 0.5h-146v56h91v588h-91zM631 644v56h290v-56h-91v-588h91v-56h-290v56h87v588h-87z
M310 368q-26 0 -43.5 -1.5t-31.5 -4.5v-304q5 -2 15.5 -2.5t22.5 -1.5t23 -1h17q39 0 71.5 10t56 30.5t36.5 52t13 73.5q0 149 -180 149zM293 796q0 29 18.5 43.5t46.5 14.5q29 0 48 -14.5t19 -43.5q0 -26 -19 -40t-48 -14q-28 0 -46.5 14t-18.5 40zM545 796q0 29 19 43.5
t46 14.5q29 0 48 -14.5t19 -43.5q0 -26 -19 -40t-48 -14q-27 0 -46 14t-19 40z" />
    <glyph glyph-name="uni04F9" unicode="&#x4f9;" horiz-adv-x="842" 
d="M222 312q18 2 42 5t69 3q85 0 135.5 -37t50.5 -116q0 -42 -16 -73.5t-45 -53.5t-69.5 -33t-89.5 -11q-30 0 -69.5 2t-82.5 2h-104v50h74v425h-74v50h246v-50h-67v-163zM222 47q14 -1 29 -2.5t29 -1.5q126 0 126 125q0 30 -10 50t-26 32t-37.5 17.5t-43.5 5.5
q-15 0 -32.5 -1t-34.5 -4v-221zM799 0h-245v50h66v425h-67v50h246v-50h-74v-425h74v-50zM237 688q0 29 17.5 46.5t46.5 17.5t46.5 -17.5t17.5 -46.5q0 -27 -17.5 -44.5t-46.5 -17.5t-46.5 17.5t-17.5 44.5zM483 688q0 29 18.5 46.5t46.5 17.5q29 0 46 -17.5t17 -46.5
q0 -27 -17 -44.5t-46 -17.5q-28 0 -46.5 17.5t-18.5 44.5z" />
    <glyph glyph-name="uni04FC" unicode="&#x4fc;" horiz-adv-x="756" 
d="M184 56h77v-56h-251v56h84l219 296l-210 292h-89v56h298v-56h-80l155 -223l150 223h-88v56h252v-56h-82l-196 -269l117.5 -149.5t76.5 -102.5t42 -77.5t13 -73.5q0 -43 -16 -77t-43.5 -57.5t-66 -36t-83.5 -12.5h-5l-4 37q56 14 81 42t25 82q0 20 -7.5 47.5t-30 68
t-64 98.5t-108.5 139z" />
    <glyph glyph-name="uni04FD" unicode="&#x4fd;" horiz-adv-x="585" 
d="M149 50h55v-50h-193v50h63l167 210l-168 215h-55v50h240v-50h-65l115 -159l112 159h-55v50h188v-50h-62l-154 -194q22 -28 56 -66t65.5 -81.5t54.5 -89t23 -88.5q0 -87 -54.5 -124.5t-148.5 -37.5l-6 31q59 10 81.5 38t22.5 83q0 36 -19 75.5t-44.5 77.5t-52 70.5
t-42.5 54.5z" />
    <glyph glyph-name="uni0510" unicode="&#x510;" horiz-adv-x="614" 
d="M341 -12q-59 0 -111 11.5t-90.5 35.5t-61 62t-22.5 92q0 41 13.5 72.5t36.5 54t53.5 36.5t64.5 19v4q-76 21 -107 63t-31 93q0 54 23.5 89.5t61 55.5t83.5 28t92 8q24 0 49.5 -2.5t50.5 -8t48 -14t41 -20.5v-153h-64v99l-19 22q-11 7 -35.5 14t-59.5 7q-81 0 -120 -33
t-39 -103q0 -48 27 -77.5t78 -45.5h124v-64h-93q-33 0 -62.5 -8.5t-52 -26.5t-35.5 -46t-13 -67q0 -66 44.5 -103.5t134.5 -37.5q13 0 29.5 1.5t32.5 4.5t30 7t24 8l18 24v111h64v-167q-38 -17 -91 -31t-116 -14z" />
    <glyph glyph-name="uni0511" unicode="&#x511;" horiz-adv-x="528" 
d="M304 54q54 0 93 15t62 30l22 -37q-24 -29 -73 -52t-124 -23q-51 0 -93 10.5t-71.5 30.5t-46 48.5t-16.5 63.5q0 54 36.5 85.5t100.5 45.5q-52 19 -83 55t-31 79q0 34 15.5 58.5t43.5 40.5t67.5 23.5t86.5 7.5q20 0 43.5 -3.5t45 -8.5t40.5 -11.5t30 -12.5v-133h-64v83
l-14 18q-6 3 -12 5.5t-15 4.5t-22.5 3t-33.5 1q-48 0 -77 -21t-29 -77q0 -17 6 -32t15.5 -27t20.5 -20.5t21 -12.5h112v-54h-104q-38 -4 -62 -24t-24 -66q0 -22 11 -39t29.5 -29t43 -18.5t50.5 -6.5z" />
    <glyph glyph-name="uni0512" unicode="&#x512;" horiz-adv-x="739" 
d="M504 644h-209q-5 -141 -15.5 -235.5t-24 -159t-30.5 -106t-35 -75.5q-9 -17 -22 -34l-27 -34h-116v126h116q15 25 30.5 66.5t27.5 104t19.5 148.5t7.5 199h-104v56h585v-56h-91v-606q0 -71 -18.5 -116.5t-45.5 -73t-58 -40.5t-56 -18l-23 46q17 9 33 20.5t28 31t19.5 50
t8.5 79.5v627z" />
    <glyph glyph-name="uni0513" unicode="&#x513;" horiz-adv-x="605" 
d="M116 107q19 25 32 66.5t21 91.5t11.5 104.5t3.5 105.5h-78v50h463v-50h-74v-413q0 -75 -20.5 -124t-48.5 -79.5t-56.5 -45t-44.5 -19.5l-29 47q13 6 29 18t30.5 34t24.5 57t10 87v438h-146q-1 -94 -11.5 -172t-28.5 -138.5t-41.5 -102t-50.5 -62.5h-90v107h94z" />
    <glyph glyph-name="uni051C" unicode="&#x51c;" horiz-adv-x="1056" 
d="M897 644h-87v56h246v-56h-83l-167 -644h-116l-156 554l-157 -554h-116l-175 644h-86v56h299v-56h-95l107 -428l26 -133h4l39 135q0 1 6 22.5l16 55.5l22 77.5l25 88.5l68 238h74l142 -482l31 -133h5l30 135z" />
    <glyph glyph-name="uni051D" unicode="&#x51d;" horiz-adv-x="820" 
d="M176 0l-127 475h-60v50h236v-50h-67l83 -337l12 -77h6l15 78l120 373h79l102 -351l22 -100h5l19 98l79 316h-62v50h193v-50h-63l-132 -475h-117l-80 299q-1 1 -3.5 14.5t-6.5 30.5q-4 19 -10 43h-6l-12 -43l-9 -30t-4 -15l-102 -299h-110z" />
    <glyph glyph-name="uni0524" unicode="&#x524;" horiz-adv-x="813" 
d="M235 644v-588h83v-56h-286v56h91v588h-91v56h744v-56h-91v-588h111v-218h-69v140l-20 22h-217v56h83v588h-338z" />
    <glyph glyph-name="uni0525" unicode="&#x525;" horiz-adv-x="701" 
d="M400 0v50h66v425h-244v-425h66v-50h-245v50h74v425h-74v50h602v-50h-74v-425h96v-200h-64v130l-20 20h-183z" />
    <glyph glyph-name="uni0526" unicode="&#x526;" horiz-adv-x="763" 
d="M113 644h-81v56h297v-56h-104v-254q31 16 81 30.5t115 14.5q46 0 85.5 -8t68 -29t44.5 -57t16 -92v-193h111v-218h-69v140l-20 22h-207v56h73v170q0 70 -31 111.5t-105 41.5q-47 0 -89 -12t-73 -29v-282h80v-56h-273v56h81v588z" />
    <glyph glyph-name="uni0527" unicode="&#x527;" horiz-adv-x="669" 
d="M397 0v50h66v246q0 83 -22 127.5t-78 44.5q-30 0 -56 -10t-46 -26t-34.5 -35.5t-21.5 -38.5v-308h66v-50h-245v50h74v650h-85v50h190v-331h1q23 49 72.5 82.5t118.5 33.5q39 0 71 -9.5t54 -34.5t34 -67t12 -107v-267h95v-200h-64v130l-20 20h-182z" />
    <glyph glyph-name="uni1E30" unicode="&#x1e30;" horiz-adv-x="712" 
d="M300 382l218 262h-81v56h247v-56h-79l-238 -267l283 -321h62v-56h-161l-263 332h-53v-276h83v-56h-286v56h91v588h-91v56h286v-56h-83v-262h65zM463 914l123 -33v-40l-256 -72l-13 24z" />
    <glyph glyph-name="uni1E31" unicode="&#x1e31;" horiz-adv-x="582" 
d="M317 525h220v-50h-64l-155 -179l204 -246h50v-50h-144l-186 249h-37v-199h74v-50h-253v50h74v650h-85v50h190v-461h35l153 186h-76v50zM387 750h126v-41l-196 -117l-28 23z" />
    <glyph glyph-name="uni1E3E" unicode="&#x1e3e;" horiz-adv-x="984" 
d="M32 644v56h228l236 -448l241 448h215v-56h-91v-588h91v-56h-290v56h91v446q1 5 1.5 23.5t1.5 39.5q1 25 2 54h-9l-43 -107l-205 -362h-61l-200 362l-44 117h-10v-62q0 -23 0.5 -43.5t0.5 -21.5v-446h85v-56h-240v56h91v588h-91zM576 914l123 -33v-40l-256 -72l-13 24z
" />
    <glyph glyph-name="uni1E3F" unicode="&#x1e3f;" horiz-adv-x="971" 
d="M617 0h-242v50h65v243q0 42 -3.5 75t-14 55t-30.5 33.5t-52 11.5q-24 0 -44 -8.5t-36 -23.5t-27.5 -34.5t-18.5 -41.5v-310h65v-50h-244v50h74v425h-74v50h179v-106h1q17 49 60.5 82.5t106.5 33.5q26 0 51.5 -5t46.5 -19t36.5 -38.5t21.5 -64.5q10 25 26.5 48t39 40.5
t50.5 28t61 10.5q41 0 71.5 -10t51 -34.5t30.5 -67t10 -108.5v-265h74v-50h-244v50h65v262q0 37 -4 66.5t-15 49t-31 30t-53 10.5q-53 0 -82.5 -32.5t-42.5 -85.5v-300h72v-50zM561 750h126v-41l-196 -117l-28 23z" />
    <glyph glyph-name="uni1E54" unicode="&#x1e54;" horiz-adv-x="667" 
d="M32 644v56h104q45 0 97.5 4t101.5 4q55 0 108 -10.5t94 -35.5t66.5 -66.5t25.5 -103.5q0 -59 -26 -101.5t-68.5 -69.5t-98 -40t-114.5 -13h-18t-25.5 0.5t-25.5 1.5t-18 2v-216h100v-56h-303v56h91v588h-91zM235 329q5 -2 15.5 -2.5t22.5 -1.5t23.5 -1h17.5
q39 0 73.5 9.5t60.5 29.5t41 52t15 77q0 82 -51.5 121t-140.5 39q-27 0 -45 -1.5t-32 -4.5v-317zM407 914l123 -33v-40l-256 -72l-13 24z" />
    <glyph glyph-name="uni1E55" unicode="&#x1e55;" horiz-adv-x="636" 
d="M287 -200h-253v50h74v625h-74v50h179v-105h1q22 53 62.5 84t106.5 31q99 0 153.5 -61t54.5 -200q0 -66 -18.5 -119t-53 -90t-83 -56.5t-108.5 -19.5q-20 0 -35.5 1t-28.5 3t-25.5 6t-25.5 9v-158h74v-50zM344 468q-54 0 -85.5 -30.5t-45.5 -86.5v-293q20 -13 44.5 -17.5
t65.5 -4.5q37 0 66 17.5t49 49t30.5 75t10.5 96.5q0 43 -7 78.5t-22.5 61t-41.5 40t-64 14.5zM374 750h126v-41l-196 -117l-28 23z" />
    <glyph glyph-name="uni1E9E" unicode="&#x1e9e;" horiz-adv-x="733" 
d="M105 504q0 62 25.5 102.5t63.5 64t82.5 32.5t83.5 9q61 0 104 -10.5t72 -28.5t46 -42t26 -50l-207 -166q61 -11 111.5 -31t87.5 -49.5t57.5 -68.5t20.5 -88q0 -44 -17 -79t-45.5 -59t-66.5 -37t-79 -13q-54 0 -103 10.5t-89 37.5l28 49q37 -20 68 -26.5t61 -6.5
q57 0 92.5 27.5t35.5 84.5q0 30 -14 58t-45.5 52.5t-81.5 43.5t-122 31v48l199 171q-17 37 -51.5 61.5t-80.5 24.5q-30 0 -57 -7t-47.5 -26t-33 -52t-12.5 -84v-487h-185v56h73v448z" />
    <glyph glyph-name="uni2011" unicode="&#x2011;" horiz-adv-x="475" 
d="M80 314h316v-64h-316v64z" />
    <glyph glyph-name="endash" unicode="&#x2013;" horiz-adv-x="703" 
d="M81 314h540v-64h-540v64z" />
    <glyph glyph-name="emdash" unicode="&#x2014;" horiz-adv-x="994" 
d="M81 314h832v-64h-832v64z" />
    <glyph glyph-name="quoteleft" unicode="&#x2018;" horiz-adv-x="328" 
d="M251 807q-21 -6 -38 -19t-29 -29.5t-18 -35.5t-4 -37h58q8 -11 13 -25t5 -25q0 -17 -5 -32.5t-13 -27.5h-112q-16 37 -18 71q0 57 21.5 95.5t53 62t68.5 31.5z" />
    <glyph glyph-name="quoteright" unicode="&#x2019;" horiz-adv-x="328" 
d="M75 452q21 6 38 19t29 29.5t17.5 35.5t4.5 37h-57q-8 12 -13 24.5t-5 26.5q0 12 2.5 22.5t6.5 19.5t9 17h111q8 -20 13 -39t5 -39q0 -28 -9.5 -59t-28.5 -55q-15 -20 -41.5 -40t-63.5 -28z" />
    <glyph glyph-name="quotesinglbase" unicode="&#x201a;" horiz-adv-x="328" 
d="M75 -121q21 6 38 19t29 29.5t17.5 35.5t4.5 37h-57q-8 12 -13 24.5t-5 26.5q0 12 2.5 22.5t6.5 19.5t9 17h111q8 -20 13 -39t5 -39q0 -28 -9.5 -59t-28.5 -55q-15 -20 -41.5 -40t-63.5 -28z" />
    <glyph glyph-name="quotedblleft" unicode="&#x201c;" horiz-adv-x="535" 
d="M457 807q-21 -6 -38 -19t-29 -29.5t-18 -35.5t-4 -37h58q8 -11 13 -25t5 -25q0 -17 -5 -32.5t-13 -27.5h-112q-16 37 -18 71q0 57 21.5 95.5t53 62t68.5 31.5zM251 807q-21 -6 -38 -19t-29 -29.5t-18 -35.5t-4 -37h58q8 -11 13 -25t5 -25q0 -17 -5 -32.5t-13 -27.5h-112
q-16 37 -18 71q0 57 21.5 95.5t53 62t68.5 31.5z" />
    <glyph glyph-name="quotedblright" unicode="&#x201d;" horiz-adv-x="535" 
d="M281 452q21 6 38 19t29 29.5t17.5 35.5t4.5 37h-57q-8 12 -13 24.5t-5 26.5q0 12 2.5 22.5t6.5 19.5t9 17h111q8 -20 13 -39t5 -39q0 -28 -9.5 -59t-28.5 -55q-15 -20 -41.5 -40t-63.5 -28zM75 452q21 6 38 19t29 29.5t17.5 35.5t4.5 37h-57q-8 12 -13 24.5t-5 26.5
q0 12 2.5 22.5t6.5 19.5t9 17h111q8 -20 13 -39t5 -39q0 -28 -9.5 -59t-28.5 -55q-15 -20 -41.5 -40t-63.5 -28z" />
    <glyph glyph-name="quotedblbase" unicode="&#x201e;" horiz-adv-x="535" 
d="M281 -121q21 6 38 19t29 29.5t17.5 35.5t4.5 37h-57q-8 12 -13 24.5t-5 26.5q0 12 2.5 22.5t6.5 19.5t9 17h111q8 -20 13 -39t5 -39q0 -28 -9.5 -59t-28.5 -55q-15 -20 -41.5 -40t-63.5 -28zM75 -121q21 6 38 19t29 29.5t17.5 35.5t4.5 37h-57q-8 12 -13 24.5t-5 26.5
q0 12 2.5 22.5t6.5 19.5t9 17h111q8 -20 13 -39t5 -39q0 -28 -9.5 -59t-28.5 -55q-15 -20 -41.5 -40t-63.5 -28z" />
    <glyph glyph-name="dagger" unicode="&#x2020;" horiz-adv-x="549" 
d="M35 414v101h25l195 -34l-42 195v24h123v-24l-42 -195l195 34h25v-101h-28l-192 35l36 -122v-22l-42 -505h-27l-44 506v21l38 122l-195 -35h-25z" />
    <glyph glyph-name="daggerdbl" unicode="&#x2021;" horiz-adv-x="549" 
d="M217 265l38 184l-196 -35h-24v101h24l196 -34l-42 195v24h123v-24l-43 -195l197 34h24v-101h-27l-194 35l37 -184v-21l-37 -185l194 35h27v-101h-24l-197 34l43 -195v-24h-123v24l42 195l-196 -34h-24v101h24l196 -35l-38 186v20z" />
    <glyph glyph-name="bullet" unicode="&#x2022;" horiz-adv-x="514" 
d="M98 311q0 31 12.5 57.5t34 45t50.5 29t62 10.5t62 -9.5t50 -28t33.5 -45t12.5 -59.5t-12.5 -59.5t-33.5 -44.5t-50 -27.5t-62 -9.5t-62 9.5t-50.5 27.5t-34 44.5t-12.5 59.5z" />
    <glyph glyph-name="ellipsis" unicode="&#x2026;" horiz-adv-x="997" 
d="M762 58q0 31 21 49t56 18t57 -18t22 -49q0 -30 -22 -48t-57 -18t-56 18t-21 48zM421 58q0 31 21 49t56 18t57 -18t22 -49q0 -30 -22 -48t-57 -18t-56 18t-21 48zM80 58q0 31 21 49t56 18t57 -18t22 -49q0 -30 -22 -48t-57 -18t-56 18t-21 48z" />
    </font>
</defs>
</svg>
